<svg width="396" height="225" viewBox="0 0 396 225" fill="none" xmlns="http://www.w3.org/2000/svg">
<path fill-rule="evenodd" clip-rule="evenodd" d="M233.5 95.75H172C166.063 95.75 161.25 100.563 161.25 106.5V178.25H23V179.75H162C162.414 179.75 162.75 179.414 162.75 179V106.5C162.75 101.391 166.891 97.25 172 97.25H233.5V95.75ZM288.25 115V179C288.25 179.414 288.586 179.75 289 179.75H395.5V178.25H289.75V115H288.25Z" fill="url(#paint0_linear_262_1712)"/>
<path d="M257.875 73.9375C257.461 73.9375 257.125 74.2733 257.125 74.6875C257.125 75.1017 257.461 75.4375 257.875 75.4375L257.875 73.9375ZM266.313 73.9375L257.875 73.9375L257.875 75.4375L266.313 75.4375L266.313 73.9375Z" fill="#333645"/>
<path d="M260.687 79.5625C260.273 79.5625 259.937 79.8983 259.937 80.3125C259.937 80.7267 260.273 81.0625 260.687 81.0625L260.687 79.5625ZM265.531 79.5625L260.687 79.5625L260.687 81.0625L265.531 81.0625L265.531 79.5625Z" fill="#333645"/>
<path d="M257.875 85.1875C257.461 85.1875 257.125 85.5233 257.125 85.9375C257.125 86.3517 257.461 86.6875 257.875 86.6875L257.875 85.1875ZM266.313 85.1875L257.875 85.1875L257.875 86.6875L266.312 86.6875L266.313 85.1875Z" fill="#333645"/>
<path d="M282.25 52.375C281.836 52.375 281.5 52.7108 281.5 53.125C281.5 53.5392 281.836 53.875 282.25 53.875V52.375ZM295.375 53.875C295.789 53.875 296.125 53.5392 296.125 53.125C296.125 52.7108 295.789 52.375 295.375 52.375V53.875ZM282.25 53.875H285.062V52.375H282.25V53.875ZM285.062 53.875H292.562V52.375H285.062V53.875ZM292.562 53.875H295.375V52.375H292.562V53.875ZM285.812 58.75V53.125H284.312V58.75H285.812ZM293.312 58.75V53.125H291.812V58.75H293.312Z" fill="#333645"/>
<path d="M310.978 63.9171C311.272 64.2095 311.747 64.2088 312.039 63.9154C312.331 63.6221 312.331 63.1472 312.037 62.8548L310.978 63.9171ZM306.513 57.3475C306.22 57.0551 305.745 57.0558 305.452 57.3491C305.16 57.6425 305.161 58.1174 305.454 58.4098L306.513 57.3475ZM312.037 62.8548L306.513 57.3475L305.454 58.4098L310.978 63.9171L312.037 62.8548ZM308.048 60.269L304.298 64.019L305.358 65.0796L309.108 61.3296L308.048 60.269Z" fill="#333645"/>
<path d="M306.812 80.3125C306.812 90.2536 298.754 98.3125 288.812 98.3125C278.871 98.3125 270.812 90.2536 270.812 80.3125C270.812 70.3714 278.871 62.3125 288.812 62.3125C298.754 62.3125 306.812 70.3714 306.812 80.3125Z" stroke="#333645" stroke-width="1.5"/>
<path fill-rule="evenodd" clip-rule="evenodd" d="M288.812 103.75C301.757 103.75 312.25 93.2567 312.25 80.3125C312.25 67.3683 301.757 56.875 288.812 56.875C275.868 56.875 265.375 67.3683 265.375 80.3125C265.375 93.2567 275.868 103.75 288.812 103.75ZM288.812 99.0625C299.168 99.0625 307.562 90.6678 307.562 80.3125C307.562 69.9572 299.168 61.5625 288.812 61.5625C278.457 61.5625 270.062 69.9572 270.062 80.3125C270.062 90.6678 278.457 99.0625 288.812 99.0625Z" fill="url(#paint1_linear_262_1712)"/>
<path d="M288.812 71.875V80.3125H297.25" stroke="#333645" stroke-width="1.5" stroke-linecap="round" stroke-linejoin="round"/>
<path fill-rule="evenodd" clip-rule="evenodd" d="M233.368 167.267V125.736C233.368 122.714 230.918 120.264 227.896 120.264C224.874 120.264 222.424 122.714 222.424 125.736L222.424 167.267H233.368ZM204.052 133.065L204.052 167.267H193.107V133.065C193.107 130.043 195.557 127.593 198.58 127.593C201.602 127.593 204.052 130.043 204.052 133.065ZM218.71 146.909V167.267H207.765V146.909C207.765 143.887 210.216 141.437 213.238 141.437C216.26 141.437 218.71 143.887 218.71 146.909ZM248.026 137.137L248.026 167.267H237.082V137.137C237.082 134.115 239.532 131.665 242.554 131.665C245.576 131.665 248.026 134.115 248.026 137.137ZM262.684 167.267V150.166C262.684 147.144 260.234 144.694 257.212 144.694C254.19 144.694 251.74 147.144 251.74 150.166V167.267H262.684Z" fill="url(#paint2_linear_262_1712)"/>
<path d="M266.45 167.267H186.364V120.85" stroke="#333645" stroke-width="1.5" stroke-linecap="round"/>
<path fill-rule="evenodd" clip-rule="evenodd" d="M105.5 36.5H225.5C230.194 36.5 234 40.3056 234 45V85H235.5V45C235.5 39.4772 231.023 35 225.5 35H105.5C99.9772 35 95.5 39.4771 95.5 45V126C95.5 131.523 99.9772 136 105.5 136H150.5V134.5H105.5C100.806 134.5 97 130.694 97 126V45C97 40.3056 100.806 36.5 105.5 36.5Z" fill="#333645"/>
<path d="M118.5 102H136.841" stroke="#333645" stroke-width="1.5" stroke-linecap="round"/>
<path d="M118.5 84H136.841" stroke="#333645" stroke-width="1.5" stroke-linecap="round"/>
<path d="M149.451 84H212.5" stroke="#333645" stroke-width="1.5" stroke-linecap="round"/>
<path d="M118.5 66H136.841" stroke="#333645" stroke-width="1.5" stroke-linecap="round"/>
<path d="M149.451 66H212.5" stroke="#333645" stroke-width="1.5" stroke-linecap="round"/>
<defs>
<linearGradient id="paint0_linear_262_1712" x1="75.5" y1="156" x2="30.5" y2="156" gradientUnits="userSpaceOnUse">
<stop stop-color="#333645"/>
<stop offset="1" stop-color="#333645" stop-opacity="0"/>
</linearGradient>
<linearGradient id="paint1_linear_262_1712" x1="274.963" y1="56.875" x2="312.25" y2="115.202" gradientUnits="userSpaceOnUse">
<stop stop-color="#FB6214"/>
<stop offset="0.5" stop-color="#FD8237"/>
<stop offset="1" stop-color="#FDD284"/>
</linearGradient>
<linearGradient id="paint2_linear_262_1712" x1="202.874" y1="120.264" x2="232.923" y2="179.015" gradientUnits="userSpaceOnUse">
<stop stop-color="#FB6214"/>
<stop offset="0.5" stop-color="#FD8237"/>
<stop offset="1" stop-color="#FDD284"/>
</linearGradient>
</defs>
</svg>
