<svg width="317" height="151" viewBox="0 0 317 151" fill="none" xmlns="http://www.w3.org/2000/svg">
<g clip-path="url(#clip0_741_107325)">
<g filter="url(#filter0_d_741_107325)">
<g clip-path="url(#clip1_741_107325)">
<path d="M8 12C8 5.37259 13.3726 0 20 0H317V151H8V12Z" fill="#F2F4F8"/>
<rect width="309" height="150" transform="translate(8)" fill="white"/>
<rect width="309" height="30" transform="translate(8)" fill="#F9FAFB"/>
<rect x="24" y="12" width="54" height="6" rx="3" fill="#DBE0E6"/>
<path d="M144 29H8V31H144V29Z" fill="#DBE0E6" mask="url(#path-2-inside-1_741_107325)"/>
<rect x="144" y="12" width="20" height="6" rx="3" fill="#DBE0E6"/>
<rect x="172" y="12" width="35" height="6" rx="3" fill="#DBE0E6"/>
<path d="M270 29H144V31H270V29Z" fill="#DBE0E6" mask="url(#path-5-inside-2_741_107325)"/>
<rect x="270" y="12" width="20" height="6" rx="3" fill="#DBE0E6"/>
<rect x="298" y="12" width="35" height="6" rx="3" fill="#DBE0E6"/>
<path d="M396 29H270V31H396V29Z" fill="#DBE0E6" mask="url(#path-9-inside-3_741_107325)"/>
<rect x="24" y="42" width="35" height="6" rx="3" fill="#DBE0E6"/>
<rect x="67" y="42" width="48" height="6" rx="3" fill="#DBE0E6"/>
<rect x="144" y="42" width="36" height="6" rx="3" fill="#DBE0E6"/>
<rect x="188" y="42" width="35" height="6" rx="3" fill="#DBE0E6"/>
<rect x="270" y="42" width="20" height="6" rx="3" fill="#DBE0E6"/>
<rect x="298" y="42" width="35" height="6" rx="3" fill="#DBE0E6"/>
<path d="M317 59H8V61H317V59Z" fill="#EFF1F5" mask="url(#path-13-inside-4_741_107325)"/>
<rect x="24" y="72" width="44" height="6" rx="3" fill="#DBE0E6"/>
<rect x="76" y="72" width="25" height="6" rx="3" fill="#DBE0E6"/>
<rect x="144" y="72" width="20" height="6" rx="3" fill="#DBE0E6"/>
<rect x="172" y="72" width="35" height="6" rx="3" fill="#DBE0E6"/>
<rect x="270" y="72" width="20" height="6" rx="3" fill="#DBE0E6"/>
<rect x="298" y="72" width="35" height="6" rx="3" fill="#DBE0E6"/>
<path d="M317 89H8V91H317V89Z" fill="#EFF1F5" mask="url(#path-21-inside-5_741_107325)"/>
<rect x="24" y="102" width="54" height="6" rx="3" fill="#DBE0E6"/>
<rect x="144" y="102" width="20" height="6" rx="3" fill="#DBE0E6"/>
<rect x="172" y="102" width="42" height="6" rx="3" fill="#DBE0E6"/>
<rect x="270" y="102" width="20" height="6" rx="3" fill="#DBE0E6"/>
<rect x="298" y="102" width="35" height="6" rx="3" fill="#DBE0E6"/>
<path d="M317 119H8V121H317V119Z" fill="#EFF1F5" mask="url(#path-29-inside-6_741_107325)"/>
<rect x="24" y="132" width="54" height="6" rx="3" fill="#DBE0E6"/>
<rect x="86" y="132" width="24" height="6" rx="3" fill="#DBE0E6"/>
<rect x="144" y="132" width="20" height="6" rx="3" fill="#DBE0E6"/>
<rect x="172" y="132" width="35" height="6" rx="3" fill="#DBE0E6"/>
<rect x="270" y="132" width="20" height="6" rx="3" fill="#DBE0E6"/>
<rect x="298" y="132" width="35" height="6" rx="3" fill="#DBE0E6"/>
<g filter="url(#filter1_d_741_107325)">
<path d="M139 32C139 29.7909 140.791 28 143 28H302C304.209 28 306 29.7909 306 32V68C306 70.2091 304.209 72 302 72H143C140.791 72 139 70.2091 139 68V32Z" fill="white"/>
<path d="M156.057 54V45.2727H161.29V46.2102H157.114V49.1591H160.898V50.0966H157.114V54H156.057ZM162.893 54V47.4545H163.865V48.4432H163.933C164.052 48.1193 164.268 47.8565 164.581 47.6548C164.893 47.4531 165.245 47.3523 165.637 47.3523C165.711 47.3523 165.804 47.3537 165.914 47.3565C166.025 47.3594 166.109 47.3636 166.166 47.3693V48.392C166.132 48.3835 166.054 48.3707 165.931 48.3537C165.812 48.3338 165.686 48.3239 165.552 48.3239C165.234 48.3239 164.95 48.3906 164.7 48.5241C164.453 48.6548 164.257 48.8366 164.112 49.0696C163.97 49.2997 163.899 49.5625 163.899 49.858V54H162.893ZM169.818 54.1364C169.227 54.1364 168.708 53.9957 168.262 53.7145C167.819 53.4332 167.473 53.0398 167.223 52.5341C166.975 52.0284 166.852 51.4375 166.852 50.7614C166.852 50.0795 166.975 49.4844 167.223 48.9759C167.473 48.4673 167.819 48.0724 168.262 47.7912C168.708 47.5099 169.227 47.3693 169.818 47.3693C170.409 47.3693 170.926 47.5099 171.369 47.7912C171.815 48.0724 172.162 48.4673 172.409 48.9759C172.659 49.4844 172.784 50.0795 172.784 50.7614C172.784 51.4375 172.659 52.0284 172.409 52.5341C172.162 53.0398 171.815 53.4332 171.369 53.7145C170.926 53.9957 170.409 54.1364 169.818 54.1364ZM169.818 53.233C170.267 53.233 170.636 53.1179 170.926 52.8878C171.216 52.6577 171.43 52.3551 171.569 51.9801C171.708 51.6051 171.778 51.1989 171.778 50.7614C171.778 50.3239 171.708 49.9162 171.569 49.5384C171.43 49.1605 171.216 48.8551 170.926 48.6222C170.636 48.3892 170.267 48.2727 169.818 48.2727C169.369 48.2727 169 48.3892 168.71 48.6222C168.42 48.8551 168.206 49.1605 168.066 49.5384C167.927 49.9162 167.858 50.3239 167.858 50.7614C167.858 51.1989 167.927 51.6051 168.066 51.9801C168.206 52.3551 168.42 52.6577 168.71 52.8878C169 53.1179 169.369 53.233 169.818 53.233ZM174.319 54V47.4545H175.29V48.4773H175.376C175.512 48.1278 175.732 47.8565 176.036 47.6634C176.34 47.4673 176.705 47.3693 177.131 47.3693C177.563 47.3693 177.923 47.4673 178.21 47.6634C178.499 47.8565 178.725 48.1278 178.887 48.4773H178.955C179.123 48.1392 179.374 47.8707 179.71 47.6719C180.045 47.4702 180.447 47.3693 180.915 47.3693C181.501 47.3693 181.979 47.5526 182.352 47.919C182.724 48.2827 182.91 48.8494 182.91 49.6193V54H181.904V49.6193C181.904 49.1364 181.772 48.7912 181.508 48.5838C181.244 48.3764 180.933 48.2727 180.575 48.2727C180.114 48.2727 179.758 48.4119 179.505 48.6903C179.252 48.9659 179.126 49.3153 179.126 49.7386V54H178.103V49.517C178.103 49.1449 177.982 48.8452 177.741 48.6179C177.499 48.3878 177.188 48.2727 176.808 48.2727C176.546 48.2727 176.302 48.3423 176.075 48.4815C175.85 48.6207 175.668 48.8139 175.529 49.0611C175.393 49.3054 175.325 49.5881 175.325 49.9091V54H174.319Z" fill="#2E3D4B"/>
<path d="M192 44C192 39.5817 195.582 36 200 36H282C286.418 36 290 39.5817 290 44V56C290 60.4183 286.418 64 282 64H200C195.582 64 192 60.4183 192 56V44Z" fill="#EFF1F5"/>
<path d="M205.833 49.9998H207.5V51.6665H205.833V49.9998Z" fill="#44586D"/>
<path d="M205.833 53.3332H207.5V54.9998H205.833V53.3332Z" fill="#44586D"/>
<path d="M210.833 49.9998H209.167V51.6665H210.833V49.9998Z" fill="#44586D"/>
<path d="M209.167 53.3332H210.833V54.9998H209.167V53.3332Z" fill="#44586D"/>
<path d="M214.167 49.9998H212.5V51.6665H214.167V49.9998Z" fill="#44586D"/>
<path d="M212.5 53.3332H214.167V54.9998H212.5V53.3332Z" fill="#44586D"/>
<path fill-rule="evenodd" clip-rule="evenodd" d="M204.167 58.3332H215.833C216.753 58.3332 217.5 57.5857 217.5 56.6665V44.9998C217.5 44.0807 216.753 43.3332 215.833 43.3332H214.167V42.4998C214.167 42.0396 213.794 41.6665 213.333 41.6665C212.873 41.6665 212.5 42.0396 212.5 42.4998V43.3332H207.5V42.4998C207.5 42.0396 207.127 41.6665 206.667 41.6665C206.206 41.6665 205.833 42.0396 205.833 42.4998V43.3332H204.167C203.247 43.3332 202.5 44.0807 202.5 44.9998V56.6665C202.5 57.5857 203.247 58.3332 204.167 58.3332ZM215.834 56.6665L215.834 48.3332H204.167V56.6665H215.834Z" fill="#44586D"/>
<path d="M228.903 54V53.233L231.784 50.0795C232.122 49.7102 232.401 49.3892 232.619 49.1165C232.838 48.8409 233 48.5824 233.105 48.3409C233.213 48.0966 233.267 47.8409 233.267 47.5739C233.267 47.267 233.193 47.0014 233.045 46.777C232.901 46.5526 232.702 46.3793 232.449 46.2571C232.196 46.1349 231.912 46.0739 231.597 46.0739C231.261 46.0739 230.969 46.1435 230.719 46.2827C230.472 46.419 230.28 46.6108 230.143 46.858C230.01 47.1051 229.943 47.3949 229.943 47.7273H228.938C228.938 47.2159 229.055 46.767 229.291 46.3807C229.527 45.9943 229.848 45.6932 230.254 45.4773C230.663 45.2614 231.122 45.1534 231.631 45.1534C232.142 45.1534 232.595 45.2614 232.99 45.4773C233.385 45.6932 233.695 45.9844 233.919 46.3509C234.143 46.7173 234.256 47.125 234.256 47.5739C234.256 47.8949 234.197 48.2088 234.081 48.5156C233.967 48.8196 233.768 49.1591 233.484 49.5341C233.203 49.9062 232.812 50.3608 232.312 50.8977L230.352 52.9943V53.0625H234.409V54H228.903ZM238.964 54.1193C238.379 54.1193 237.862 54.0156 237.413 53.8082C236.967 53.598 236.619 53.3097 236.369 52.9432C236.119 52.5739 235.996 52.1534 235.999 51.6818C235.996 51.3125 236.068 50.9716 236.216 50.6591C236.364 50.3437 236.565 50.081 236.821 49.8707C237.08 49.6577 237.368 49.5227 237.686 49.4659V49.4148C237.268 49.3068 236.936 49.0724 236.689 48.7116C236.442 48.348 236.32 47.9347 236.322 47.4716C236.32 47.0284 236.432 46.6321 236.659 46.2827C236.886 45.9332 237.199 45.6577 237.597 45.456C237.997 45.2543 238.453 45.1534 238.964 45.1534C239.47 45.1534 239.922 45.2543 240.32 45.456C240.717 45.6577 241.03 45.9332 241.257 46.2827C241.487 46.6321 241.604 47.0284 241.607 47.4716C241.604 47.9347 241.477 48.348 241.227 48.7116C240.98 49.0724 240.652 49.3068 240.243 49.4148V49.4659C240.558 49.5227 240.842 49.6577 241.095 49.8707C241.348 50.081 241.55 50.3437 241.7 50.6591C241.851 50.9716 241.928 51.3125 241.93 51.6818C241.928 52.1534 241.8 52.5739 241.547 52.9432C241.297 53.3097 240.949 53.598 240.503 53.8082C240.06 54.0156 239.547 54.1193 238.964 54.1193ZM238.964 53.1818C239.359 53.1818 239.7 53.1179 239.987 52.9901C240.274 52.8622 240.496 52.6818 240.652 52.4489C240.808 52.2159 240.888 51.9432 240.891 51.6307C240.888 51.3011 240.803 51.0099 240.635 50.7571C240.467 50.5043 240.239 50.3054 239.949 50.1605C239.662 50.0156 239.334 49.9432 238.964 49.9432C238.592 49.9432 238.26 50.0156 237.967 50.1605C237.678 50.3054 237.449 50.5043 237.281 50.7571C237.116 51.0099 237.036 51.3011 237.038 51.6307C237.036 51.9432 237.111 52.2159 237.264 52.4489C237.42 52.6818 237.643 52.8622 237.933 52.9901C238.223 53.1179 238.567 53.1818 238.964 53.1818ZM238.964 49.0398C239.277 49.0398 239.554 48.9773 239.795 48.8523C240.04 48.7273 240.232 48.5526 240.371 48.3281C240.51 48.1037 240.581 47.8409 240.584 47.5398C240.581 47.2443 240.511 46.9872 240.375 46.7685C240.239 46.5469 240.05 46.3764 239.808 46.2571C239.567 46.1349 239.286 46.0739 238.964 46.0739C238.638 46.0739 238.352 46.1349 238.108 46.2571C237.864 46.3764 237.675 46.5469 237.541 46.7685C237.408 46.9872 237.342 47.2443 237.345 47.5398C237.342 47.8409 237.409 48.1037 237.545 48.3281C237.685 48.5526 237.876 48.7273 238.121 48.8523C238.365 48.9773 238.646 49.0398 238.964 49.0398ZM246.666 44.8636L243.853 55.3125H242.933L245.745 44.8636H246.666ZM250.688 54.1193C250.045 54.1193 249.499 53.9446 249.047 53.5952C248.595 53.2429 248.25 52.733 248.011 52.0653C247.773 51.3949 247.653 50.5852 247.653 49.6364C247.653 48.6932 247.773 47.8878 248.011 47.2202C248.253 46.5497 248.599 46.0384 249.051 45.6861C249.506 45.331 250.051 45.1534 250.688 45.1534C251.324 45.1534 251.868 45.331 252.32 45.6861C252.774 46.0384 253.121 46.5497 253.359 47.2202C253.601 47.8878 253.722 48.6932 253.722 49.6364C253.722 50.5852 253.602 51.3949 253.364 52.0653C253.125 52.733 252.78 53.2429 252.328 53.5952C251.876 53.9446 251.33 54.1193 250.688 54.1193ZM250.688 53.1818C251.324 53.1818 251.818 52.875 252.17 52.2614C252.523 51.6477 252.699 50.7727 252.699 49.6364C252.699 48.8807 252.618 48.2372 252.456 47.706C252.297 47.1747 252.067 46.7699 251.766 46.4915C251.467 46.2131 251.108 46.0739 250.688 46.0739C250.057 46.0739 249.564 46.3849 249.209 47.0071C248.854 47.6264 248.676 48.5028 248.676 49.6364C248.676 50.392 248.756 51.0341 248.915 51.5625C249.074 52.0909 249.303 52.4929 249.601 52.7685C249.902 53.044 250.264 53.1818 250.688 53.1818ZM258.136 54.1193C257.551 54.1193 257.034 54.0156 256.585 53.8082C256.139 53.598 255.791 53.3097 255.541 52.9432C255.291 52.5739 255.168 52.1534 255.17 51.6818C255.168 51.3125 255.24 50.9716 255.388 50.6591C255.536 50.3437 255.737 50.081 255.993 49.8707C256.251 49.6577 256.54 49.5227 256.858 49.4659V49.4148C256.44 49.3068 256.108 49.0724 255.861 48.7116C255.614 48.348 255.491 47.9347 255.494 47.4716C255.491 47.0284 255.604 46.6321 255.831 46.2827C256.058 45.9332 256.371 45.6577 256.768 45.456C257.169 45.2543 257.625 45.1534 258.136 45.1534C258.642 45.1534 259.094 45.2543 259.491 45.456C259.889 45.6577 260.202 45.9332 260.429 46.2827C260.659 46.6321 260.776 47.0284 260.778 47.4716C260.776 47.9347 260.649 48.348 260.399 48.7116C260.152 49.0724 259.824 49.3068 259.415 49.4148V49.4659C259.73 49.5227 260.014 49.6577 260.267 49.8707C260.52 50.081 260.722 50.3437 260.872 50.6591C261.023 50.9716 261.099 51.3125 261.102 51.6818C261.099 52.1534 260.972 52.5739 260.719 52.9432C260.469 53.3097 260.121 53.598 259.675 53.8082C259.232 54.0156 258.719 54.1193 258.136 54.1193ZM258.136 53.1818C258.531 53.1818 258.872 53.1179 259.159 52.9901C259.446 52.8622 259.668 52.6818 259.824 52.4489C259.98 52.2159 260.06 51.9432 260.062 51.6307C260.06 51.3011 259.974 51.0099 259.807 50.7571C259.639 50.5043 259.411 50.3054 259.121 50.1605C258.834 50.0156 258.506 49.9432 258.136 49.9432C257.764 49.9432 257.432 50.0156 257.139 50.1605C256.849 50.3054 256.621 50.5043 256.453 50.7571C256.288 51.0099 256.207 51.3011 256.21 51.6307C256.207 51.9432 256.283 52.2159 256.436 52.4489C256.592 52.6818 256.815 52.8622 257.105 52.9901C257.395 53.1179 257.739 53.1818 258.136 53.1818ZM258.136 49.0398C258.449 49.0398 258.726 48.9773 258.967 48.8523C259.212 48.7273 259.403 48.5526 259.543 48.3281C259.682 48.1037 259.753 47.8409 259.756 47.5398C259.753 47.2443 259.683 46.9872 259.547 46.7685C259.411 46.5469 259.222 46.3764 258.98 46.2571C258.739 46.1349 258.457 46.0739 258.136 46.0739C257.81 46.0739 257.524 46.1349 257.28 46.2571C257.036 46.3764 256.847 46.5469 256.713 46.7685C256.58 46.9872 256.514 47.2443 256.517 47.5398C256.514 47.8409 256.581 48.1037 256.717 48.3281C256.857 48.5526 257.048 48.7273 257.293 48.8523C257.537 48.9773 257.818 49.0398 258.136 49.0398ZM265.838 44.8636L263.025 55.3125H262.105L264.917 44.8636H265.838ZM267.013 54V53.233L269.893 50.0795C270.232 49.7102 270.51 49.3892 270.729 49.1165C270.947 48.8409 271.109 48.5824 271.214 48.3409C271.322 48.0966 271.376 47.8409 271.376 47.5739C271.376 47.267 271.303 47.0014 271.155 46.777C271.01 46.5526 270.811 46.3793 270.558 46.2571C270.305 46.1349 270.021 46.0739 269.706 46.0739C269.371 46.0739 269.078 46.1435 268.828 46.2827C268.581 46.419 268.389 46.6108 268.253 46.858C268.119 47.1051 268.053 47.3949 268.053 47.7273H267.047C267.047 47.2159 267.165 46.767 267.401 46.3807C267.636 45.9943 267.957 45.6932 268.364 45.4773C268.773 45.2614 269.232 45.1534 269.74 45.1534C270.251 45.1534 270.705 45.2614 271.099 45.4773C271.494 45.6932 271.804 45.9844 272.028 46.3509C272.253 46.7173 272.365 47.125 272.365 47.5739C272.365 47.8949 272.307 48.2088 272.19 48.5156C272.077 48.8196 271.878 49.1591 271.594 49.5341C271.312 49.9062 270.922 50.3608 270.422 50.8977L268.462 52.9943V53.0625H272.518V54H267.013ZM277.227 54.1193C276.665 54.1193 276.163 54.0227 275.723 53.8295C275.286 53.6364 274.938 53.3679 274.679 53.0241C274.423 52.6776 274.284 52.2756 274.261 51.8182H275.335C275.358 52.0994 275.455 52.3423 275.625 52.5469C275.795 52.7486 276.018 52.9048 276.294 53.0156C276.57 53.1264 276.875 53.1818 277.21 53.1818C277.585 53.1818 277.918 53.1165 278.207 52.9858C278.497 52.8551 278.724 52.6733 278.889 52.4403C279.054 52.2074 279.136 51.9375 279.136 51.6307C279.136 51.3097 279.057 51.027 278.898 50.7827C278.739 50.5355 278.506 50.3423 278.199 50.2031C277.892 50.0639 277.517 49.9943 277.074 49.9943H276.375V49.0568H277.074C277.42 49.0568 277.724 48.9943 277.986 48.8693C278.25 48.7443 278.456 48.5682 278.604 48.3409C278.754 48.1136 278.83 47.8466 278.83 47.5398C278.83 47.2443 278.764 46.9872 278.634 46.7685C278.503 46.5497 278.318 46.3793 278.08 46.2571C277.844 46.1349 277.565 46.0739 277.244 46.0739C276.943 46.0739 276.659 46.1293 276.392 46.2401C276.128 46.348 275.912 46.5057 275.744 46.7131C275.577 46.9176 275.486 47.1648 275.472 47.4545H274.449C274.466 46.9972 274.604 46.5966 274.862 46.2528C275.121 45.9062 275.459 45.6364 275.876 45.4432C276.297 45.25 276.759 45.1534 277.261 45.1534C277.801 45.1534 278.264 45.2628 278.651 45.4815C279.037 45.6974 279.334 45.983 279.541 46.3381C279.749 46.6932 279.852 47.0767 279.852 47.4886C279.852 47.9801 279.723 48.3991 279.464 48.7457C279.209 49.0923 278.861 49.3324 278.42 49.4659V49.5341C278.972 49.625 279.402 49.8594 279.712 50.2372C280.021 50.6122 280.176 51.0767 280.176 51.6307C280.176 52.1051 280.047 52.5312 279.788 52.9091C279.533 53.2841 279.183 53.5795 278.74 53.7955C278.297 54.0114 277.793 54.1193 277.227 54.1193Z" fill="#2E3D4B"/>
<path d="M282.813 37.7503H282.813V37.7504H282.813V37.7503Z" fill="#44586D"/>
<path d="M282.813 37.7504H282.813V37.7505H282.813V37.7504Z" fill="#44586D"/>
<path d="M282.813 37.7503H282.813V37.7504H282.813V37.7503Z" fill="#44586D"/>
<path d="M282.813 37.7504H282.813V37.7505H282.813V37.7504Z" fill="#44586D"/>
<path d="M282.813 37.7503H282.813V37.7504H282.813V37.7503Z" fill="#44586D"/>
<path d="M282.813 37.7504H282.813V37.7505H282.813V37.7504Z" fill="#44586D"/>
<path fill-rule="evenodd" clip-rule="evenodd" d="M282.813 37.7506H282.813C282.813 37.7506 282.813 37.7506 282.813 37.7505V37.7501C282.813 37.7501 282.813 37.7501 282.813 37.7501H282.813V37.75C282.813 37.75 282.813 37.75 282.813 37.75C282.813 37.75 282.813 37.75 282.813 37.75V37.7501H282.813V37.75C282.813 37.75 282.813 37.75 282.813 37.75C282.813 37.75 282.813 37.75 282.813 37.75V37.7501H282.813C282.813 37.7501 282.812 37.7501 282.812 37.7501V37.7505C282.812 37.7506 282.813 37.7506 282.813 37.7506ZM282.813 37.7505L282.813 37.7502H282.813V37.7505H282.813Z" fill="#44586D"/>
</g>
<g filter="url(#filter2_d_741_107325)">
<rect x="32" y="45" width="124.174" height="77.7489" rx="5.64255" fill="white"/>
<path d="M38 60C38 55.5817 41.5817 52 46 52H142.174C146.593 52 150.174 55.5817 150.174 60V81.7489H38V60Z" fill="white"/>
<path d="M51.0568 71V62.2727H54.0057C54.6875 62.2727 55.2472 62.3892 55.6847 62.6222C56.1222 62.8523 56.446 63.169 56.6562 63.5724C56.8665 63.9759 56.9716 64.4347 56.9716 64.9489C56.9716 65.4631 56.8665 65.919 56.6562 66.3168C56.446 66.7145 56.1236 67.027 55.6889 67.2543C55.2543 67.4787 54.6989 67.5909 54.0227 67.5909H51.6364V66.6364H53.9886C54.4545 66.6364 54.8295 66.5682 55.1136 66.4318C55.4006 66.2955 55.608 66.1023 55.7358 65.8523C55.8665 65.5994 55.9318 65.2983 55.9318 64.9489C55.9318 64.5994 55.8665 64.294 55.7358 64.0327C55.6051 63.7713 55.3963 63.5696 55.1094 63.4276C54.8224 63.2827 54.4432 63.2102 53.9716 63.2102H52.1136V71H51.0568ZM55.1648 67.0795L57.3125 71H56.0852L53.9716 67.0795H55.1648ZM58.7326 62.2727H59.994L62.9599 69.517H63.0621L66.0281 62.2727H67.2894V71H66.3008V64.3693H66.2156L63.4883 71H62.5337L59.8065 64.3693H59.7212V71H58.7326V62.2727ZM74.1811 64.4545C74.13 64.0227 73.9226 63.6875 73.5589 63.4489C73.1953 63.2102 72.7493 63.0909 72.2209 63.0909C71.8345 63.0909 71.4964 63.1534 71.2067 63.2784C70.9197 63.4034 70.6953 63.5753 70.5334 63.794C70.3743 64.0128 70.2947 64.2614 70.2947 64.5398C70.2947 64.7727 70.3501 64.973 70.4609 65.1406C70.5746 65.3054 70.7195 65.4432 70.8956 65.554C71.0717 65.6619 71.2564 65.7514 71.4496 65.8224C71.6428 65.8906 71.8203 65.946 71.9822 65.9886L72.8686 66.2273C73.0959 66.2869 73.3487 66.3693 73.6271 66.4744C73.9084 66.5795 74.1768 66.723 74.4325 66.9048C74.6911 67.0838 74.9041 67.3139 75.0717 67.5952C75.2393 67.8764 75.3232 68.2216 75.3232 68.6307C75.3232 69.1023 75.1996 69.5284 74.9524 69.9091C74.7081 70.2898 74.3501 70.5923 73.8786 70.8168C73.4098 71.0412 72.8402 71.1534 72.1697 71.1534C71.5447 71.1534 71.0036 71.0526 70.5462 70.8509C70.0916 70.6491 69.7337 70.3679 69.4723 70.0071C69.2138 69.6463 69.0675 69.2273 69.0334 68.75H70.1243C70.1527 69.0795 70.2635 69.3523 70.4567 69.5682C70.6527 69.7812 70.8999 69.9403 71.1982 70.0455C71.4993 70.1477 71.8232 70.1989 72.1697 70.1989C72.5732 70.1989 72.9354 70.1335 73.2564 70.0028C73.5774 69.8693 73.8317 69.6847 74.0192 69.4489C74.2067 69.2102 74.3004 68.9318 74.3004 68.6136C74.3004 68.3239 74.2195 68.0881 74.0575 67.9062C73.8956 67.7244 73.6825 67.5767 73.4183 67.4631C73.1541 67.3494 72.8686 67.25 72.5618 67.1648L71.4879 66.858C70.8061 66.6619 70.2663 66.3821 69.8686 66.0185C69.4709 65.6548 69.272 65.179 69.272 64.5909C69.272 64.1023 69.4041 63.6761 69.6683 63.3125C69.9354 62.946 70.2933 62.6619 70.7422 62.4602C71.1939 62.2557 71.6982 62.1534 72.255 62.1534C72.8175 62.1534 73.3175 62.2543 73.755 62.456C74.1925 62.6548 74.5391 62.9276 74.7947 63.2741C75.0533 63.6207 75.1896 64.0142 75.2038 64.4545H74.1811Z" fill="#2E3D4B"/>
<path d="M101.502 71H100.394L103.599 62.2727H104.689L107.894 71H106.786L104.178 63.6534H104.11L101.502 71ZM101.911 67.5909H106.377V68.5284H101.911V67.5909ZM111.947 71H109.253V62.2727H112.066C112.912 62.2727 113.637 62.4474 114.239 62.7969C114.841 63.1435 115.303 63.642 115.624 64.2926C115.945 64.9403 116.106 65.7159 116.106 66.6193C116.106 67.5284 115.944 68.3111 115.62 68.9673C115.296 69.6207 114.824 70.1236 114.205 70.4759C113.586 70.8253 112.833 71 111.947 71ZM110.31 70.0625H111.878C112.6 70.0625 113.198 69.9233 113.672 69.6449C114.147 69.3665 114.501 68.9702 114.733 68.456C114.966 67.9418 115.083 67.3295 115.083 66.6193C115.083 65.9148 114.968 65.3082 114.738 64.7997C114.508 64.2884 114.164 63.8963 113.706 63.6236C113.249 63.348 112.679 63.2102 111.998 63.2102H110.31V70.0625ZM117.878 71V62.2727H120.827C121.509 62.2727 122.069 62.3892 122.506 62.6222C122.944 62.8523 123.268 63.169 123.478 63.5724C123.688 63.9759 123.793 64.4347 123.793 64.9489C123.793 65.4631 123.688 65.919 123.478 66.3168C123.268 66.7145 122.945 67.027 122.51 67.2543C122.076 67.4787 121.52 67.5909 120.844 67.5909H118.458V66.6364H120.81C121.276 66.6364 121.651 66.5682 121.935 66.4318C122.222 66.2955 122.429 66.1023 122.557 65.8523C122.688 65.5994 122.753 65.2983 122.753 64.9489C122.753 64.5994 122.688 64.294 122.557 64.0327C122.427 63.7713 122.218 63.5696 121.931 63.4276C121.644 63.2827 121.265 63.2102 120.793 63.2102H118.935V71H117.878ZM121.986 67.0795L124.134 71H122.907L120.793 67.0795H121.986Z" fill="#2E3D4B"/>
<path d="M38 85.749C38 83.5399 39.7909 81.749 42 81.749H146.174C148.384 81.749 150.174 83.5399 150.174 85.749V111.749C150.174 113.958 148.384 115.749 146.174 115.749H42C39.7909 115.749 38 113.958 38 111.749V85.749Z" fill="#ADD8FF"/>
<path d="M55.255 93.5672V103.749H53.1023V95.6105H53.0426L50.7109 97.0722V95.1631L53.2315 93.5672H55.255ZM57.6749 103.749V102.198L61.2992 98.8421C61.6074 98.5438 61.8659 98.2753 62.0748 98.0367C62.2869 97.798 62.4476 97.5644 62.557 97.3357C62.6664 97.1037 62.7211 96.8534 62.7211 96.585C62.7211 96.2867 62.6531 96.0298 62.5172 95.8144C62.3813 95.5956 62.1957 95.4282 61.9604 95.3122C61.7251 95.1929 61.4583 95.1333 61.16 95.1333C60.8484 95.1333 60.5766 95.1962 60.3446 95.3222C60.1126 95.4481 59.9337 95.6288 59.8077 95.8641C59.6818 96.0994 59.6188 96.3795 59.6188 96.7043H57.5755C57.5755 96.0381 57.7263 95.4597 58.0279 94.9692C58.3295 94.4787 58.7521 94.0992 59.2956 93.8307C59.8392 93.5622 60.4656 93.428 61.1749 93.428C61.9041 93.428 62.5388 93.5573 63.079 93.8158C63.6226 94.071 64.0452 94.4256 64.3468 94.8797C64.6484 95.3338 64.7992 95.8541 64.7992 96.4408C64.7992 96.8253 64.723 97.2048 64.5705 97.5793C64.4213 97.9538 64.1545 98.3698 63.7701 98.8271C63.3856 99.2812 62.8437 99.8264 62.1444 100.463L60.6578 101.919V101.989H64.9334V103.749H57.6749Z" fill="#001170"/>
<path d="M105.69 97.8179V99.4983H101.047V97.8179H105.69ZM110.895 105.022V92.2945H111.711V105.022H110.895ZM113.058 96.4955C113.018 96.0944 112.848 95.7829 112.546 95.5608C112.244 95.3387 111.835 95.2277 111.318 95.2277C110.967 95.2277 110.67 95.2774 110.428 95.3769C110.186 95.473 110.001 95.6072 109.871 95.7796C109.745 95.9519 109.682 96.1475 109.682 96.3662C109.676 96.5485 109.714 96.7076 109.797 96.8435C109.883 96.9794 110.001 97.097 110.15 97.1965C110.299 97.2926 110.471 97.3771 110.667 97.45C110.862 97.5196 111.071 97.5793 111.293 97.629L112.208 97.8477C112.652 97.9472 113.06 98.0798 113.431 98.2455C113.802 98.4112 114.124 98.615 114.395 98.857C114.667 99.0989 114.878 99.384 115.027 99.7121C115.179 100.04 115.257 100.416 115.26 100.841C115.257 101.464 115.098 102.004 114.783 102.461C114.472 102.915 114.021 103.268 113.431 103.52C112.844 103.769 112.137 103.893 111.308 103.893C110.486 103.893 109.77 103.767 109.16 103.515C108.554 103.263 108.08 102.891 107.738 102.397C107.4 101.9 107.223 101.285 107.206 100.552H109.29C109.313 100.894 109.411 101.179 109.583 101.407C109.759 101.633 109.992 101.803 110.284 101.919C110.579 102.032 110.912 102.089 111.283 102.089C111.648 102.089 111.964 102.035 112.233 101.929C112.505 101.823 112.715 101.676 112.864 101.487C113.013 101.298 113.088 101.081 113.088 100.836C113.088 100.607 113.02 100.415 112.884 100.259C112.751 100.103 112.556 99.9706 112.297 99.8612C112.042 99.7519 111.729 99.6524 111.358 99.5629L110.249 99.2845C109.391 99.0757 108.713 98.7493 108.216 98.3051C107.719 97.861 107.472 97.2628 107.475 96.5104C107.472 95.8939 107.636 95.3553 107.967 94.8946C108.302 94.4339 108.761 94.0743 109.344 93.8158C109.928 93.5573 110.59 93.428 111.333 93.428C112.089 93.428 112.748 93.5573 113.312 93.8158C113.878 94.0743 114.319 94.4339 114.634 94.8946C114.949 95.3553 115.111 95.8889 115.121 96.4955H113.058ZM121.078 93.5672V103.749H118.926V95.6105H118.866L116.534 97.0722V95.1631L119.055 93.5672H121.078ZM127.406 103.888C126.882 103.885 126.377 103.797 125.89 103.625C125.406 103.452 124.972 103.172 124.587 102.785C124.203 102.397 123.898 101.883 123.672 101.243C123.45 100.604 123.339 99.8182 123.339 98.8868C123.343 98.0317 123.44 97.2677 123.633 96.5949C123.828 95.9188 124.107 95.3454 124.468 94.8747C124.832 94.4041 125.268 94.0461 125.775 93.8009C126.282 93.5523 126.851 93.428 127.481 93.428C128.16 93.428 128.76 93.5606 129.28 93.8257C129.801 94.0876 130.218 94.4439 130.533 94.8946C130.851 95.3454 131.044 95.8508 131.11 96.411H128.987C128.904 96.0563 128.73 95.7779 128.465 95.5757C128.2 95.3735 127.872 95.2725 127.481 95.2725C126.818 95.2725 126.314 95.5608 125.969 96.1375C125.628 96.7142 125.454 97.4981 125.447 98.4891H125.517C125.669 98.1875 125.875 97.9306 126.133 97.7185C126.395 97.503 126.692 97.339 127.023 97.2263C127.358 97.1103 127.711 97.0523 128.082 97.0523C128.685 97.0523 129.222 97.1948 129.693 97.4798C130.164 97.7616 130.535 98.1494 130.807 98.6432C131.078 99.137 131.214 99.7021 131.214 100.339C131.214 101.028 131.054 101.641 130.732 102.178C130.414 102.715 129.968 103.136 129.395 103.441C128.825 103.742 128.162 103.892 127.406 103.888ZM127.396 102.198C127.728 102.198 128.024 102.118 128.286 101.959C128.548 101.8 128.753 101.585 128.902 101.313C129.052 101.041 129.126 100.736 129.126 100.398C129.126 100.06 129.052 99.7568 128.902 99.4884C128.757 99.2199 128.554 99.0061 128.296 98.847C128.037 98.6879 127.742 98.6084 127.411 98.6084C127.162 98.6084 126.932 98.6548 126.72 98.7476C126.511 98.8404 126.327 98.9697 126.168 99.1354C126.012 99.3011 125.89 99.4933 125.8 99.7121C125.711 99.9275 125.666 100.158 125.666 100.403C125.666 100.731 125.741 101.031 125.89 101.303C126.042 101.575 126.248 101.792 126.506 101.954C126.768 102.117 127.065 102.198 127.396 102.198Z" fill="#001170"/>
</g>
</g>
</g>
<g filter="url(#filter3_d_741_107325)">
<g clip-path="url(#clip2_741_107325)">
<path d="M8 12C8 5.37259 13.3726 0 20 0H317V151H8V12Z" fill="#F2F4F8"/>
<rect width="309" height="150" transform="translate(8)" fill="white"/>
<rect width="309" height="30" transform="translate(8)" fill="#F9FAFB"/>
<rect x="24" y="12" width="54" height="6" rx="3" fill="#DBE0E6"/>
<path d="M144 29H8V31H144V29Z" fill="#DBE0E6" mask="url(#path-56-inside-7_741_107325)"/>
<rect x="144" y="12" width="20" height="6" rx="3" fill="#DBE0E6"/>
<rect x="172" y="12" width="35" height="6" rx="3" fill="#DBE0E6"/>
<path d="M270 29H144V31H270V29Z" fill="#DBE0E6" mask="url(#path-59-inside-8_741_107325)"/>
<rect x="270" y="12" width="20" height="6" rx="3" fill="#DBE0E6"/>
<rect x="298" y="12" width="35" height="6" rx="3" fill="#DBE0E6"/>
<path d="M396 29H270V31H396V29Z" fill="#DBE0E6" mask="url(#path-63-inside-9_741_107325)"/>
<rect x="24" y="42" width="35" height="6" rx="3" fill="#DBE0E6"/>
<rect x="67" y="42" width="48" height="6" rx="3" fill="#DBE0E6"/>
<rect x="144" y="42" width="36" height="6" rx="3" fill="#DBE0E6"/>
<rect x="188" y="42" width="35" height="6" rx="3" fill="#DBE0E6"/>
<rect x="270" y="42" width="20" height="6" rx="3" fill="#DBE0E6"/>
<rect x="298" y="42" width="35" height="6" rx="3" fill="#DBE0E6"/>
<path d="M317 59H8V61H317V59Z" fill="#EFF1F5" mask="url(#path-67-inside-10_741_107325)"/>
<rect x="24" y="72" width="44" height="6" rx="3" fill="#DBE0E6"/>
<rect x="76" y="72" width="25" height="6" rx="3" fill="#DBE0E6"/>
<rect x="144" y="72" width="20" height="6" rx="3" fill="#DBE0E6"/>
<rect x="172" y="72" width="35" height="6" rx="3" fill="#DBE0E6"/>
<rect x="270" y="72" width="20" height="6" rx="3" fill="#DBE0E6"/>
<rect x="298" y="72" width="35" height="6" rx="3" fill="#DBE0E6"/>
<path d="M317 89H8V91H317V89Z" fill="#EFF1F5" mask="url(#path-75-inside-11_741_107325)"/>
<rect x="24" y="102" width="54" height="6" rx="3" fill="#DBE0E6"/>
<rect x="144" y="102" width="20" height="6" rx="3" fill="#DBE0E6"/>
<rect x="172" y="102" width="42" height="6" rx="3" fill="#DBE0E6"/>
<rect x="270" y="102" width="20" height="6" rx="3" fill="#DBE0E6"/>
<rect x="298" y="102" width="35" height="6" rx="3" fill="#DBE0E6"/>
<path d="M317 119H8V121H317V119Z" fill="#EFF1F5" mask="url(#path-83-inside-12_741_107325)"/>
<rect x="24" y="132" width="54" height="6" rx="3" fill="#DBE0E6"/>
<rect x="86" y="132" width="24" height="6" rx="3" fill="#DBE0E6"/>
<rect x="144" y="132" width="20" height="6" rx="3" fill="#DBE0E6"/>
<rect x="172" y="132" width="35" height="6" rx="3" fill="#DBE0E6"/>
<rect x="270" y="132" width="20" height="6" rx="3" fill="#DBE0E6"/>
<rect x="298" y="132" width="35" height="6" rx="3" fill="#DBE0E6"/>
<g filter="url(#filter4_d_741_107325)">
<path d="M139 32C139 29.7909 140.791 28 143 28H302C304.209 28 306 29.7909 306 32V68C306 70.2091 304.209 72 302 72H143C140.791 72 139 70.2091 139 68V32Z" fill="white"/>
<path d="M156.057 54V45.2727H161.29V46.2102H157.114V49.1591H160.898V50.0966H157.114V54H156.057ZM162.893 54V47.4545H163.865V48.4432H163.933C164.052 48.1193 164.268 47.8565 164.581 47.6548C164.893 47.4531 165.245 47.3523 165.637 47.3523C165.711 47.3523 165.804 47.3537 165.914 47.3565C166.025 47.3594 166.109 47.3636 166.166 47.3693V48.392C166.132 48.3835 166.054 48.3707 165.931 48.3537C165.812 48.3338 165.686 48.3239 165.552 48.3239C165.234 48.3239 164.95 48.3906 164.7 48.5241C164.453 48.6548 164.257 48.8366 164.112 49.0696C163.97 49.2997 163.899 49.5625 163.899 49.858V54H162.893ZM169.818 54.1364C169.227 54.1364 168.708 53.9957 168.262 53.7145C167.819 53.4332 167.473 53.0398 167.223 52.5341C166.975 52.0284 166.852 51.4375 166.852 50.7614C166.852 50.0795 166.975 49.4844 167.223 48.9759C167.473 48.4673 167.819 48.0724 168.262 47.7912C168.708 47.5099 169.227 47.3693 169.818 47.3693C170.409 47.3693 170.926 47.5099 171.369 47.7912C171.815 48.0724 172.162 48.4673 172.409 48.9759C172.659 49.4844 172.784 50.0795 172.784 50.7614C172.784 51.4375 172.659 52.0284 172.409 52.5341C172.162 53.0398 171.815 53.4332 171.369 53.7145C170.926 53.9957 170.409 54.1364 169.818 54.1364ZM169.818 53.233C170.267 53.233 170.636 53.1179 170.926 52.8878C171.216 52.6577 171.43 52.3551 171.569 51.9801C171.708 51.6051 171.778 51.1989 171.778 50.7614C171.778 50.3239 171.708 49.9162 171.569 49.5384C171.43 49.1605 171.216 48.8551 170.926 48.6222C170.636 48.3892 170.267 48.2727 169.818 48.2727C169.369 48.2727 169 48.3892 168.71 48.6222C168.42 48.8551 168.206 49.1605 168.066 49.5384C167.927 49.9162 167.858 50.3239 167.858 50.7614C167.858 51.1989 167.927 51.6051 168.066 51.9801C168.206 52.3551 168.42 52.6577 168.71 52.8878C169 53.1179 169.369 53.233 169.818 53.233ZM174.319 54V47.4545H175.29V48.4773H175.376C175.512 48.1278 175.732 47.8565 176.036 47.6634C176.34 47.4673 176.705 47.3693 177.131 47.3693C177.563 47.3693 177.923 47.4673 178.21 47.6634C178.499 47.8565 178.725 48.1278 178.887 48.4773H178.955C179.123 48.1392 179.374 47.8707 179.71 47.6719C180.045 47.4702 180.447 47.3693 180.915 47.3693C181.501 47.3693 181.979 47.5526 182.352 47.919C182.724 48.2827 182.91 48.8494 182.91 49.6193V54H181.904V49.6193C181.904 49.1364 181.772 48.7912 181.508 48.5838C181.244 48.3764 180.933 48.2727 180.575 48.2727C180.114 48.2727 179.758 48.4119 179.505 48.6903C179.252 48.9659 179.126 49.3153 179.126 49.7386V54H178.103V49.517C178.103 49.1449 177.982 48.8452 177.741 48.6179C177.499 48.3878 177.188 48.2727 176.808 48.2727C176.546 48.2727 176.302 48.3423 176.075 48.4815C175.85 48.6207 175.668 48.8139 175.529 49.0611C175.393 49.3054 175.325 49.5881 175.325 49.9091V54H174.319Z" fill="#2E3D4B"/>
<path d="M192 44C192 39.5817 195.582 36 200 36H282C286.418 36 290 39.5817 290 44V56C290 60.4183 286.418 64 282 64H200C195.582 64 192 60.4183 192 56V44Z" fill="#EFF1F5"/>
<path d="M205.833 49.9998H207.5V51.6665H205.833V49.9998Z" fill="#44586D"/>
<path d="M205.833 53.3332H207.5V54.9998H205.833V53.3332Z" fill="#44586D"/>
<path d="M210.833 49.9998H209.167V51.6665H210.833V49.9998Z" fill="#44586D"/>
<path d="M209.167 53.3332H210.833V54.9998H209.167V53.3332Z" fill="#44586D"/>
<path d="M214.167 49.9998H212.5V51.6665H214.167V49.9998Z" fill="#44586D"/>
<path d="M212.5 53.3332H214.167V54.9998H212.5V53.3332Z" fill="#44586D"/>
<path fill-rule="evenodd" clip-rule="evenodd" d="M204.167 58.3332H215.833C216.753 58.3332 217.5 57.5857 217.5 56.6665V44.9998C217.5 44.0807 216.753 43.3332 215.833 43.3332H214.167V42.4998C214.167 42.0396 213.794 41.6665 213.333 41.6665C212.873 41.6665 212.5 42.0396 212.5 42.4998V43.3332H207.5V42.4998C207.5 42.0396 207.127 41.6665 206.667 41.6665C206.206 41.6665 205.833 42.0396 205.833 42.4998V43.3332H204.167C203.247 43.3332 202.5 44.0807 202.5 44.9998V56.6665C202.5 57.5857 203.247 58.3332 204.167 58.3332ZM215.834 56.6665L215.834 48.3332H204.167V56.6665H215.834Z" fill="#44586D"/>
<path d="M228.903 54V53.233L231.784 50.0795C232.122 49.7102 232.401 49.3892 232.619 49.1165C232.838 48.8409 233 48.5824 233.105 48.3409C233.213 48.0966 233.267 47.8409 233.267 47.5739C233.267 47.267 233.193 47.0014 233.045 46.777C232.901 46.5526 232.702 46.3793 232.449 46.2571C232.196 46.1349 231.912 46.0739 231.597 46.0739C231.261 46.0739 230.969 46.1435 230.719 46.2827C230.472 46.419 230.28 46.6108 230.143 46.858C230.01 47.1051 229.943 47.3949 229.943 47.7273H228.938C228.938 47.2159 229.055 46.767 229.291 46.3807C229.527 45.9943 229.848 45.6932 230.254 45.4773C230.663 45.2614 231.122 45.1534 231.631 45.1534C232.142 45.1534 232.595 45.2614 232.99 45.4773C233.385 45.6932 233.695 45.9844 233.919 46.3509C234.143 46.7173 234.256 47.125 234.256 47.5739C234.256 47.8949 234.197 48.2088 234.081 48.5156C233.967 48.8196 233.768 49.1591 233.484 49.5341C233.203 49.9062 232.812 50.3608 232.312 50.8977L230.352 52.9943V53.0625H234.409V54H228.903ZM238.964 54.1193C238.379 54.1193 237.862 54.0156 237.413 53.8082C236.967 53.598 236.619 53.3097 236.369 52.9432C236.119 52.5739 235.996 52.1534 235.999 51.6818C235.996 51.3125 236.068 50.9716 236.216 50.6591C236.364 50.3437 236.565 50.081 236.821 49.8707C237.08 49.6577 237.368 49.5227 237.686 49.4659V49.4148C237.268 49.3068 236.936 49.0724 236.689 48.7116C236.442 48.348 236.32 47.9347 236.322 47.4716C236.32 47.0284 236.432 46.6321 236.659 46.2827C236.886 45.9332 237.199 45.6577 237.597 45.456C237.997 45.2543 238.453 45.1534 238.964 45.1534C239.47 45.1534 239.922 45.2543 240.32 45.456C240.717 45.6577 241.03 45.9332 241.257 46.2827C241.487 46.6321 241.604 47.0284 241.607 47.4716C241.604 47.9347 241.477 48.348 241.227 48.7116C240.98 49.0724 240.652 49.3068 240.243 49.4148V49.4659C240.558 49.5227 240.842 49.6577 241.095 49.8707C241.348 50.081 241.55 50.3437 241.7 50.6591C241.851 50.9716 241.928 51.3125 241.93 51.6818C241.928 52.1534 241.8 52.5739 241.547 52.9432C241.297 53.3097 240.949 53.598 240.503 53.8082C240.06 54.0156 239.547 54.1193 238.964 54.1193ZM238.964 53.1818C239.359 53.1818 239.7 53.1179 239.987 52.9901C240.274 52.8622 240.496 52.6818 240.652 52.4489C240.808 52.2159 240.888 51.9432 240.891 51.6307C240.888 51.3011 240.803 51.0099 240.635 50.7571C240.467 50.5043 240.239 50.3054 239.949 50.1605C239.662 50.0156 239.334 49.9432 238.964 49.9432C238.592 49.9432 238.26 50.0156 237.967 50.1605C237.678 50.3054 237.449 50.5043 237.281 50.7571C237.116 51.0099 237.036 51.3011 237.038 51.6307C237.036 51.9432 237.111 52.2159 237.264 52.4489C237.42 52.6818 237.643 52.8622 237.933 52.9901C238.223 53.1179 238.567 53.1818 238.964 53.1818ZM238.964 49.0398C239.277 49.0398 239.554 48.9773 239.795 48.8523C240.04 48.7273 240.232 48.5526 240.371 48.3281C240.51 48.1037 240.581 47.8409 240.584 47.5398C240.581 47.2443 240.511 46.9872 240.375 46.7685C240.239 46.5469 240.05 46.3764 239.808 46.2571C239.567 46.1349 239.286 46.0739 238.964 46.0739C238.638 46.0739 238.352 46.1349 238.108 46.2571C237.864 46.3764 237.675 46.5469 237.541 46.7685C237.408 46.9872 237.342 47.2443 237.345 47.5398C237.342 47.8409 237.409 48.1037 237.545 48.3281C237.685 48.5526 237.876 48.7273 238.121 48.8523C238.365 48.9773 238.646 49.0398 238.964 49.0398ZM246.666 44.8636L243.853 55.3125H242.933L245.745 44.8636H246.666ZM250.688 54.1193C250.045 54.1193 249.499 53.9446 249.047 53.5952C248.595 53.2429 248.25 52.733 248.011 52.0653C247.773 51.3949 247.653 50.5852 247.653 49.6364C247.653 48.6932 247.773 47.8878 248.011 47.2202C248.253 46.5497 248.599 46.0384 249.051 45.6861C249.506 45.331 250.051 45.1534 250.688 45.1534C251.324 45.1534 251.868 45.331 252.32 45.6861C252.774 46.0384 253.121 46.5497 253.359 47.2202C253.601 47.8878 253.722 48.6932 253.722 49.6364C253.722 50.5852 253.602 51.3949 253.364 52.0653C253.125 52.733 252.78 53.2429 252.328 53.5952C251.876 53.9446 251.33 54.1193 250.688 54.1193ZM250.688 53.1818C251.324 53.1818 251.818 52.875 252.17 52.2614C252.523 51.6477 252.699 50.7727 252.699 49.6364C252.699 48.8807 252.618 48.2372 252.456 47.706C252.297 47.1747 252.067 46.7699 251.766 46.4915C251.467 46.2131 251.108 46.0739 250.688 46.0739C250.057 46.0739 249.564 46.3849 249.209 47.0071C248.854 47.6264 248.676 48.5028 248.676 49.6364C248.676 50.392 248.756 51.0341 248.915 51.5625C249.074 52.0909 249.303 52.4929 249.601 52.7685C249.902 53.044 250.264 53.1818 250.688 53.1818ZM258.136 54.1193C257.551 54.1193 257.034 54.0156 256.585 53.8082C256.139 53.598 255.791 53.3097 255.541 52.9432C255.291 52.5739 255.168 52.1534 255.17 51.6818C255.168 51.3125 255.24 50.9716 255.388 50.6591C255.536 50.3437 255.737 50.081 255.993 49.8707C256.251 49.6577 256.54 49.5227 256.858 49.4659V49.4148C256.44 49.3068 256.108 49.0724 255.861 48.7116C255.614 48.348 255.491 47.9347 255.494 47.4716C255.491 47.0284 255.604 46.6321 255.831 46.2827C256.058 45.9332 256.371 45.6577 256.768 45.456C257.169 45.2543 257.625 45.1534 258.136 45.1534C258.642 45.1534 259.094 45.2543 259.491 45.456C259.889 45.6577 260.202 45.9332 260.429 46.2827C260.659 46.6321 260.776 47.0284 260.778 47.4716C260.776 47.9347 260.649 48.348 260.399 48.7116C260.152 49.0724 259.824 49.3068 259.415 49.4148V49.4659C259.73 49.5227 260.014 49.6577 260.267 49.8707C260.52 50.081 260.722 50.3437 260.872 50.6591C261.023 50.9716 261.099 51.3125 261.102 51.6818C261.099 52.1534 260.972 52.5739 260.719 52.9432C260.469 53.3097 260.121 53.598 259.675 53.8082C259.232 54.0156 258.719 54.1193 258.136 54.1193ZM258.136 53.1818C258.531 53.1818 258.872 53.1179 259.159 52.9901C259.446 52.8622 259.668 52.6818 259.824 52.4489C259.98 52.2159 260.06 51.9432 260.062 51.6307C260.06 51.3011 259.974 51.0099 259.807 50.7571C259.639 50.5043 259.411 50.3054 259.121 50.1605C258.834 50.0156 258.506 49.9432 258.136 49.9432C257.764 49.9432 257.432 50.0156 257.139 50.1605C256.849 50.3054 256.621 50.5043 256.453 50.7571C256.288 51.0099 256.207 51.3011 256.21 51.6307C256.207 51.9432 256.283 52.2159 256.436 52.4489C256.592 52.6818 256.815 52.8622 257.105 52.9901C257.395 53.1179 257.739 53.1818 258.136 53.1818ZM258.136 49.0398C258.449 49.0398 258.726 48.9773 258.967 48.8523C259.212 48.7273 259.403 48.5526 259.543 48.3281C259.682 48.1037 259.753 47.8409 259.756 47.5398C259.753 47.2443 259.683 46.9872 259.547 46.7685C259.411 46.5469 259.222 46.3764 258.98 46.2571C258.739 46.1349 258.457 46.0739 258.136 46.0739C257.81 46.0739 257.524 46.1349 257.28 46.2571C257.036 46.3764 256.847 46.5469 256.713 46.7685C256.58 46.9872 256.514 47.2443 256.517 47.5398C256.514 47.8409 256.581 48.1037 256.717 48.3281C256.857 48.5526 257.048 48.7273 257.293 48.8523C257.537 48.9773 257.818 49.0398 258.136 49.0398ZM265.838 44.8636L263.025 55.3125H262.105L264.917 44.8636H265.838ZM267.013 54V53.233L269.893 50.0795C270.232 49.7102 270.51 49.3892 270.729 49.1165C270.947 48.8409 271.109 48.5824 271.214 48.3409C271.322 48.0966 271.376 47.8409 271.376 47.5739C271.376 47.267 271.303 47.0014 271.155 46.777C271.01 46.5526 270.811 46.3793 270.558 46.2571C270.305 46.1349 270.021 46.0739 269.706 46.0739C269.371 46.0739 269.078 46.1435 268.828 46.2827C268.581 46.419 268.389 46.6108 268.253 46.858C268.119 47.1051 268.053 47.3949 268.053 47.7273H267.047C267.047 47.2159 267.165 46.767 267.401 46.3807C267.636 45.9943 267.957 45.6932 268.364 45.4773C268.773 45.2614 269.232 45.1534 269.74 45.1534C270.251 45.1534 270.705 45.2614 271.099 45.4773C271.494 45.6932 271.804 45.9844 272.028 46.3509C272.253 46.7173 272.365 47.125 272.365 47.5739C272.365 47.8949 272.307 48.2088 272.19 48.5156C272.077 48.8196 271.878 49.1591 271.594 49.5341C271.312 49.9062 270.922 50.3608 270.422 50.8977L268.462 52.9943V53.0625H272.518V54H267.013ZM277.227 54.1193C276.665 54.1193 276.163 54.0227 275.723 53.8295C275.286 53.6364 274.938 53.3679 274.679 53.0241C274.423 52.6776 274.284 52.2756 274.261 51.8182H275.335C275.358 52.0994 275.455 52.3423 275.625 52.5469C275.795 52.7486 276.018 52.9048 276.294 53.0156C276.57 53.1264 276.875 53.1818 277.21 53.1818C277.585 53.1818 277.918 53.1165 278.207 52.9858C278.497 52.8551 278.724 52.6733 278.889 52.4403C279.054 52.2074 279.136 51.9375 279.136 51.6307C279.136 51.3097 279.057 51.027 278.898 50.7827C278.739 50.5355 278.506 50.3423 278.199 50.2031C277.892 50.0639 277.517 49.9943 277.074 49.9943H276.375V49.0568H277.074C277.42 49.0568 277.724 48.9943 277.986 48.8693C278.25 48.7443 278.456 48.5682 278.604 48.3409C278.754 48.1136 278.83 47.8466 278.83 47.5398C278.83 47.2443 278.764 46.9872 278.634 46.7685C278.503 46.5497 278.318 46.3793 278.08 46.2571C277.844 46.1349 277.565 46.0739 277.244 46.0739C276.943 46.0739 276.659 46.1293 276.392 46.2401C276.128 46.348 275.912 46.5057 275.744 46.7131C275.577 46.9176 275.486 47.1648 275.472 47.4545H274.449C274.466 46.9972 274.604 46.5966 274.862 46.2528C275.121 45.9062 275.459 45.6364 275.876 45.4432C276.297 45.25 276.759 45.1534 277.261 45.1534C277.801 45.1534 278.264 45.2628 278.651 45.4815C279.037 45.6974 279.334 45.983 279.541 46.3381C279.749 46.6932 279.852 47.0767 279.852 47.4886C279.852 47.9801 279.723 48.3991 279.464 48.7457C279.209 49.0923 278.861 49.3324 278.42 49.4659V49.5341C278.972 49.625 279.402 49.8594 279.712 50.2372C280.021 50.6122 280.176 51.0767 280.176 51.6307C280.176 52.1051 280.047 52.5312 279.788 52.9091C279.533 53.2841 279.183 53.5795 278.74 53.7955C278.297 54.0114 277.793 54.1193 277.227 54.1193Z" fill="#2E3D4B"/>
<path d="M282.813 37.7503H282.813V37.7504H282.813V37.7503Z" fill="#44586D"/>
<path d="M282.813 37.7504H282.813V37.7505H282.813V37.7504Z" fill="#44586D"/>
<path d="M282.813 37.7503H282.813V37.7504H282.813V37.7503Z" fill="#44586D"/>
<path d="M282.813 37.7504H282.813V37.7505H282.813V37.7504Z" fill="#44586D"/>
<path d="M282.813 37.7503H282.813V37.7504H282.813V37.7503Z" fill="#44586D"/>
<path d="M282.813 37.7504H282.813V37.7505H282.813V37.7504Z" fill="#44586D"/>
<path fill-rule="evenodd" clip-rule="evenodd" d="M282.813 37.7506H282.813C282.813 37.7506 282.813 37.7506 282.813 37.7505V37.7501C282.813 37.7501 282.813 37.7501 282.813 37.7501H282.813V37.75C282.813 37.75 282.813 37.75 282.813 37.75C282.813 37.75 282.813 37.75 282.813 37.75V37.7501H282.813V37.75C282.813 37.75 282.813 37.75 282.813 37.75C282.813 37.75 282.813 37.75 282.813 37.75V37.7501H282.813C282.813 37.7501 282.812 37.7501 282.812 37.7501V37.7505C282.812 37.7506 282.813 37.7506 282.813 37.7506ZM282.813 37.7505L282.813 37.7502H282.813V37.7505H282.813Z" fill="#44586D"/>
</g>
<g filter="url(#filter5_d_741_107325)">
<rect x="32" y="45" width="124.174" height="77.7489" rx="5.64255" fill="white"/>
<path d="M38 60C38 55.5817 41.5817 52 46 52H142.174C146.593 52 150.174 55.5817 150.174 60V81.7489H38V60Z" fill="white"/>
<path d="M51.0568 71V62.2727H54.0057C54.6875 62.2727 55.2472 62.3892 55.6847 62.6222C56.1222 62.8523 56.446 63.169 56.6562 63.5724C56.8665 63.9759 56.9716 64.4347 56.9716 64.9489C56.9716 65.4631 56.8665 65.919 56.6562 66.3168C56.446 66.7145 56.1236 67.027 55.6889 67.2543C55.2543 67.4787 54.6989 67.5909 54.0227 67.5909H51.6364V66.6364H53.9886C54.4545 66.6364 54.8295 66.5682 55.1136 66.4318C55.4006 66.2955 55.608 66.1023 55.7358 65.8523C55.8665 65.5994 55.9318 65.2983 55.9318 64.9489C55.9318 64.5994 55.8665 64.294 55.7358 64.0327C55.6051 63.7713 55.3963 63.5696 55.1094 63.4276C54.8224 63.2827 54.4432 63.2102 53.9716 63.2102H52.1136V71H51.0568ZM55.1648 67.0795L57.3125 71H56.0852L53.9716 67.0795H55.1648ZM58.7326 62.2727H59.994L62.9599 69.517H63.0621L66.0281 62.2727H67.2894V71H66.3008V64.3693H66.2156L63.4883 71H62.5337L59.8065 64.3693H59.7212V71H58.7326V62.2727ZM74.1811 64.4545C74.13 64.0227 73.9226 63.6875 73.5589 63.4489C73.1953 63.2102 72.7493 63.0909 72.2209 63.0909C71.8345 63.0909 71.4964 63.1534 71.2067 63.2784C70.9197 63.4034 70.6953 63.5753 70.5334 63.794C70.3743 64.0128 70.2947 64.2614 70.2947 64.5398C70.2947 64.7727 70.3501 64.973 70.4609 65.1406C70.5746 65.3054 70.7195 65.4432 70.8956 65.554C71.0717 65.6619 71.2564 65.7514 71.4496 65.8224C71.6428 65.8906 71.8203 65.946 71.9822 65.9886L72.8686 66.2273C73.0959 66.2869 73.3487 66.3693 73.6271 66.4744C73.9084 66.5795 74.1768 66.723 74.4325 66.9048C74.6911 67.0838 74.9041 67.3139 75.0717 67.5952C75.2393 67.8764 75.3232 68.2216 75.3232 68.6307C75.3232 69.1023 75.1996 69.5284 74.9524 69.9091C74.7081 70.2898 74.3501 70.5923 73.8786 70.8168C73.4098 71.0412 72.8402 71.1534 72.1697 71.1534C71.5447 71.1534 71.0036 71.0526 70.5462 70.8509C70.0916 70.6491 69.7337 70.3679 69.4723 70.0071C69.2138 69.6463 69.0675 69.2273 69.0334 68.75H70.1243C70.1527 69.0795 70.2635 69.3523 70.4567 69.5682C70.6527 69.7812 70.8999 69.9403 71.1982 70.0455C71.4993 70.1477 71.8232 70.1989 72.1697 70.1989C72.5732 70.1989 72.9354 70.1335 73.2564 70.0028C73.5774 69.8693 73.8317 69.6847 74.0192 69.4489C74.2067 69.2102 74.3004 68.9318 74.3004 68.6136C74.3004 68.3239 74.2195 68.0881 74.0575 67.9062C73.8956 67.7244 73.6825 67.5767 73.4183 67.4631C73.1541 67.3494 72.8686 67.25 72.5618 67.1648L71.4879 66.858C70.8061 66.6619 70.2663 66.3821 69.8686 66.0185C69.4709 65.6548 69.272 65.179 69.272 64.5909C69.272 64.1023 69.4041 63.6761 69.6683 63.3125C69.9354 62.946 70.2933 62.6619 70.7422 62.4602C71.1939 62.2557 71.6982 62.1534 72.255 62.1534C72.8175 62.1534 73.3175 62.2543 73.755 62.456C74.1925 62.6548 74.5391 62.9276 74.7947 63.2741C75.0533 63.6207 75.1896 64.0142 75.2038 64.4545H74.1811Z" fill="#2E3D4B"/>
<path d="M101.502 71H100.394L103.599 62.2727H104.689L107.894 71H106.786L104.178 63.6534H104.11L101.502 71ZM101.911 67.5909H106.377V68.5284H101.911V67.5909ZM111.947 71H109.253V62.2727H112.066C112.912 62.2727 113.637 62.4474 114.239 62.7969C114.841 63.1435 115.303 63.642 115.624 64.2926C115.945 64.9403 116.106 65.7159 116.106 66.6193C116.106 67.5284 115.944 68.3111 115.62 68.9673C115.296 69.6207 114.824 70.1236 114.205 70.4759C113.586 70.8253 112.833 71 111.947 71ZM110.31 70.0625H111.878C112.6 70.0625 113.198 69.9233 113.672 69.6449C114.147 69.3665 114.501 68.9702 114.733 68.456C114.966 67.9418 115.083 67.3295 115.083 66.6193C115.083 65.9148 114.968 65.3082 114.738 64.7997C114.508 64.2884 114.164 63.8963 113.706 63.6236C113.249 63.348 112.679 63.2102 111.998 63.2102H110.31V70.0625ZM117.878 71V62.2727H120.827C121.509 62.2727 122.069 62.3892 122.506 62.6222C122.944 62.8523 123.268 63.169 123.478 63.5724C123.688 63.9759 123.793 64.4347 123.793 64.9489C123.793 65.4631 123.688 65.919 123.478 66.3168C123.268 66.7145 122.945 67.027 122.51 67.2543C122.076 67.4787 121.52 67.5909 120.844 67.5909H118.458V66.6364H120.81C121.276 66.6364 121.651 66.5682 121.935 66.4318C122.222 66.2955 122.429 66.1023 122.557 65.8523C122.688 65.5994 122.753 65.2983 122.753 64.9489C122.753 64.5994 122.688 64.294 122.557 64.0327C122.427 63.7713 122.218 63.5696 121.931 63.4276C121.644 63.2827 121.265 63.2102 120.793 63.2102H118.935V71H117.878ZM121.986 67.0795L124.134 71H122.907L120.793 67.0795H121.986Z" fill="#2E3D4B"/>
<path d="M38 85.749C38 83.5399 39.7909 81.749 42 81.749H146.174C148.384 81.749 150.174 83.5399 150.174 85.749V111.749C150.174 113.958 148.384 115.749 146.174 115.749H42C39.7909 115.749 38 113.958 38 111.749V85.749Z" fill="#ADD8FF"/>
<path d="M55.255 93.5672V103.749H53.1023V95.6105H53.0426L50.7109 97.0722V95.1631L53.2315 93.5672H55.255ZM57.6749 103.749V102.198L61.2992 98.8421C61.6074 98.5438 61.8659 98.2753 62.0748 98.0367C62.2869 97.798 62.4476 97.5644 62.557 97.3357C62.6664 97.1037 62.7211 96.8534 62.7211 96.585C62.7211 96.2867 62.6531 96.0298 62.5172 95.8144C62.3813 95.5956 62.1957 95.4282 61.9604 95.3122C61.7251 95.1929 61.4583 95.1333 61.16 95.1333C60.8484 95.1333 60.5766 95.1962 60.3446 95.3222C60.1126 95.4481 59.9337 95.6288 59.8077 95.8641C59.6818 96.0994 59.6188 96.3795 59.6188 96.7043H57.5755C57.5755 96.0381 57.7263 95.4597 58.0279 94.9692C58.3295 94.4787 58.7521 94.0992 59.2956 93.8307C59.8392 93.5622 60.4656 93.428 61.1749 93.428C61.9041 93.428 62.5388 93.5573 63.079 93.8158C63.6226 94.071 64.0452 94.4256 64.3468 94.8797C64.6484 95.3338 64.7992 95.8541 64.7992 96.4408C64.7992 96.8253 64.723 97.2048 64.5705 97.5793C64.4213 97.9538 64.1545 98.3698 63.7701 98.8271C63.3856 99.2812 62.8437 99.8264 62.1444 100.463L60.6578 101.919V101.989H64.9334V103.749H57.6749Z" fill="#001170"/>
<path d="M105.69 97.8179V99.4983H101.047V97.8179H105.69ZM110.895 105.022V92.2945H111.711V105.022H110.895ZM113.058 96.4955C113.018 96.0944 112.848 95.7829 112.546 95.5608C112.244 95.3387 111.835 95.2277 111.318 95.2277C110.967 95.2277 110.67 95.2774 110.428 95.3769C110.186 95.473 110.001 95.6072 109.871 95.7796C109.745 95.9519 109.682 96.1475 109.682 96.3662C109.676 96.5485 109.714 96.7076 109.797 96.8435C109.883 96.9794 110.001 97.097 110.15 97.1965C110.299 97.2926 110.471 97.3771 110.667 97.45C110.862 97.5196 111.071 97.5793 111.293 97.629L112.208 97.8477C112.652 97.9472 113.06 98.0798 113.431 98.2455C113.802 98.4112 114.124 98.615 114.395 98.857C114.667 99.0989 114.878 99.384 115.027 99.7121C115.179 100.04 115.257 100.416 115.26 100.841C115.257 101.464 115.098 102.004 114.783 102.461C114.472 102.915 114.021 103.268 113.431 103.52C112.844 103.769 112.137 103.893 111.308 103.893C110.486 103.893 109.77 103.767 109.16 103.515C108.554 103.263 108.08 102.891 107.738 102.397C107.4 101.9 107.223 101.285 107.206 100.552H109.29C109.313 100.894 109.411 101.179 109.583 101.407C109.759 101.633 109.992 101.803 110.284 101.919C110.579 102.032 110.912 102.089 111.283 102.089C111.648 102.089 111.964 102.035 112.233 101.929C112.505 101.823 112.715 101.676 112.864 101.487C113.013 101.298 113.088 101.081 113.088 100.836C113.088 100.607 113.02 100.415 112.884 100.259C112.751 100.103 112.556 99.9706 112.297 99.8612C112.042 99.7519 111.729 99.6524 111.358 99.5629L110.249 99.2845C109.391 99.0757 108.713 98.7493 108.216 98.3051C107.719 97.861 107.472 97.2628 107.475 96.5104C107.472 95.8939 107.636 95.3553 107.967 94.8946C108.302 94.4339 108.761 94.0743 109.344 93.8158C109.928 93.5573 110.59 93.428 111.333 93.428C112.089 93.428 112.748 93.5573 113.312 93.8158C113.878 94.0743 114.319 94.4339 114.634 94.8946C114.949 95.3553 115.111 95.8889 115.121 96.4955H113.058ZM121.078 93.5672V103.749H118.926V95.6105H118.866L116.534 97.0722V95.1631L119.055 93.5672H121.078ZM127.406 103.888C126.882 103.885 126.377 103.797 125.89 103.625C125.406 103.452 124.972 103.172 124.587 102.785C124.203 102.397 123.898 101.883 123.672 101.243C123.45 100.604 123.339 99.8182 123.339 98.8868C123.343 98.0317 123.44 97.2677 123.633 96.5949C123.828 95.9188 124.107 95.3454 124.468 94.8747C124.832 94.4041 125.268 94.0461 125.775 93.8009C126.282 93.5523 126.851 93.428 127.481 93.428C128.16 93.428 128.76 93.5606 129.28 93.8257C129.801 94.0876 130.218 94.4439 130.533 94.8946C130.851 95.3454 131.044 95.8508 131.11 96.411H128.987C128.904 96.0563 128.73 95.7779 128.465 95.5757C128.2 95.3735 127.872 95.2725 127.481 95.2725C126.818 95.2725 126.314 95.5608 125.969 96.1375C125.628 96.7142 125.454 97.4981 125.447 98.4891H125.517C125.669 98.1875 125.875 97.9306 126.133 97.7185C126.395 97.503 126.692 97.339 127.023 97.2263C127.358 97.1103 127.711 97.0523 128.082 97.0523C128.685 97.0523 129.222 97.1948 129.693 97.4798C130.164 97.7616 130.535 98.1494 130.807 98.6432C131.078 99.137 131.214 99.7021 131.214 100.339C131.214 101.028 131.054 101.641 130.732 102.178C130.414 102.715 129.968 103.136 129.395 103.441C128.825 103.742 128.162 103.892 127.406 103.888ZM127.396 102.198C127.728 102.198 128.024 102.118 128.286 101.959C128.548 101.8 128.753 101.585 128.902 101.313C129.052 101.041 129.126 100.736 129.126 100.398C129.126 100.06 129.052 99.7568 128.902 99.4884C128.757 99.2199 128.554 99.0061 128.296 98.847C128.037 98.6879 127.742 98.6084 127.411 98.6084C127.162 98.6084 126.932 98.6548 126.72 98.7476C126.511 98.8404 126.327 98.9697 126.168 99.1354C126.012 99.3011 125.89 99.4933 125.8 99.7121C125.711 99.9275 125.666 100.158 125.666 100.403C125.666 100.731 125.741 101.031 125.89 101.303C126.042 101.575 126.248 101.792 126.506 101.954C126.768 102.117 127.065 102.198 127.396 102.198Z" fill="#001170"/>
</g>
</g>
</g>
</g>
<defs>
<filter id="filter0_d_741_107325" x="0" y="-4" width="325" height="167" filterUnits="userSpaceOnUse" color-interpolation-filters="sRGB">
<feFlood flood-opacity="0" result="BackgroundImageFix"/>
<feColorMatrix in="SourceAlpha" type="matrix" values="0 0 0 0 0 0 0 0 0 0 0 0 0 0 0 0 0 0 127 0" result="hardAlpha"/>
<feOffset dy="4"/>
<feGaussianBlur stdDeviation="4"/>
<feColorMatrix type="matrix" values="0 0 0 0 0.0705882 0 0 0 0 0.0156863 0 0 0 0 0.00784314 0 0 0 0.14 0"/>
<feBlend mode="normal" in2="BackgroundImageFix" result="effect1_dropShadow_741_107325"/>
<feBlend mode="normal" in="SourceGraphic" in2="effect1_dropShadow_741_107325" result="shape"/>
</filter>
<filter id="filter1_d_741_107325" x="131" y="24" width="185.813" height="60" filterUnits="userSpaceOnUse" color-interpolation-filters="sRGB">
<feFlood flood-opacity="0" result="BackgroundImageFix"/>
<feColorMatrix in="SourceAlpha" type="matrix" values="0 0 0 0 0 0 0 0 0 0 0 0 0 0 0 0 0 0 127 0" result="hardAlpha"/>
<feOffset dy="4"/>
<feGaussianBlur stdDeviation="4"/>
<feColorMatrix type="matrix" values="0 0 0 0 0.0705882 0 0 0 0 0.0156863 0 0 0 0 0.00784314 0 0 0 0.14 0"/>
<feBlend mode="normal" in2="BackgroundImageFix" result="effect1_dropShadow_741_107325"/>
<feBlend mode="normal" in="SourceGraphic" in2="effect1_dropShadow_741_107325" result="shape"/>
</filter>
<filter id="filter2_d_741_107325" x="24" y="41" width="140.175" height="93.749" filterUnits="userSpaceOnUse" color-interpolation-filters="sRGB">
<feFlood flood-opacity="0" result="BackgroundImageFix"/>
<feColorMatrix in="SourceAlpha" type="matrix" values="0 0 0 0 0 0 0 0 0 0 0 0 0 0 0 0 0 0 127 0" result="hardAlpha"/>
<feOffset dy="4"/>
<feGaussianBlur stdDeviation="4"/>
<feColorMatrix type="matrix" values="0 0 0 0 0.0705882 0 0 0 0 0.0156863 0 0 0 0 0.00784314 0 0 0 0.14 0"/>
<feBlend mode="normal" in2="BackgroundImageFix" result="effect1_dropShadow_741_107325"/>
<feBlend mode="normal" in="SourceGraphic" in2="effect1_dropShadow_741_107325" result="shape"/>
</filter>
<filter id="filter3_d_741_107325" x="0" y="-4" width="325" height="167" filterUnits="userSpaceOnUse" color-interpolation-filters="sRGB">
<feFlood flood-opacity="0" result="BackgroundImageFix"/>
<feColorMatrix in="SourceAlpha" type="matrix" values="0 0 0 0 0 0 0 0 0 0 0 0 0 0 0 0 0 0 127 0" result="hardAlpha"/>
<feOffset dy="4"/>
<feGaussianBlur stdDeviation="4"/>
<feColorMatrix type="matrix" values="0 0 0 0 0.0705882 0 0 0 0 0.0156863 0 0 0 0 0.00784314 0 0 0 0.14 0"/>
<feBlend mode="normal" in2="BackgroundImageFix" result="effect1_dropShadow_741_107325"/>
<feBlend mode="normal" in="SourceGraphic" in2="effect1_dropShadow_741_107325" result="shape"/>
</filter>
<filter id="filter4_d_741_107325" x="131" y="24" width="185.813" height="60" filterUnits="userSpaceOnUse" color-interpolation-filters="sRGB">
<feFlood flood-opacity="0" result="BackgroundImageFix"/>
<feColorMatrix in="SourceAlpha" type="matrix" values="0 0 0 0 0 0 0 0 0 0 0 0 0 0 0 0 0 0 127 0" result="hardAlpha"/>
<feOffset dy="4"/>
<feGaussianBlur stdDeviation="4"/>
<feColorMatrix type="matrix" values="0 0 0 0 0.0705882 0 0 0 0 0.0156863 0 0 0 0 0.00784314 0 0 0 0.14 0"/>
<feBlend mode="normal" in2="BackgroundImageFix" result="effect1_dropShadow_741_107325"/>
<feBlend mode="normal" in="SourceGraphic" in2="effect1_dropShadow_741_107325" result="shape"/>
</filter>
<filter id="filter5_d_741_107325" x="24" y="41" width="140.175" height="93.749" filterUnits="userSpaceOnUse" color-interpolation-filters="sRGB">
<feFlood flood-opacity="0" result="BackgroundImageFix"/>
<feColorMatrix in="SourceAlpha" type="matrix" values="0 0 0 0 0 0 0 0 0 0 0 0 0 0 0 0 0 0 127 0" result="hardAlpha"/>
<feOffset dy="4"/>
<feGaussianBlur stdDeviation="4"/>
<feColorMatrix type="matrix" values="0 0 0 0 0.0705882 0 0 0 0 0.0156863 0 0 0 0 0.00784314 0 0 0 0.14 0"/>
<feBlend mode="normal" in2="BackgroundImageFix" result="effect1_dropShadow_741_107325"/>
<feBlend mode="normal" in="SourceGraphic" in2="effect1_dropShadow_741_107325" result="shape"/>
</filter>
<clipPath id="clip0_741_107325">
<rect width="317" height="151" fill="white"/>
</clipPath>
<clipPath id="clip1_741_107325">
<path d="M8 12C8 5.37259 13.3726 0 20 0H317V151H8V12Z" fill="white"/>
</clipPath>
<clipPath id="clip2_741_107325">
<path d="M8 12C8 5.37259 13.3726 0 20 0H317V151H8V12Z" fill="white"/>
</clipPath>
</defs>
</svg>
