<svg width="317" height="151" viewBox="0 0 317 151" fill="none" xmlns="http://www.w3.org/2000/svg">
<g clip-path="url(#clip0_741_117791)">
<g filter="url(#filter0_d_741_117791)">
<g clip-path="url(#clip1_741_117791)">
<path d="M8 12C8 5.37259 13.3726 0 20 0H317V151H8V12Z" fill="#F9FAFB"/>
<g filter="url(#filter1_d_741_117791)">
<path d="M24 28C24 25.7909 25.7909 24 28 24H124.5C126.709 24 128.5 25.7909 128.5 28V48C128.5 50.2091 126.709 52 124.5 52H28C25.7909 52 24 50.2091 24 48V28Z" fill="white"/>
<path d="M39.3334 33.9998C39.3334 34.7362 38.7365 35.3332 38.0001 35.3332C37.2637 35.3332 36.6667 34.7362 36.6667 33.9998C36.6667 33.2635 37.2637 32.6665 38.0001 32.6665C38.7365 32.6665 39.3334 33.2635 39.3334 33.9998Z" fill="#44586D"/>
<path d="M39.3334 37.9998C39.3334 38.7362 38.7365 39.3332 38.0001 39.3332C37.2637 39.3332 36.6667 38.7362 36.6667 37.9998C36.6667 37.2635 37.2637 36.6665 38.0001 36.6665C38.7365 36.6665 39.3334 37.2635 39.3334 37.9998Z" fill="#44586D"/>
<path d="M39.3334 41.9998C39.3334 42.7362 38.7365 43.3332 38.0001 43.3332C37.2637 43.3332 36.6667 42.7362 36.6667 41.9998C36.6667 41.2635 37.2637 40.6665 38.0001 40.6665C38.7365 40.6665 39.3334 41.2635 39.3334 41.9998Z" fill="#44586D"/>
<path d="M43.3334 33.9998C43.3334 34.7362 42.7365 35.3332 42.0001 35.3332C41.2637 35.3332 40.6667 34.7362 40.6667 33.9998C40.6667 33.2635 41.2637 32.6665 42.0001 32.6665C42.7365 32.6665 43.3334 33.2635 43.3334 33.9998Z" fill="#44586D"/>
<path d="M43.3334 37.9998C43.3334 38.7362 42.7365 39.3332 42.0001 39.3332C41.2637 39.3332 40.6667 38.7362 40.6667 37.9998C40.6667 37.2635 41.2637 36.6665 42.0001 36.6665C42.7365 36.6665 43.3334 37.2635 43.3334 37.9998Z" fill="#44586D"/>
<path d="M43.3334 41.9998C43.3334 42.7362 42.7365 43.3332 42.0001 43.3332C41.2637 43.3332 40.6667 42.7362 40.6667 41.9998C40.6667 41.2635 41.2637 40.6665 42.0001 40.6665C42.7365 40.6665 43.3334 41.2635 43.3334 41.9998Z" fill="#44586D"/>
<rect x="52" y="35" width="46" height="6" rx="3" fill="#A8B0BD"/>
</g>
<path fill-rule="evenodd" clip-rule="evenodd" d="M135.833 38.0002C135.833 34.3135 138.813 31.3335 142.5 31.3335C146.187 31.3335 149.167 34.3135 149.167 38.0002C149.167 41.6868 146.187 44.6668 142.5 44.6668C138.813 44.6668 135.833 41.6868 135.833 38.0002ZM142.5 37.0602L143.757 35.8035C144.016 35.5439 144.437 35.5439 144.697 35.8035C144.956 36.0631 144.956 36.4839 144.697 36.7435L143.44 38.0002L144.697 39.2568C144.956 39.5164 144.956 39.9373 144.697 40.1968C144.437 40.4564 144.016 40.4564 143.757 40.1968L142.5 38.9402L141.243 40.1968C140.984 40.4564 140.563 40.4564 140.303 40.1968C140.044 39.9373 140.044 39.5164 140.303 39.2568L141.56 38.0002L140.303 36.7435C140.044 36.4839 140.044 36.0631 140.303 35.8035C140.563 35.5439 140.984 35.5439 141.243 35.8035L142.5 37.0602Z" fill="#A8B0BD"/>
<g filter="url(#filter2_d_741_117791)">
<path d="M24 66C24 63.7909 25.7909 62 28 62H124.5C126.709 62 128.5 63.7909 128.5 66V86C128.5 88.2091 126.709 90 124.5 90H28C25.7909 90 24 88.2091 24 86V66Z" fill="white"/>
<path d="M39.3334 71.9998C39.3334 72.7362 38.7365 73.3332 38.0001 73.3332C37.2637 73.3332 36.6667 72.7362 36.6667 71.9998C36.6667 71.2635 37.2637 70.6665 38.0001 70.6665C38.7365 70.6665 39.3334 71.2635 39.3334 71.9998Z" fill="#44586D"/>
<path d="M39.3334 75.9998C39.3334 76.7362 38.7365 77.3332 38.0001 77.3332C37.2637 77.3332 36.6667 76.7362 36.6667 75.9998C36.6667 75.2635 37.2637 74.6665 38.0001 74.6665C38.7365 74.6665 39.3334 75.2635 39.3334 75.9998Z" fill="#44586D"/>
<path d="M39.3334 79.9998C39.3334 80.7362 38.7365 81.3332 38.0001 81.3332C37.2637 81.3332 36.6667 80.7362 36.6667 79.9998C36.6667 79.2635 37.2637 78.6665 38.0001 78.6665C38.7365 78.6665 39.3334 79.2635 39.3334 79.9998Z" fill="#44586D"/>
<path d="M43.3334 71.9998C43.3334 72.7362 42.7365 73.3332 42.0001 73.3332C41.2637 73.3332 40.6667 72.7362 40.6667 71.9998C40.6667 71.2635 41.2637 70.6665 42.0001 70.6665C42.7365 70.6665 43.3334 71.2635 43.3334 71.9998Z" fill="#44586D"/>
<path d="M43.3334 75.9998C43.3334 76.7362 42.7365 77.3332 42.0001 77.3332C41.2637 77.3332 40.6667 76.7362 40.6667 75.9998C40.6667 75.2635 41.2637 74.6665 42.0001 74.6665C42.7365 74.6665 43.3334 75.2635 43.3334 75.9998Z" fill="#44586D"/>
<path d="M43.3334 79.9998C43.3334 80.7362 42.7365 81.3332 42.0001 81.3332C41.2637 81.3332 40.6667 80.7362 40.6667 79.9998C40.6667 79.2635 41.2637 78.6665 42.0001 78.6665C42.7365 78.6665 43.3334 79.2635 43.3334 79.9998Z" fill="#44586D"/>
<rect x="52" y="73" width="46" height="6" rx="3" fill="#A8B0BD"/>
</g>
<path fill-rule="evenodd" clip-rule="evenodd" d="M135.833 76.0002C135.833 72.3135 138.813 69.3335 142.5 69.3335C146.187 69.3335 149.167 72.3135 149.167 76.0002C149.167 79.6868 146.187 82.6668 142.5 82.6668C138.813 82.6668 135.833 79.6868 135.833 76.0002ZM142.5 75.0602L143.757 73.8035C144.016 73.5439 144.437 73.5439 144.697 73.8035C144.956 74.0631 144.956 74.4839 144.697 74.7435L143.44 76.0002L144.697 77.2568C144.956 77.5164 144.956 77.9373 144.697 78.1968C144.437 78.4564 144.016 78.4564 143.757 78.1968L142.5 76.9402L141.243 78.1968C140.984 78.4564 140.563 78.4564 140.303 78.1968C140.044 77.9373 140.044 77.5164 140.303 77.2568L141.56 76.0002L140.303 74.7435C140.044 74.4839 140.044 74.0631 140.303 73.8035C140.563 73.5439 140.984 73.5439 141.243 73.8035L142.5 75.0602Z" fill="#A8B0BD"/>
<g filter="url(#filter3_d_741_117791)">
<path d="M24 104C24 101.791 25.7909 100 28 100H124.5C126.709 100 128.5 101.791 128.5 104V124C128.5 126.209 126.709 128 124.5 128H28C25.7909 128 24 126.209 24 124V104Z" fill="white"/>
<path d="M39.3334 110C39.3334 110.736 38.7365 111.333 38.0001 111.333C37.2637 111.333 36.6667 110.736 36.6667 110C36.6667 109.263 37.2637 108.667 38.0001 108.667C38.7365 108.667 39.3334 109.263 39.3334 110Z" fill="#44586D"/>
<path d="M39.3334 114C39.3334 114.736 38.7365 115.333 38.0001 115.333C37.2637 115.333 36.6667 114.736 36.6667 114C36.6667 113.263 37.2637 112.667 38.0001 112.667C38.7365 112.667 39.3334 113.263 39.3334 114Z" fill="#44586D"/>
<path d="M39.3334 118C39.3334 118.736 38.7365 119.333 38.0001 119.333C37.2637 119.333 36.6667 118.736 36.6667 118C36.6667 117.263 37.2637 116.667 38.0001 116.667C38.7365 116.667 39.3334 117.263 39.3334 118Z" fill="#44586D"/>
<path d="M43.3334 110C43.3334 110.736 42.7365 111.333 42.0001 111.333C41.2637 111.333 40.6667 110.736 40.6667 110C40.6667 109.263 41.2637 108.667 42.0001 108.667C42.7365 108.667 43.3334 109.263 43.3334 110Z" fill="#44586D"/>
<path d="M43.3334 114C43.3334 114.736 42.7365 115.333 42.0001 115.333C41.2637 115.333 40.6667 114.736 40.6667 114C40.6667 113.263 41.2637 112.667 42.0001 112.667C42.7365 112.667 43.3334 113.263 43.3334 114Z" fill="#44586D"/>
<path d="M43.3334 118C43.3334 118.736 42.7365 119.333 42.0001 119.333C41.2637 119.333 40.6667 118.736 40.6667 118C40.6667 117.263 41.2637 116.667 42.0001 116.667C42.7365 116.667 43.3334 117.263 43.3334 118Z" fill="#44586D"/>
<rect x="52" y="111" width="46" height="6" rx="3" fill="#A8B0BD"/>
</g>
<path fill-rule="evenodd" clip-rule="evenodd" d="M135.833 114C135.833 110.313 138.813 107.333 142.5 107.333C146.187 107.333 149.167 110.313 149.167 114C149.167 117.687 146.187 120.667 142.5 120.667C138.813 120.667 135.833 117.687 135.833 114ZM142.5 113.06L143.757 111.803C144.016 111.544 144.437 111.544 144.697 111.803C144.956 112.063 144.956 112.484 144.697 112.743L143.44 114L144.697 115.257C144.956 115.516 144.956 115.937 144.697 116.197C144.437 116.456 144.016 116.456 143.757 116.197L142.5 114.94L141.243 116.197C140.984 116.456 140.563 116.456 140.303 116.197C140.044 115.937 140.044 115.516 140.303 115.257L141.56 114L140.303 112.743C140.044 112.484 140.044 112.063 140.303 111.803C140.563 111.544 140.984 111.544 141.243 111.803L142.5 113.06Z" fill="#A8B0BD"/>
<g filter="url(#filter4_d_741_117791)">
<path d="M174.5 28C174.5 25.7909 176.291 24 178.5 24H297C299.209 24 301 25.7909 301 28V48C301 50.2091 299.209 52 297 52H178.5C176.291 52 174.5 50.2091 174.5 48V28Z" fill="white"/>
<path d="M189.833 33.9998C189.833 34.7362 189.236 35.3332 188.5 35.3332C187.764 35.3332 187.167 34.7362 187.167 33.9998C187.167 33.2635 187.764 32.6665 188.5 32.6665C189.236 32.6665 189.833 33.2635 189.833 33.9998Z" fill="#44586D"/>
<path d="M189.833 37.9998C189.833 38.7362 189.236 39.3332 188.5 39.3332C187.764 39.3332 187.167 38.7362 187.167 37.9998C187.167 37.2635 187.764 36.6665 188.5 36.6665C189.236 36.6665 189.833 37.2635 189.833 37.9998Z" fill="#44586D"/>
<path d="M189.833 41.9998C189.833 42.7362 189.236 43.3332 188.5 43.3332C187.764 43.3332 187.167 42.7362 187.167 41.9998C187.167 41.2635 187.764 40.6665 188.5 40.6665C189.236 40.6665 189.833 41.2635 189.833 41.9998Z" fill="#44586D"/>
<path d="M193.833 33.9998C193.833 34.7362 193.236 35.3332 192.5 35.3332C191.764 35.3332 191.167 34.7362 191.167 33.9998C191.167 33.2635 191.764 32.6665 192.5 32.6665C193.236 32.6665 193.833 33.2635 193.833 33.9998Z" fill="#44586D"/>
<path d="M193.833 37.9998C193.833 38.7362 193.236 39.3332 192.5 39.3332C191.764 39.3332 191.167 38.7362 191.167 37.9998C191.167 37.2635 191.764 36.6665 192.5 36.6665C193.236 36.6665 193.833 37.2635 193.833 37.9998Z" fill="#44586D"/>
<path d="M193.833 41.9998C193.833 42.7362 193.236 43.3332 192.5 43.3332C191.764 43.3332 191.167 42.7362 191.167 41.9998C191.167 41.2635 191.764 40.6665 192.5 40.6665C193.236 40.6665 193.833 41.2635 193.833 41.9998Z" fill="#44586D"/>
<rect x="202.5" y="35" width="46" height="6" rx="3" fill="#A8B0BD"/>
</g>
<g filter="url(#filter5_d_741_117791)">
<path d="M174.5 66C174.5 63.7909 176.291 62 178.5 62H297C299.209 62 301 63.7909 301 66V86C301 88.2091 299.209 90 297 90H178.5C176.291 90 174.5 88.2091 174.5 86V66Z" fill="white"/>
<path d="M189.833 71.9998C189.833 72.7362 189.236 73.3332 188.5 73.3332C187.764 73.3332 187.167 72.7362 187.167 71.9998C187.167 71.2635 187.764 70.6665 188.5 70.6665C189.236 70.6665 189.833 71.2635 189.833 71.9998Z" fill="#44586D"/>
<path d="M189.833 75.9998C189.833 76.7362 189.236 77.3332 188.5 77.3332C187.764 77.3332 187.167 76.7362 187.167 75.9998C187.167 75.2635 187.764 74.6665 188.5 74.6665C189.236 74.6665 189.833 75.2635 189.833 75.9998Z" fill="#44586D"/>
<path d="M189.833 79.9998C189.833 80.7362 189.236 81.3332 188.5 81.3332C187.764 81.3332 187.167 80.7362 187.167 79.9998C187.167 79.2635 187.764 78.6665 188.5 78.6665C189.236 78.6665 189.833 79.2635 189.833 79.9998Z" fill="#44586D"/>
<path d="M193.833 71.9998C193.833 72.7362 193.236 73.3332 192.5 73.3332C191.764 73.3332 191.167 72.7362 191.167 71.9998C191.167 71.2635 191.764 70.6665 192.5 70.6665C193.236 70.6665 193.833 71.2635 193.833 71.9998Z" fill="#44586D"/>
<path d="M193.833 75.9998C193.833 76.7362 193.236 77.3332 192.5 77.3332C191.764 77.3332 191.167 76.7362 191.167 75.9998C191.167 75.2635 191.764 74.6665 192.5 74.6665C193.236 74.6665 193.833 75.2635 193.833 75.9998Z" fill="#44586D"/>
<path d="M193.833 79.9998C193.833 80.7362 193.236 81.3332 192.5 81.3332C191.764 81.3332 191.167 80.7362 191.167 79.9998C191.167 79.2635 191.764 78.6665 192.5 78.6665C193.236 78.6665 193.833 79.2635 193.833 79.9998Z" fill="#44586D"/>
<rect x="202.5" y="73" width="46" height="6" rx="3" fill="#A8B0BD"/>
</g>
<g filter="url(#filter6_ii_741_117791)">
<path d="M174.5 104C174.5 101.791 176.291 100 178.5 100H297C299.209 100 301 101.791 301 104V124C301 126.209 299.209 128 297 128H178.5C176.291 128 174.5 126.209 174.5 124V104Z" fill="#DBE0E6"/>
</g>
<g filter="url(#filter7_dddd_741_117791)">
<path d="M94 78C94 75.7909 95.7909 74 98 74H230C232.209 74 234 75.7909 234 78V104C234 106.209 232.209 108 230 108H98C95.7909 108 94 106.209 94 104V78Z" fill="white"/>
<path d="M113.333 86.9998C113.333 87.7362 112.736 88.3332 112 88.3332C111.264 88.3332 110.667 87.7362 110.667 86.9998C110.667 86.2635 111.264 85.6665 112 85.6665C112.736 85.6665 113.333 86.2635 113.333 86.9998Z" fill="#44586D"/>
<path d="M113.333 90.9998C113.333 91.7362 112.736 92.3332 112 92.3332C111.264 92.3332 110.667 91.7362 110.667 90.9998C110.667 90.2635 111.264 89.6665 112 89.6665C112.736 89.6665 113.333 90.2635 113.333 90.9998Z" fill="#44586D"/>
<path d="M113.333 94.9998C113.333 95.7362 112.736 96.3332 112 96.3332C111.264 96.3332 110.667 95.7362 110.667 94.9998C110.667 94.2635 111.264 93.6665 112 93.6665C112.736 93.6665 113.333 94.2635 113.333 94.9998Z" fill="#44586D"/>
<path d="M117.333 86.9998C117.333 87.7362 116.736 88.3332 116 88.3332C115.264 88.3332 114.667 87.7362 114.667 86.9998C114.667 86.2635 115.264 85.6665 116 85.6665C116.736 85.6665 117.333 86.2635 117.333 86.9998Z" fill="#44586D"/>
<path d="M117.333 90.9998C117.333 91.7362 116.736 92.3332 116 92.3332C115.264 92.3332 114.667 91.7362 114.667 90.9998C114.667 90.2635 115.264 89.6665 116 89.6665C116.736 89.6665 117.333 90.2635 117.333 90.9998Z" fill="#44586D"/>
<path d="M117.333 94.9998C117.333 95.7362 116.736 96.3332 116 96.3332C115.264 96.3332 114.667 95.7362 114.667 94.9998C114.667 94.2635 115.264 93.6665 116 93.6665C116.736 93.6665 117.333 94.2635 117.333 94.9998Z" fill="#44586D"/>
<path d="M139.426 89H138.193C138.12 88.6454 137.993 88.3338 137.81 88.0653C137.631 87.7969 137.413 87.5715 137.154 87.3892C136.899 87.2036 136.616 87.0644 136.304 86.9716C135.992 86.8788 135.668 86.8324 135.33 86.8324C134.713 86.8324 134.155 86.9882 133.654 87.2997C133.157 87.6113 132.761 88.0703 132.466 88.6768C132.174 89.2834 132.028 90.0275 132.028 90.9091C132.028 91.7907 132.174 92.5348 132.466 93.1413C132.761 93.7479 133.157 94.2069 133.654 94.5185C134.155 94.83 134.713 94.9858 135.33 94.9858C135.668 94.9858 135.992 94.9394 136.304 94.8466C136.616 94.7538 136.899 94.6162 137.154 94.4339C137.413 94.2483 137.631 94.0213 137.81 93.7528C137.993 93.4811 138.12 93.1695 138.193 92.8182H139.426C139.333 93.3385 139.164 93.8042 138.919 94.2152C138.674 94.6262 138.369 94.9759 138.004 95.2642C137.64 95.5492 137.23 95.7663 136.776 95.9155C136.326 96.0646 135.843 96.1392 135.33 96.1392C134.461 96.1392 133.689 95.9271 133.013 95.5028C132.337 95.0786 131.805 94.4754 131.417 93.6932C131.029 92.911 130.835 91.983 130.835 90.9091C130.835 89.8352 131.029 88.9072 131.417 88.125C131.805 87.3428 132.337 86.7396 133.013 86.3153C133.689 85.8911 134.461 85.679 135.33 85.679C135.843 85.679 136.326 85.7536 136.776 85.9027C137.23 86.0518 137.64 86.2706 138.004 86.5589C138.369 86.844 138.674 87.192 138.919 87.603C139.164 88.0107 139.333 88.4763 139.426 89ZM144.362 96.1591C143.672 96.1591 143.067 95.995 142.547 95.6669C142.03 95.3388 141.626 94.8797 141.334 94.2898C141.046 93.6998 140.901 93.0104 140.901 92.2216C140.901 91.4261 141.046 90.7318 141.334 90.1385C141.626 89.5452 142.03 89.0845 142.547 88.7564C143.067 88.4283 143.672 88.2642 144.362 88.2642C145.051 88.2642 145.654 88.4283 146.171 88.7564C146.692 89.0845 147.096 89.5452 147.384 90.1385C147.676 90.7318 147.822 91.4261 147.822 92.2216C147.822 93.0104 147.676 93.6998 147.384 94.2898C147.096 94.8797 146.692 95.3388 146.171 95.6669C145.654 95.995 145.051 96.1591 144.362 96.1591ZM144.362 95.1051C144.885 95.1051 145.316 94.9709 145.654 94.7024C145.992 94.4339 146.243 94.081 146.405 93.6435C146.567 93.206 146.649 92.732 146.649 92.2216C146.649 91.7112 146.567 91.2356 146.405 90.7947C146.243 90.3539 145.992 89.9976 145.654 89.7259C145.316 89.4541 144.885 89.3182 144.362 89.3182C143.838 89.3182 143.407 89.4541 143.069 89.7259C142.731 89.9976 142.481 90.3539 142.318 90.7947C142.156 91.2356 142.075 91.7112 142.075 92.2216C142.075 92.732 142.156 93.206 142.318 93.6435C142.481 94.081 142.731 94.4339 143.069 94.7024C143.407 94.9709 143.838 95.1051 144.362 95.1051ZM149.613 96V88.3636H150.746V89.5568H150.846C151.005 89.1491 151.262 88.8326 151.616 88.6072C151.971 88.3786 152.397 88.2642 152.894 88.2642C153.398 88.2642 153.817 88.3786 154.152 88.6072C154.49 88.8326 154.754 89.1491 154.942 89.5568H155.022C155.218 89.1624 155.511 88.8492 155.902 88.6172C156.293 88.3819 156.762 88.2642 157.309 88.2642C157.992 88.2642 158.55 88.478 158.984 88.9055C159.419 89.3298 159.636 89.991 159.636 90.8892V96H158.462V90.8892C158.462 90.3258 158.308 89.9231 158 89.6811C157.692 89.4392 157.329 89.3182 156.911 89.3182C156.374 89.3182 155.958 89.4806 155.663 89.8054C155.368 90.1269 155.221 90.5346 155.221 91.0284V96H154.028V90.7699C154.028 90.3357 153.887 89.986 153.605 89.7209C153.323 89.4524 152.96 89.3182 152.516 89.3182C152.211 89.3182 151.926 89.3994 151.661 89.5618C151.399 89.7242 151.187 89.9496 151.025 90.2379C150.866 90.523 150.786 90.8527 150.786 91.2273V96H149.613ZM161.781 98.8636V88.3636H162.914V89.5767H163.054C163.14 89.4441 163.259 89.2751 163.412 89.0696C163.567 88.8608 163.789 88.6752 164.078 88.5128C164.369 88.3471 164.764 88.2642 165.261 88.2642C165.904 88.2642 166.471 88.425 166.961 88.7464C167.452 89.0679 167.835 89.5237 168.11 90.1136C168.385 90.7036 168.522 91.3996 168.522 92.2017C168.522 93.0104 168.385 93.7114 168.11 94.3047C167.835 94.8946 167.453 95.352 166.966 95.6768C166.479 95.9983 165.917 96.1591 165.281 96.1591C164.79 96.1591 164.398 96.0779 164.103 95.9155C163.808 95.7498 163.581 95.5625 163.422 95.3537C163.262 95.1416 163.14 94.9659 163.054 94.8267H162.954V98.8636H161.781ZM162.934 92.1818C162.934 92.7585 163.019 93.2673 163.188 93.7081C163.357 94.1456 163.604 94.4886 163.929 94.7372C164.253 94.9825 164.651 95.1051 165.122 95.1051C165.612 95.1051 166.022 94.9759 166.35 94.7173C166.681 94.4555 166.93 94.1042 167.096 93.6634C167.265 93.2192 167.349 92.7254 167.349 92.1818C167.349 91.6449 167.266 91.161 167.1 90.7301C166.938 90.2959 166.691 89.9529 166.36 89.701C166.032 89.4458 165.619 89.3182 165.122 89.3182C164.645 89.3182 164.243 89.4392 163.919 89.6811C163.594 89.9197 163.349 90.2545 163.183 90.6854C163.017 91.1129 162.934 91.6117 162.934 92.1818ZM172.559 96.179C172.075 96.179 171.636 96.0878 171.242 95.9055C170.847 95.7199 170.534 95.4531 170.302 95.1051C170.07 94.7538 169.954 94.3295 169.954 93.8324C169.954 93.3949 170.04 93.0402 170.213 92.7685C170.385 92.4934 170.615 92.2779 170.904 92.1222C171.192 91.9664 171.51 91.8504 171.858 91.7741C172.21 91.6946 172.563 91.6316 172.917 91.5852C173.381 91.5256 173.757 91.4808 174.046 91.451C174.337 91.4179 174.55 91.3632 174.682 91.2869C174.818 91.2107 174.886 91.0781 174.886 90.8892V90.8494C174.886 90.3589 174.752 89.9777 174.483 89.706C174.218 89.4342 173.815 89.2983 173.275 89.2983C172.715 89.2983 172.276 89.4209 171.958 89.6662C171.64 89.9115 171.416 90.1733 171.287 90.4517L170.173 90.054C170.372 89.59 170.637 89.2287 170.968 88.9702C171.303 88.7083 171.668 88.526 172.062 88.4233C172.46 88.3172 172.851 88.2642 173.235 88.2642C173.481 88.2642 173.762 88.294 174.081 88.3537C174.402 88.41 174.712 88.5277 175.01 88.7067C175.312 88.8857 175.562 89.1558 175.761 89.517C175.96 89.8783 176.059 90.3622 176.059 90.9688V96H174.886V94.9659H174.826C174.747 95.1316 174.614 95.3089 174.429 95.4979C174.243 95.6868 173.996 95.8475 173.688 95.9801C173.38 96.1127 173.003 96.179 172.559 96.179ZM172.738 95.125C173.202 95.125 173.593 95.0339 173.912 94.8516C174.233 94.6693 174.475 94.4339 174.637 94.1456C174.803 93.8572 174.886 93.554 174.886 93.2358V92.1619C174.836 92.2216 174.727 92.2763 174.558 92.326C174.392 92.3724 174.2 92.4138 173.981 92.4503C173.766 92.4834 173.555 92.5133 173.35 92.5398C173.148 92.563 172.984 92.5829 172.858 92.5994C172.553 92.6392 172.268 92.7038 172.002 92.7933C171.741 92.8795 171.529 93.0104 171.366 93.1861C171.207 93.3584 171.127 93.5937 171.127 93.892C171.127 94.2997 171.278 94.608 171.58 94.8168C171.885 95.0223 172.271 95.125 172.738 95.125ZM179.374 91.4062V96H178.201V88.3636H179.334V89.5568H179.434C179.613 89.169 179.885 88.8575 180.249 88.6222C180.614 88.3835 181.084 88.2642 181.661 88.2642C182.178 88.2642 182.631 88.3703 183.018 88.5824C183.406 88.7912 183.708 89.1094 183.923 89.5369C184.139 89.9612 184.246 90.4981 184.246 91.1477V96H183.073V91.2273C183.073 90.6274 182.917 90.16 182.606 89.8253C182.294 89.4872 181.867 89.3182 181.323 89.3182C180.948 89.3182 180.614 89.3994 180.319 89.5618C180.027 89.7242 179.797 89.9612 179.628 90.2727C179.459 90.5843 179.374 90.9621 179.374 91.4062ZM186.873 98.8636C186.674 98.8636 186.496 98.8471 186.341 98.8139C186.185 98.7841 186.077 98.7543 186.017 98.7244L186.316 97.6903C186.601 97.7633 186.853 97.7898 187.071 97.7699C187.29 97.75 187.484 97.6522 187.653 97.4766C187.825 97.3042 187.983 97.0241 188.125 96.6364L188.344 96.0398L185.52 88.3636H186.793L188.901 94.4489H188.98L191.088 88.3636H192.361L189.12 97.1136C188.974 97.508 188.793 97.8345 188.578 98.093C188.362 98.3549 188.112 98.5488 187.827 98.6747C187.545 98.8007 187.227 98.8636 186.873 98.8636Z" fill="#2E3D4B"/>
</g>
<g filter="url(#filter8_d_741_117791)">
<path d="M221.75 121.542H224.159C224.594 121.542 224.947 121.189 224.947 120.753V118.124C224.947 117.942 224.994 117.763 225.084 117.604L226.294 115.467C227.773 112.853 228.551 109.901 228.551 106.898C228.551 105.486 228.33 103.893 227.592 102.546C226.814 101.128 224.721 100.478 223.923 101.884C223.678 102.317 223.662 102.844 223.662 103.341V103.526C223.662 103.533 223.661 103.54 223.659 103.547C223.651 103.572 223.633 103.588 223.613 103.596C223.516 103.63 223.487 103.469 223.454 103.371C222.955 101.871 222.888 100.273 220.846 100.273C220.017 100.273 219.291 100.751 218.945 101.458C218.726 101.904 218.79 102.422 218.888 102.909C218.889 102.914 218.889 102.92 218.888 102.926C218.868 103.048 218.684 103.044 218.673 102.916C218.317 101.216 218.407 98.9646 215.98 98.9646C215.109 98.9646 214.371 99.5087 214.075 100.268C213.861 100.818 214.057 101.421 214.282 101.967C214.285 101.973 214.286 101.98 214.286 101.987C214.283 102.097 214.096 102.115 214.077 102.001C213.751 100.067 212.069 97.8179 210.587 99.1026C210.499 99.1787 210.41 99.262 210.321 99.3522C209.688 99.9946 209.461 100.934 209.732 101.795C210.052 103.681 210.679 105.684 210.679 107.6C210.679 109.111 208.429 106.965 206.989 107.421C206.139 107.691 205.45 108.426 205.45 109.469C205.45 110.366 206.011 111.164 206.314 112.009L206.736 113.187C207.1 114.202 207.583 115.18 208.302 115.984C209.165 116.949 210.149 117.802 211.231 118.52L212.159 119.136C212.536 119.386 212.762 119.809 212.762 120.262C212.762 120.9 213.051 121.542 213.796 121.542H216.526C217.35 121.542 218.12 121.128 218.575 120.441C219.014 119.779 219.638 118.955 220.581 118.955C222.014 118.955 221.548 120.409 221.548 121.34C221.548 121.451 221.638 121.542 221.75 121.542Z" fill="white"/>
<path d="M221.75 121.542H224.159C224.594 121.542 224.947 121.189 224.947 120.753V118.124C224.947 117.942 224.994 117.763 225.084 117.604L226.294 115.467C227.773 112.853 228.551 109.901 228.551 106.898C228.551 105.486 228.33 103.893 227.592 102.546C226.814 101.128 224.721 100.478 223.923 101.884C223.678 102.317 223.662 102.844 223.662 103.341V103.526C223.662 103.533 223.661 103.54 223.659 103.547C223.651 103.572 223.633 103.588 223.613 103.596C223.516 103.63 223.487 103.469 223.454 103.371C222.955 101.871 222.888 100.273 220.846 100.273C220.017 100.273 219.291 100.751 218.945 101.458C218.726 101.904 218.79 102.422 218.888 102.909C218.889 102.914 218.889 102.92 218.888 102.926C218.868 103.048 218.684 103.044 218.673 102.916C218.317 101.216 218.407 98.9646 215.98 98.9646C215.109 98.9646 214.371 99.5087 214.075 100.268C213.861 100.818 214.057 101.421 214.282 101.967C214.285 101.973 214.286 101.98 214.286 101.987C214.283 102.097 214.096 102.115 214.077 102.001C213.751 100.067 212.069 97.8179 210.587 99.1026C210.499 99.1787 210.41 99.262 210.321 99.3522C209.688 99.9946 209.461 100.934 209.732 101.795C210.052 103.681 210.679 105.684 210.679 107.6C210.679 109.111 208.429 106.965 206.989 107.421C206.139 107.691 205.45 108.426 205.45 109.469C205.45 110.366 206.011 111.164 206.314 112.009L206.736 113.187C207.1 114.202 207.583 115.18 208.302 115.984C209.165 116.949 210.149 117.802 211.231 118.52L212.159 119.136C212.536 119.386 212.762 119.809 212.762 120.262C212.762 120.9 213.051 121.542 213.796 121.542H216.526C217.35 121.542 218.12 121.128 218.575 120.441C219.014 119.779 219.638 118.955 220.581 118.955C222.014 118.955 221.548 120.409 221.548 121.34C221.548 121.451 221.638 121.542 221.75 121.542Z" stroke="black" stroke-width="1.09839"/>
</g>
<line x1="216.102" y1="109.647" x2="216.102" y2="116.702" stroke="black" stroke-width="1.09839"/>
<line x1="219.72" y1="109.647" x2="219.72" y2="116.702" stroke="black" stroke-width="1.09839"/>
<line x1="223.429" y1="109.647" x2="223.429" y2="116.702" stroke="black" stroke-width="1.09839"/>
</g>
</g>
</g>
<defs>
<filter id="filter0_d_741_117791" x="0" y="-4" width="325" height="167" filterUnits="userSpaceOnUse" color-interpolation-filters="sRGB">
<feFlood flood-opacity="0" result="BackgroundImageFix"/>
<feColorMatrix in="SourceAlpha" type="matrix" values="0 0 0 0 0 0 0 0 0 0 0 0 0 0 0 0 0 0 127 0" result="hardAlpha"/>
<feOffset dy="4"/>
<feGaussianBlur stdDeviation="4"/>
<feColorMatrix type="matrix" values="0 0 0 0 0.0705882 0 0 0 0 0.0156863 0 0 0 0 0.00784314 0 0 0 0.14 0"/>
<feBlend mode="normal" in2="BackgroundImageFix" result="effect1_dropShadow_741_117791"/>
<feBlend mode="normal" in="SourceGraphic" in2="effect1_dropShadow_741_117791" result="shape"/>
</filter>
<filter id="filter1_d_741_117791" x="22" y="22" width="112.5" height="36" filterUnits="userSpaceOnUse" color-interpolation-filters="sRGB">
<feFlood flood-opacity="0" result="BackgroundImageFix"/>
<feColorMatrix in="SourceAlpha" type="matrix" values="0 0 0 0 0 0 0 0 0 0 0 0 0 0 0 0 0 0 127 0" result="hardAlpha"/>
<feOffset dx="2" dy="2"/>
<feGaussianBlur stdDeviation="2"/>
<feColorMatrix type="matrix" values="0 0 0 0 0.658 0 0 0 0 0.6916 0 0 0 0 0.742 0 0 0 0.5 0"/>
<feBlend mode="normal" in2="BackgroundImageFix" result="effect1_dropShadow_741_117791"/>
<feBlend mode="normal" in="SourceGraphic" in2="effect1_dropShadow_741_117791" result="shape"/>
</filter>
<filter id="filter2_d_741_117791" x="22" y="60" width="112.5" height="36" filterUnits="userSpaceOnUse" color-interpolation-filters="sRGB">
<feFlood flood-opacity="0" result="BackgroundImageFix"/>
<feColorMatrix in="SourceAlpha" type="matrix" values="0 0 0 0 0 0 0 0 0 0 0 0 0 0 0 0 0 0 127 0" result="hardAlpha"/>
<feOffset dx="2" dy="2"/>
<feGaussianBlur stdDeviation="2"/>
<feColorMatrix type="matrix" values="0 0 0 0 0.658 0 0 0 0 0.6916 0 0 0 0 0.742 0 0 0 0.5 0"/>
<feBlend mode="normal" in2="BackgroundImageFix" result="effect1_dropShadow_741_117791"/>
<feBlend mode="normal" in="SourceGraphic" in2="effect1_dropShadow_741_117791" result="shape"/>
</filter>
<filter id="filter3_d_741_117791" x="22" y="98" width="112.5" height="36" filterUnits="userSpaceOnUse" color-interpolation-filters="sRGB">
<feFlood flood-opacity="0" result="BackgroundImageFix"/>
<feColorMatrix in="SourceAlpha" type="matrix" values="0 0 0 0 0 0 0 0 0 0 0 0 0 0 0 0 0 0 127 0" result="hardAlpha"/>
<feOffset dx="2" dy="2"/>
<feGaussianBlur stdDeviation="2"/>
<feColorMatrix type="matrix" values="0 0 0 0 0.658 0 0 0 0 0.6916 0 0 0 0 0.742 0 0 0 0.5 0"/>
<feBlend mode="normal" in2="BackgroundImageFix" result="effect1_dropShadow_741_117791"/>
<feBlend mode="normal" in="SourceGraphic" in2="effect1_dropShadow_741_117791" result="shape"/>
</filter>
<filter id="filter4_d_741_117791" x="172.5" y="22" width="134.5" height="36" filterUnits="userSpaceOnUse" color-interpolation-filters="sRGB">
<feFlood flood-opacity="0" result="BackgroundImageFix"/>
<feColorMatrix in="SourceAlpha" type="matrix" values="0 0 0 0 0 0 0 0 0 0 0 0 0 0 0 0 0 0 127 0" result="hardAlpha"/>
<feOffset dx="2" dy="2"/>
<feGaussianBlur stdDeviation="2"/>
<feColorMatrix type="matrix" values="0 0 0 0 0.658 0 0 0 0 0.6916 0 0 0 0 0.742 0 0 0 0.5 0"/>
<feBlend mode="normal" in2="BackgroundImageFix" result="effect1_dropShadow_741_117791"/>
<feBlend mode="normal" in="SourceGraphic" in2="effect1_dropShadow_741_117791" result="shape"/>
</filter>
<filter id="filter5_d_741_117791" x="172.5" y="60" width="134.5" height="36" filterUnits="userSpaceOnUse" color-interpolation-filters="sRGB">
<feFlood flood-opacity="0" result="BackgroundImageFix"/>
<feColorMatrix in="SourceAlpha" type="matrix" values="0 0 0 0 0 0 0 0 0 0 0 0 0 0 0 0 0 0 127 0" result="hardAlpha"/>
<feOffset dx="2" dy="2"/>
<feGaussianBlur stdDeviation="2"/>
<feColorMatrix type="matrix" values="0 0 0 0 0.658 0 0 0 0 0.6916 0 0 0 0 0.742 0 0 0 0.5 0"/>
<feBlend mode="normal" in2="BackgroundImageFix" result="effect1_dropShadow_741_117791"/>
<feBlend mode="normal" in="SourceGraphic" in2="effect1_dropShadow_741_117791" result="shape"/>
</filter>
<filter id="filter6_ii_741_117791" x="174.5" y="100" width="126.5" height="30" filterUnits="userSpaceOnUse" color-interpolation-filters="sRGB">
<feFlood flood-opacity="0" result="BackgroundImageFix"/>
<feBlend mode="normal" in="SourceGraphic" in2="BackgroundImageFix" result="shape"/>
<feColorMatrix in="SourceAlpha" type="matrix" values="0 0 0 0 0 0 0 0 0 0 0 0 0 0 0 0 0 0 127 0" result="hardAlpha"/>
<feOffset dy="2"/>
<feGaussianBlur stdDeviation="2"/>
<feComposite in2="hardAlpha" operator="arithmetic" k2="-1" k3="1"/>
<feColorMatrix type="matrix" values="0 0 0 0 0 0 0 0 0 0 0 0 0 0 0 0 0 0 0.12 0"/>
<feBlend mode="normal" in2="shape" result="effect1_innerShadow_741_117791"/>
<feColorMatrix in="SourceAlpha" type="matrix" values="0 0 0 0 0 0 0 0 0 0 0 0 0 0 0 0 0 0 127 0" result="hardAlpha"/>
<feOffset/>
<feGaussianBlur stdDeviation="2"/>
<feComposite in2="hardAlpha" operator="arithmetic" k2="-1" k3="1"/>
<feColorMatrix type="matrix" values="0 0 0 0 0 0 0 0 0 0 0 0 0 0 0 0 0 0 0.08 0"/>
<feBlend mode="normal" in2="effect1_innerShadow_741_117791" result="effect2_innerShadow_741_117791"/>
</filter>
<filter id="filter7_dddd_741_117791" x="71" y="70" width="186" height="118" filterUnits="userSpaceOnUse" color-interpolation-filters="sRGB">
<feFlood flood-opacity="0" result="BackgroundImageFix"/>
<feColorMatrix in="SourceAlpha" type="matrix" values="0 0 0 0 0 0 0 0 0 0 0 0 0 0 0 0 0 0 127 0" result="hardAlpha"/>
<feOffset dy="4"/>
<feGaussianBlur stdDeviation="4"/>
<feColorMatrix type="matrix" values="0 0 0 0 0.0705882 0 0 0 0 0.0156863 0 0 0 0 0.00784314 0 0 0 0.14 0"/>
<feBlend mode="normal" in2="BackgroundImageFix" result="effect1_dropShadow_741_117791"/>
<feColorMatrix in="SourceAlpha" type="matrix" values="0 0 0 0 0 0 0 0 0 0 0 0 0 0 0 0 0 0 127 0" result="hardAlpha"/>
<feOffset dy="14"/>
<feGaussianBlur stdDeviation="7"/>
<feColorMatrix type="matrix" values="0 0 0 0 0.0705882 0 0 0 0 0.0156863 0 0 0 0 0.00784314 0 0 0 0.12 0"/>
<feBlend mode="normal" in2="effect1_dropShadow_741_117791" result="effect2_dropShadow_741_117791"/>
<feColorMatrix in="SourceAlpha" type="matrix" values="0 0 0 0 0 0 0 0 0 0 0 0 0 0 0 0 0 0 127 0" result="hardAlpha"/>
<feOffset dy="32"/>
<feGaussianBlur stdDeviation="9.5"/>
<feColorMatrix type="matrix" values="0 0 0 0 0.0705882 0 0 0 0 0.0156863 0 0 0 0 0.00784314 0 0 0 0.07 0"/>
<feBlend mode="normal" in2="effect2_dropShadow_741_117791" result="effect3_dropShadow_741_117791"/>
<feColorMatrix in="SourceAlpha" type="matrix" values="0 0 0 0 0 0 0 0 0 0 0 0 0 0 0 0 0 0 127 0" result="hardAlpha"/>
<feOffset dy="57"/>
<feGaussianBlur stdDeviation="11.5"/>
<feColorMatrix type="matrix" values="0 0 0 0 0.0705882 0 0 0 0 0.0156863 0 0 0 0 0.00784314 0 0 0 0.02 0"/>
<feBlend mode="normal" in2="effect3_dropShadow_741_117791" result="effect4_dropShadow_741_117791"/>
<feBlend mode="normal" in="SourceGraphic" in2="effect4_dropShadow_741_117791" result="shape"/>
</filter>
<filter id="filter8_d_741_117791" x="201.423" y="96.5282" width="29.3248" height="29.0408" filterUnits="userSpaceOnUse" color-interpolation-filters="sRGB">
<feFlood flood-opacity="0" result="BackgroundImageFix"/>
<feColorMatrix in="SourceAlpha" type="matrix" values="0 0 0 0 0 0 0 0 0 0 0 0 0 0 0 0 0 0 127 0" result="hardAlpha"/>
<feOffset dx="-0.915323" dy="0.915323"/>
<feGaussianBlur stdDeviation="1.28145"/>
<feColorMatrix type="matrix" values="0 0 0 0 0 0 0 0 0 0 0 0 0 0 0 0 0 0 0.6 0"/>
<feBlend mode="normal" in2="BackgroundImageFix" result="effect1_dropShadow_741_117791"/>
<feBlend mode="normal" in="SourceGraphic" in2="effect1_dropShadow_741_117791" result="shape"/>
</filter>
<clipPath id="clip0_741_117791">
<rect width="317" height="151" fill="white"/>
</clipPath>
<clipPath id="clip1_741_117791">
<path d="M8 12C8 5.37259 13.3726 0 20 0H317V151H8V12Z" fill="white"/>
</clipPath>
</defs>
</svg>
