<svg width="500" height="275" viewBox="0 0 500 275" fill="none" xmlns="http://www.w3.org/2000/svg">
<path d="M287.565 231.693C286.084 233.018 283.472 233.72 280.549 234.032C276.417 234.499 273.572 235.201 273.572 238.086C273.572 240.347 275.755 241.595 278.405 241.595C280.549 241.595 282.498 240.854 283.94 239.49C285.421 238.047 286.473 236.02 287.058 233.759L287.565 231.693ZM291.852 211.928C293.411 204.638 300.739 205.885 300.739 205.885L295.555 230.172C294.503 235.045 293.138 238.515 290.878 241.049C288.11 244.168 283.784 246 278.327 246C271.935 246 267.141 243.115 267.141 238.281C267.141 235.006 269.207 232.706 273.65 231.615C272.481 230.328 271.74 228.691 271.74 226.586C271.74 225.144 272.091 223.428 272.442 221.752C272.442 221.752 272.715 220.427 274.429 212.396C276.145 204.365 283.433 205.846 283.433 205.846L280.042 221.986C279.769 223.35 278.21 228.691 283.043 228.691C288.422 228.691 289.669 221.986 290.41 218.516C290.41 218.516 290.254 219.218 291.813 211.967L291.852 211.928ZM260.943 210.68C260.476 210.446 259.891 210.252 259.229 210.252C252.524 210.252 248.315 218.321 248.315 224.208C248.315 227.483 249.601 229.237 252.174 229.237C254.005 229.237 255.37 228.535 256.384 227.405C257.397 226.196 258.059 224.403 258.527 222.337L260.943 210.719V210.68ZM269.051 208.068L263.594 234.422H262.58C260.281 234.422 258.254 233.603 257.592 231.459C256.032 233.135 253.304 234.422 249.835 234.422C244.067 234.422 240.559 230.64 240.559 224.442C240.559 213.877 248.9 205.418 259.423 205.418C263.048 205.418 266.167 206.47 269.09 208.068H269.051ZM242.313 190.565L233.27 234.422H232.257C229.957 234.422 227.93 233.564 227.268 231.498C225.67 233.174 222.98 234.422 219.511 234.422C213.742 234.422 209.923 230.562 209.923 224.403C209.923 214.345 217.757 205.418 228.788 205.418C229.879 205.418 230.97 205.496 231.672 205.69C231.594 206.041 232.88 199.999 233.543 196.568C234.946 189.512 241.728 190.487 242.313 190.565ZM230.62 210.719C230.23 210.485 229.255 210.291 228.359 210.291C222.474 210.291 217.718 217.503 217.718 224.208C217.718 227.483 219.238 229.276 221.85 229.276C223.682 229.276 224.968 228.574 226.02 227.444C227.073 226.235 227.735 224.442 228.203 222.376L230.62 210.758V210.719ZM374.561 205.418C370.897 205.418 367.779 207.055 365.791 209.277C365.791 209.277 365.518 203.741 358.191 205.924C359.516 209.823 358.775 211.187 357.294 218.984L355.735 226.547C355.463 227.833 353.747 234.383 360.646 234.383H361.659L364.388 221.245C365.129 217.736 366.532 211.031 371.871 211.031C374.522 211.031 375.886 212.669 375.029 216.723L373.002 226.547C372.729 227.794 370.975 234.383 377.913 234.383H378.926L382.629 216.411C384.266 208.731 380.291 205.379 374.483 205.379L374.561 205.418ZM144.715 194.814C144.364 196.49 143.623 200.116 142.376 206.08L129.67 208.614L133.411 190.526C132.242 190.331 125.928 189.824 124.642 196.373C124.252 198.439 118.405 226.547 118.405 226.547C118.093 228.028 116.417 234.383 123.277 234.383H124.33L127.994 216.606L140.739 214.072C139.492 220.192 138.167 226.547 138.167 226.547C137.894 227.794 136.179 234.383 143.078 234.383H144.13L153.523 188.849C153.523 188.849 146.235 187.563 144.754 194.814H144.715ZM343.301 205.379C339.638 205.379 336.52 207.016 334.532 209.238C334.532 209.238 334.259 203.702 326.931 205.885C328.256 209.784 327.516 211.148 326.035 218.945L324.476 226.508C324.203 227.794 322.488 234.344 329.387 234.344H330.4L333.128 221.206C333.869 217.697 335.272 210.992 340.612 210.992C343.263 210.992 344.627 212.63 343.808 216.684L341.781 226.508C341.509 227.755 339.755 234.344 346.692 234.344H347.706L351.409 216.372C353.046 208.692 349.07 205.34 343.263 205.34L343.301 205.379ZM316.291 194.463C315.16 199.804 309.665 226.508 309.665 226.508C309.314 228.028 307.794 234.344 314.576 234.344H315.628L324.982 188.81C323.19 188.498 317.538 188.537 316.291 194.463ZM171.96 215.553C171.96 212.552 170.829 210.408 167.75 210.408C165.84 210.408 164.164 211.499 162.917 213.136C160.539 216.138 159.331 220.933 159.331 224.13C159.331 227.132 160.539 229.276 163.618 229.276C165.528 229.276 167.126 228.184 168.412 226.547C170.79 223.545 171.999 218.789 171.999 215.514L171.96 215.553ZM179.716 215.436C179.716 221.518 177.221 227.249 172.973 230.718C170.284 232.979 166.698 234.305 162.644 234.305C156.252 234.305 151.614 230.835 151.614 224.091C151.614 218.049 154.108 212.318 158.357 208.887C161.046 206.626 164.632 205.301 168.686 205.301C175.078 205.301 179.716 208.692 179.716 215.436ZM199.75 211.577C198.23 218.672 196.671 226.469 196.671 226.469C196.398 227.716 194.683 234.305 201.582 234.305H202.595L208.481 205.768C208.208 205.768 201.231 204.56 199.75 211.538V211.577ZM188.992 196.256C187.511 203.507 182.756 226.43 182.756 226.43C182.444 227.678 180.768 234.266 187.667 234.266H188.72L197.762 190.409C197.762 190.409 190.473 189.044 188.992 196.256ZM207.116 193.878C204.466 193.878 201.854 196.295 201.854 199.024C201.854 201.051 203.297 202.416 205.246 202.416C207.896 202.416 210.547 199.999 210.547 197.27C210.547 195.243 209.066 193.878 207.078 193.878H207.116ZM273.611 83.8651C271.935 90.0636 270.181 96.8081 268.232 104.566C264.958 117.587 258.839 151.191 256.929 173.373C255.955 173.802 253.07 174.191 251.667 174.191C247.185 174.191 241.923 171.462 241.572 164.25C241.143 155.401 246.327 122.771 254.084 92.5196C254.318 91.5451 254.551 90.6485 254.824 89.713C244.807 93.1434 235.492 96.8081 227.073 100.394C223.954 114.117 219.784 135.168 218.225 155.947C217.913 156.298 214.99 156.687 213.509 156.687C208.169 156.687 204.427 153.14 204.466 147.058C204.505 135.168 207.155 119.613 209.416 108.386C198.113 113.883 189.655 118.678 184.9 121.485C184.042 119.887 183.809 117.274 184.003 116.027C184.237 114.234 185.329 110.297 189.655 107.334C196.632 102.5 204.31 97.8216 212.768 93.2993C217.134 75.6396 222.98 57.7459 227.891 47.1033C231.049 40.2811 235.102 37.6301 242.04 37.6301C243.872 37.6301 246.405 38.0589 247.691 38.4877C241.416 52.1322 235.492 68.3887 230.97 84.4889C239.584 80.7464 248.9 77.16 259.073 73.8465C263.984 56.6543 268.466 44.3354 272.559 36.4996C275.131 31.6266 279.458 29.6384 283.316 29.1706C286.707 28.7417 289.748 29.1706 292.398 29.9112C285.928 45.271 281.718 56.5764 278.093 68.2326C285.07 66.3614 292.398 64.6461 300.076 63.0088C304.247 62.1121 319.409 59.4612 322.176 74.0803C305.182 75.9903 288.812 79.4991 273.572 83.7872" fill="black"/>
</svg>
