<svg width="500" height="275" viewBox="0 0 500 275" fill="none" xmlns="http://www.w3.org/2000/svg">
<path fill-rule="evenodd" clip-rule="evenodd" d="M289.699 112.645H267.384V130.379H262.53V91.0991H267.384V108.102H289.699V91.0991H294.552V130.379H289.699V112.645Z" fill="black"/>
<path fill-rule="evenodd" clip-rule="evenodd" d="M342.98 110.852C342.924 121.115 336.564 131.164 323.176 131.164C309.786 131.164 303.316 121.172 303.316 110.852C303.316 99.4577 310.902 90.4272 323.231 90.4272C336.452 90.4825 343.036 100.471 342.98 110.852ZM323.232 94.9128C313.302 94.9128 308.169 102.263 308.169 110.85C308.169 118.815 312.967 126.559 323.232 126.559C333.495 126.559 338.127 118.592 338.127 110.85C338.182 102.879 333.44 95.0251 323.232 94.9128Z" fill="black"/>
<path fill-rule="evenodd" clip-rule="evenodd" d="M346.106 95.4753V91.0991H377.568V95.4753H364.236V130.379H359.438V95.4753H346.106Z" fill="black"/>
<path fill-rule="evenodd" clip-rule="evenodd" d="M384.543 91.0991H411.992V95.5876H389.343V107.878H411.044V112.421H389.343V125.719H412.883V130.379H384.543V91.0991Z" fill="black"/>
<path fill-rule="evenodd" clip-rule="evenodd" d="M426.555 125.831H447.81V130.379H421.7V91.0991H426.555V125.831Z" fill="black"/>
<path fill-rule="evenodd" clip-rule="evenodd" d="M294.186 152.932C291.12 149.961 286.6 148.332 282.642 148.332C272.596 148.332 267.131 155.907 267.131 164.551C267.131 172.515 272.152 179.978 282.752 179.978C286.434 179.978 290.172 178.8 293.407 175.998V166.679H281.244V162.36H297.812V177.904C293.852 182.171 289.002 184.581 282.695 184.581C268.805 184.581 262.335 175.101 262.335 164.551C262.278 152.82 269.921 143.789 282.642 143.789C287.829 143.789 293.016 145.75 296.977 149.677L294.186 152.932Z" fill="black"/>
<path fill-rule="evenodd" clip-rule="evenodd" d="M321.417 169.712H311.934V183.854H307.079V144.574H324.82C333.636 144.574 338.041 150.746 338.041 157.145C338.098 163.09 334.86 168.646 326.829 169.319L339.715 183.854H333.577L321.417 169.712ZM333.186 157.258C333.242 153.331 330.455 148.951 324.82 148.951H311.934V165.336H324.595C330.455 165.336 333.186 161.69 333.186 157.258Z" fill="black"/>
<path fill-rule="evenodd" clip-rule="evenodd" d="M384.847 164.326C384.791 174.588 378.43 184.638 365.043 184.638C351.653 184.638 345.184 174.646 345.184 164.326C345.184 152.931 352.77 143.901 365.1 143.901C378.321 143.956 384.903 153.944 384.847 164.326ZM365.1 148.386C355.17 148.386 350.036 155.736 350.036 164.324C350.036 172.288 354.835 180.032 365.1 180.032C375.364 180.032 379.995 172.066 379.995 164.324C380.051 156.353 375.308 148.499 365.1 148.386Z" fill="black"/>
<path fill-rule="evenodd" clip-rule="evenodd" d="M425.017 144.63V168.198C425.017 179.081 417.709 184.582 409.174 184.582C400.862 184.582 393.163 179.193 393.163 168.198V144.63H397.959V168.198C397.959 175.999 403.149 180.09 409.174 180.09C415.197 180.09 420.218 175.83 420.218 168.142V144.574H424.961L425.017 144.63Z" fill="black"/>
<path fill-rule="evenodd" clip-rule="evenodd" d="M440.588 183.854H435.789V144.574H453.527C471.491 144.574 471.491 171.113 453.527 171.169H440.588V183.854ZM453.527 149.116H440.588V166.624H453.527C465.021 166.624 465.021 149.116 453.527 149.116Z" fill="black"/>
<path fill-rule="evenodd" clip-rule="evenodd" d="M185.701 184.129V145.912H146.323V184.129H129.239V91.7449H146.323V130.059H185.701V91.7449H202.652V184.129H185.701ZM98.8047 111.775C100.107 114.169 100.807 117.57 100.807 121.562V184.13H117.421V116.318C117.421 109.883 116.039 104.406 113.304 100.023C109.108 93.5992 102.186 90.1853 93.3226 90.1853C81.6825 90.1853 72.9541 95.7607 65.2574 103.301L61.4277 107.047V91.7455H33V105.119H45.5877V184.13H62.2042V116.035L63.0196 115.36C68.7447 110.596 77.4358 104.922 86.3539 104.922C93.6775 104.922 97.1678 108.643 98.8047 111.775Z" fill="black"/>
<path fill-rule="evenodd" clip-rule="evenodd" d="M231.941 90.1853H233.599V184.682H231.941V90.1853Z" fill="black"/>
</svg>
