<svg width="500" height="275" viewBox="0 0 500 275" fill="none" xmlns="http://www.w3.org/2000/svg">
<path d="M83.0308 214.77C80.4534 213.754 77.7197 213.012 75.2985 211.685C67.5661 207.428 63.5437 198.836 64.8715 190.089C64.9496 189.464 64.9886 188.839 65.0277 188.019C62.8798 188.175 60.9272 188.214 59.0136 188.449C51.2812 189.425 44.4471 185.988 40.9324 179.31C37.4176 172.593 38.433 165.056 43.5879 159.237C50.344 151.622 57.1 143.968 63.8561 136.314C64.1685 135.962 64.4028 135.611 64.7543 135.142C64.3247 134.127 63.8952 133.15 63.4265 132.135C56.7876 118.115 50.2268 104.056 43.5098 90.0755C38.9407 80.6249 43.5879 69.7683 52.9995 66.6832C56.0066 65.7068 59.2089 65.3554 62.3331 64.7696C63.2703 64.5743 64.2466 64.4181 65.301 64.1838C65.4573 62.5827 65.5744 61.0596 65.7697 59.5366C66.9022 50.3983 74.2831 42.8221 83.3432 41.3382C89.6697 40.2837 95.3323 41.6896 100.37 45.6339C104.744 49.0315 109.118 52.39 113.492 55.7485C97.6755 58.5603 81.4695 61.372 65.497 64.1838C65.497 65.1211 65.7697 65.824 65.8478 66.4488C67.2927 76.8368 68.6986 87.2638 70.1826 97.6517C71.4713 106.712 72.76 115.733 74.0488 124.793C74.0488 124.91 74.0097 125.027 73.9707 125.145C70.9636 128.503 67.9566 131.823 64.9105 135.22C67.0975 139.945 69.1672 144.476 71.237 148.967C71.237 149.084 71.237 149.201 71.2761 149.318C71.1199 149.865 70.9636 150.451 70.8855 150.997C70.0654 156.582 69.2453 162.127 68.3862 167.712C67.4489 173.726 66.4726 179.74 65.5354 185.754C65.4573 186.34 65.5354 187.004 65.6135 187.863C67.9957 187.707 70.1435 187.589 72.3305 187.433C76.6653 187.082 80.9611 186.73 85.2959 186.379C89.1621 186.066 93.0282 185.598 96.8944 185.402C100.8 185.168 104.744 184.504 108.688 185.559C112.242 186.535 115.913 187.121 119.506 187.941C121.888 188.448 124.309 189.034 126.691 189.581C123.216 192.276 119.74 194.97 116.225 197.626C111.851 200.945 107.36 204.187 103.026 207.584C98.7689 210.943 94.3951 213.989 88.8496 214.848H82.9918L83.0308 214.77Z" fill="black" fill-opacity="0.4"/>
<path d="M357.139 126.433C357.373 126.55 357.569 126.667 357.803 126.746C367.019 129.792 373.619 138.813 372.721 150.607C371.745 163.181 363.036 172.398 350.266 174.233C348.235 174.546 346.126 174.663 344.056 174.702C333.122 174.741 322.226 174.702 311.291 174.702C308.363 174.702 307.425 173.765 307.425 170.875C307.425 142.171 307.425 113.507 307.425 84.8033C307.425 81.9915 308.402 81.0542 311.135 81.0542C321.718 81.0542 332.341 80.9761 342.924 81.0542C349.797 81.0933 356.163 82.9288 361.552 87.3417C366.59 91.4812 369.167 96.9876 369.753 103.353C370.456 110.734 368.542 117.295 362.919 122.372C361.239 123.895 359.17 125.027 357.178 126.394L357.139 126.433ZM325.663 159.276C325.897 159.354 326.053 159.432 326.17 159.432C330.974 159.432 335.777 159.471 340.581 159.432C341.987 159.432 343.432 159.276 344.837 159.003C350.891 157.753 354.483 153.34 354.405 147.287C354.366 140.922 350.734 136.47 344.603 135.298C343.353 135.064 342.026 134.947 340.737 134.907C335.738 134.868 330.74 134.907 325.663 134.907V159.276ZM325.663 119.677C330.661 119.677 335.387 119.794 340.151 119.638C343.119 119.56 345.931 118.623 348.196 116.553C351.828 113.194 352.531 108.977 351.32 104.408C350.07 99.7994 346.673 97.261 342.182 96.8314C336.832 96.3628 331.443 96.5971 326.053 96.519C325.975 96.519 325.858 96.6752 325.702 96.8314V119.677H325.663Z" fill="black"/>
<path d="M278.332 136.508C281.495 142.561 284.541 148.341 287.587 154.16C290.321 159.393 293.094 164.587 295.788 169.859C297.272 172.749 296.062 174.702 292.82 174.741C288.72 174.741 284.619 174.662 280.519 174.78C278.527 174.858 277.394 174.038 276.535 172.319C271.615 162.517 266.616 152.754 261.617 142.991C260.914 141.624 260.172 140.257 259.43 138.851H248.379V140.96C248.379 150.958 248.379 160.955 248.379 170.953C248.379 173.881 247.519 174.741 244.551 174.741C240.92 174.741 237.249 174.741 233.617 174.741C230.844 174.741 229.985 173.881 229.985 171.187C229.985 164.314 229.985 157.401 229.985 150.528C229.985 128.776 229.985 107.024 229.985 85.2716C229.985 84.4515 229.985 83.5533 230.219 82.7722C230.766 81.3663 231.977 81.093 233.421 81.093C242.443 81.093 251.503 81.093 260.524 81.093C264.546 81.093 268.608 81.0149 272.591 81.5616C286.572 83.5533 296.218 94.6051 296.53 108.703C296.608 112.218 296.335 115.693 295.32 119.091C292.937 127.058 287.626 132.291 280.206 135.649C279.62 135.923 279.035 136.157 278.254 136.547L278.332 136.508ZM248.535 122.723C254.51 122.723 260.29 123.152 266.03 122.606C274.426 121.825 278.917 115.615 277.707 107.375C276.887 101.674 272.083 97.4169 265.718 97.1044C260.329 96.8311 254.939 96.9482 249.55 96.9092C249.238 96.9092 248.925 97.0263 248.535 97.1044V122.762V122.723Z" fill="black"/>
<path fill-rule="evenodd" clip-rule="evenodd" d="M139.407 99.4794C139.451 99.4564 139.496 99.4329 139.539 99.4091H139.5C141.684 96.2583 143.887 93.127 146.095 89.9877C147.007 88.6912 147.921 87.3934 148.834 86.0922C149.097 85.7241 149.377 85.4091 149.664 85.0875C149.803 84.9316 149.943 84.7741 150.083 84.6082C149.317 83.9694 148.558 83.3263 147.802 82.6845C146.245 81.3648 144.696 80.0506 143.093 78.7894C135.876 73.1295 128.613 67.4926 121.357 61.861C119.15 60.1486 116.945 58.4367 114.741 56.7248C114.521 56.5534 114.331 56.3359 114.143 56.1204C114.031 55.9923 113.92 55.865 113.804 55.7485C113.726 55.7095 113.608 55.7095 113.491 55.7095C106.396 56.9678 99.2378 58.2212 92.0628 59.4776C83.205 61.0287 74.3211 62.5844 65.4966 64.1594C65.4966 64.7924 65.6112 65.2879 65.7131 65.7284C65.7684 65.9674 65.8199 66.1901 65.8474 66.4098C67.2923 76.8368 68.7372 87.2248 70.1822 97.6127C70.8266 102.143 71.471 106.663 72.1154 111.184C72.7597 115.704 73.404 120.224 74.0484 124.754C76.4696 122.099 78.8518 119.482 81.234 116.826C82.4837 115.421 83.7138 114.005 84.9439 112.589C86.1741 111.174 87.4043 109.758 88.654 108.352C90.3918 106.341 92.1491 104.349 93.9065 102.358C95.6639 100.366 97.4212 98.3742 99.159 96.363C102.361 92.6921 105.915 89.4507 110.992 88.7087C118.178 87.6934 124.114 89.8803 128.409 95.8163C129.803 97.742 131.098 99.7171 132.39 101.688C133.086 102.75 133.782 103.81 134.491 104.861C134.475 105.053 134.475 105.255 134.475 105.456C134.475 105.931 134.475 106.399 134.267 106.712C133.012 108.553 131.73 110.367 130.449 112.18C128.661 114.711 126.874 117.239 125.168 119.833C123.879 121.825 122.668 123.973 121.887 126.199C118.667 135.555 115.542 144.958 112.419 154.354C111.527 157.037 110.636 159.72 109.742 162.401C107.789 168.258 103.845 172.203 97.7138 173.413C89.7471 174.975 82.7177 172.398 78.8124 164.588C77.3545 161.646 75.966 158.669 74.5775 155.692C73.8832 154.204 73.1889 152.716 72.4859 151.232C72.232 150.724 71.9372 150.236 71.6459 149.754C71.5341 149.569 71.4227 149.385 71.3144 149.201C71.2699 149.408 71.2142 149.616 71.1579 149.826C71.0659 150.168 70.9723 150.517 70.9238 150.88C70.5095 153.573 70.1133 156.267 69.7178 158.955C69.2932 161.842 68.8693 164.723 68.4245 167.595C67.8856 171.203 67.3045 174.811 66.7234 178.42C66.336 180.826 65.9486 183.231 65.5737 185.637C65.5292 185.993 65.5607 186.349 65.5961 186.748C65.6229 187.05 65.6518 187.376 65.6518 187.746C66.6104 187.683 67.5311 187.626 68.4316 187.571C69.7689 187.489 71.0619 187.409 72.3688 187.316C75.22 187.111 78.0543 186.871 80.8939 186.631C82.3715 186.507 83.8506 186.382 85.3342 186.262C86.7839 186.144 88.2337 186.011 89.6834 185.877C92.0999 185.654 94.5163 185.432 96.9327 185.285C97.7251 185.238 98.5159 185.174 99.3057 185.109C102.448 184.854 105.575 184.599 108.727 185.441C111.163 186.111 113.655 186.615 116.139 187.118C117.277 187.348 118.415 187.578 119.544 187.824C121.217 188.174 122.871 188.562 124.519 188.949C125.257 189.122 125.993 189.295 126.73 189.464C126.894 189.464 126.94 189.464 126.969 189.442C126.995 189.421 127.007 189.382 127.081 189.308C136.727 182.044 146.334 174.78 155.941 167.516C157.554 166.286 159.167 165.06 160.778 163.835C163.614 161.68 166.444 159.529 169.258 157.363C159.301 142.292 149.345 127.259 139.389 112.227L139.383 112.218L139.383 112.218C138.328 110.578 137.274 108.938 136.141 107.376C135.282 106.204 135.282 105.228 136.18 104.056C136.946 103.062 137.661 102.017 138.38 100.966C138.72 100.47 139.06 99.9733 139.407 99.4794Z" fill="black" fill-opacity="0.6"/>
<path d="M139.54 99.4093C142.664 94.9573 145.749 90.5053 148.874 86.0924C149.225 85.5847 149.694 85.1161 150.123 84.6084C150.279 84.6084 150.436 84.6084 150.553 84.6084C162.19 93.6295 173.945 102.494 185.466 111.672C196.752 120.654 196.283 137.251 184.724 145.921C179.647 149.748 174.609 153.614 169.571 157.48C169.454 157.48 169.337 157.48 169.22 157.48C159.261 142.445 149.303 127.41 139.345 112.336C138.29 110.695 137.236 109.055 136.103 107.493C135.244 106.322 135.244 105.306 136.142 104.174C137.353 102.651 138.408 101.01 139.501 99.4093H139.54Z" fill="black" fill-opacity="0.3"/>
<path d="M169.259 157.48C169.376 157.48 169.493 157.48 169.61 157.48C171.797 160.916 173.945 164.392 176.21 167.79C177.889 170.367 179.412 172.944 179.998 176.03C182.029 186.222 174.023 196.454 163.596 196.415C160.081 196.415 156.528 195.595 153.052 194.892C144.968 193.291 136.923 191.533 128.839 189.854C128.254 189.737 127.707 189.581 127.121 189.425C136.728 182.161 146.374 174.897 155.981 167.633C160.433 164.275 164.846 160.877 169.298 157.48H169.259Z" fill="black" fill-opacity="0.3"/>
<path d="M150.591 84.5692C150.435 84.5692 150.177 84.5692 150.059 84.5692C147.716 82.6166 145.554 80.625 143.171 78.7504C133.721 71.3695 124.354 64.2065 114.904 56.8256C114.552 56.5523 114.058 55.9801 113.746 55.6677C116.909 55.0428 120.209 54.4208 123.372 53.835C128.332 52.9368 133.33 52.0386 138.29 51.1795C147.311 49.6174 155.512 54.8894 157.699 63.6762C158.91 68.5968 157.972 73.1659 155.082 77.3446C153.911 79.0629 152.661 80.7031 151.529 82.4214C151.099 83.0462 150.904 83.7882 150.63 84.4911L150.591 84.5692Z" fill="black" fill-opacity="0.3"/>
<path d="M74.0881 124.754C76.4703 122.099 78.8916 119.482 81.2738 116.826C83.7731 114.015 86.2334 111.164 88.6937 108.352C92.2085 104.369 95.7232 100.385 99.1988 96.363C102.401 92.6921 105.916 89.4507 111.032 88.7087C118.217 87.6543 124.114 89.8803 128.449 95.8163C130.597 98.7452 132.511 101.83 134.541 104.876C134.463 105.54 134.619 106.321 134.307 106.829C131.3 111.242 128.176 115.538 125.208 119.951C123.88 121.942 122.669 124.051 121.927 126.316C117.788 138.344 113.843 150.451 109.782 162.518C107.829 168.415 103.885 172.359 97.7539 173.531C89.7872 175.093 82.7578 172.515 78.8525 164.705C76.6656 160.292 74.6349 155.801 72.5261 151.349C72.1746 150.646 71.745 150.021 71.3545 149.318C71.3545 149.201 71.3545 149.084 71.3154 148.967C72.1746 143.343 73.0728 137.719 73.8929 132.057C74.2053 129.753 74.9473 127.449 74.0491 125.145C74.0491 125.027 74.0882 124.91 74.1272 124.793L74.0881 124.754Z" fill="black" fill-opacity="0.8"/>
<path d="M74.0099 125.105C74.9081 127.41 74.2051 129.714 73.8537 132.018C73.0336 137.641 72.1353 143.304 71.2762 148.927C69.2064 144.436 67.1366 139.906 64.9497 135.181C67.9958 131.822 71.0028 128.464 74.0099 125.105Z" fill="black" fill-opacity="0.6"/>
<path d="M401.894 118.467H442.742V116.084C442.742 105.775 442.742 95.4257 442.742 85.1159C442.742 81.7964 443.484 81.0544 446.687 81.0544C450.397 81.0544 454.107 81.0544 457.817 81.0544C460.16 81.0544 461.136 82.0308 461.136 84.3739C461.136 113.39 461.136 142.445 461.136 171.461C461.136 173.687 460.16 174.663 457.934 174.702C454.029 174.702 450.123 174.702 446.218 174.702C443.641 174.702 442.742 173.804 442.742 171.187C442.742 160.331 442.742 149.513 442.742 138.657V136.196H401.894V138.501C401.894 149.162 401.894 159.784 401.894 170.445C401.894 174.038 401.191 174.702 397.52 174.702C394.005 174.702 390.49 174.702 386.976 174.702C384.554 174.702 383.578 173.687 383.461 171.305C383.461 170.992 383.461 170.641 383.461 170.328C383.461 142.015 383.461 113.702 383.461 85.3893C383.461 84.8816 383.461 84.3348 383.5 83.8272C383.695 82.0698 384.711 81.0935 386.468 81.0935C390.647 81.0544 394.786 81.0544 398.965 81.0935C400.917 81.0935 401.855 82.226 401.894 84.4129C401.894 90.7785 401.894 97.144 401.894 103.51C401.894 107.727 401.894 111.945 401.894 116.163C401.894 120.38 401.894 117.568 401.894 118.467Z" fill="black"/>
<path d="M232.797 198.563H230.024V187.628H232.797V191.728H236.389V187.628H239.162V198.563H236.389V194.189H232.797V198.563Z" fill="black"/>
<path d="M247.715 198.797C246.114 198.797 244.747 198.251 243.615 197.157C242.521 196.064 241.975 194.736 241.975 193.135C241.975 191.534 242.521 190.167 243.615 189.073C244.708 187.98 246.075 187.433 247.715 187.433C249.356 187.433 250.722 187.98 251.855 189.073C252.987 190.167 253.534 191.534 253.534 193.135C253.534 194.736 252.987 196.064 251.855 197.157C250.722 198.251 249.356 198.797 247.715 198.797ZM247.715 189.893C246.856 189.893 246.153 190.206 245.567 190.792C244.982 191.416 244.708 192.158 244.708 193.057C244.708 193.955 244.982 194.736 245.567 195.361C246.153 195.986 246.856 196.298 247.715 196.298C248.574 196.298 249.238 195.986 249.824 195.361C250.41 194.736 250.683 193.994 250.683 193.096C250.683 192.197 250.41 191.416 249.824 190.792C249.238 190.167 248.535 189.854 247.715 189.854V189.893Z" fill="black"/>
<path d="M262.633 188.644C262.906 188.956 263.063 189.269 263.18 189.542C263.297 189.815 263.336 190.245 263.375 190.792H260.602C260.485 190.089 260.173 189.737 259.587 189.737C259.001 189.737 259.079 189.815 258.923 189.972C258.728 190.128 258.65 190.323 258.65 190.557C258.65 190.987 258.962 191.338 259.587 191.651L260.915 192.276C261.852 192.705 262.477 193.135 262.867 193.603C263.258 194.072 263.453 194.697 263.453 195.4C263.453 196.454 263.102 197.274 262.438 197.86C261.774 198.446 260.837 198.758 259.626 198.758C258.415 198.758 257.439 198.446 256.736 197.821C256.033 197.196 255.682 196.337 255.682 195.283V194.931H258.493C258.493 195.361 258.611 195.751 258.806 196.025C259.001 196.298 259.274 196.415 259.626 196.415C259.977 196.415 260.212 196.298 260.407 196.103C260.602 195.907 260.719 195.634 260.719 195.361C260.719 194.892 260.329 194.502 259.548 194.189L258.298 193.681C257.79 193.447 257.322 193.213 256.97 192.9C256.228 192.315 255.877 191.573 255.877 190.635C255.877 189.698 256.267 188.956 257.009 188.331C257.751 187.706 258.65 187.394 259.743 187.394C260.837 187.394 262.008 187.824 262.711 188.644H262.633Z" fill="black"/>
<path d="M268.921 198.563H266.265V187.628H269.858C271.459 187.628 272.553 187.901 273.216 188.448C274.076 189.151 274.505 190.127 274.505 191.338C274.505 192.549 274.115 193.447 273.373 194.189C272.709 194.814 271.615 195.126 270.17 195.126H268.96V198.563H268.921ZM268.921 190.088V192.666H270.053C271.225 192.666 271.811 192.236 271.811 191.377C271.811 190.518 271.186 190.088 269.975 190.088H268.96H268.921Z" fill="black"/>
<path d="M279.933 198.563H277.161V187.628H279.933V198.563Z" fill="black"/>
<path d="M287.353 198.563H284.58V190.088H282.433V187.628H289.54V190.088H287.392V198.563H287.353Z" fill="black"/>
<path d="M298.327 198.563L297.819 196.961H294.031L293.446 198.563H290.438L294.812 187.628H297.038L301.373 198.563H298.327ZM295.906 191.025L294.773 194.775H297.038L295.906 191.025Z" fill="black"/>
<path d="M309.652 198.563H303.638V187.628H306.41V196.102H309.652V198.563Z" fill="black"/>
<path d="M315.041 198.563H312.269V187.628H315.041V198.563Z" fill="black"/>
<path d="M322.422 198.563H319.649V190.088H317.501V187.628H324.609V190.088H322.461V198.563H322.422Z" fill="black"/>
<path d="M332.498 198.563H329.725V194.579L326.445 187.628H329.491L331.131 192.041L332.771 187.628H335.778L332.537 194.579V198.563H332.498Z" fill="black"/>
<path d="M346.049 198.563H343.471V187.628H347.064L349.212 194.814L351.36 187.628H354.953V198.563H352.375L352.492 190.362L350.149 198.563H348.314L345.971 190.362L346.049 198.563Z" fill="black"/>
<path d="M365.224 198.563L364.716 196.961H360.928L360.342 198.563H357.335L361.709 187.628H363.935L368.27 198.563H365.224ZM362.802 191.025L361.67 194.775H363.935L362.802 191.025Z" fill="black"/>
<path d="M373.229 198.563H370.574V187.628H372.956L377.213 194.501L377.095 187.628H379.751V198.563H377.33L373.112 191.924L373.229 198.563Z" fill="black"/>
<path d="M389.983 198.563L389.476 196.961H385.688L385.102 198.563H382.095L386.469 187.628H388.695L393.029 198.563H389.983ZM387.562 191.025L386.43 194.775H388.695L387.562 191.025Z" fill="black"/>
<path d="M399.551 194.579V192.353H406.034C406.034 192.705 406.034 192.9 406.034 192.9C406.034 194.579 405.487 195.985 404.354 197.079C403.222 198.211 401.855 198.758 400.176 198.758C398.496 198.758 397.169 198.211 396.075 197.079C394.943 195.985 394.396 194.618 394.396 193.017C394.396 191.416 394.943 190.088 396.075 188.995C397.208 187.901 398.575 187.355 400.254 187.355C401.933 187.355 402.636 187.706 403.69 188.448C404.745 189.19 405.409 190.127 405.721 191.221H402.597C402.089 190.284 401.269 189.815 400.215 189.815C399.16 189.815 398.653 190.088 398.067 190.674C397.481 191.26 397.208 192.002 397.208 192.861C397.208 193.72 397.481 194.697 398.067 195.321C398.653 195.946 399.434 196.259 400.371 196.259C401.308 196.259 401.504 196.102 401.933 195.79C402.363 195.478 402.636 195.048 402.792 194.501H399.551V194.579Z" fill="black"/>
<path d="M414.937 198.563H408.884V187.628H414.937V190.088H411.54V191.767H414.82V194.228H411.54V196.063H414.937V198.524V198.563Z" fill="black"/>
<path d="M420.561 198.563H417.984V187.628H421.577L423.725 194.814L425.872 187.628H429.465V198.563H426.888L427.005 190.362L424.662 198.563H422.826L420.483 190.362L420.561 198.563Z" fill="black"/>
<path d="M438.877 198.563H432.824V187.628H438.877V190.088H435.479V191.767H438.76V194.228H435.479V196.063H438.877V198.524V198.563Z" fill="black"/>
<path d="M444.617 198.563H441.962V187.628H444.344L448.601 194.501L448.484 187.628H451.139V198.563H448.718L444.5 191.924L444.617 198.563Z" fill="black"/>
<path d="M458.598 198.563H455.825V190.088H453.677V187.628H460.785V190.088H458.637V198.563H458.598Z" fill="black"/>
</svg>
