<svg width="500" height="275" viewBox="0 0 500 275" fill="none" xmlns="http://www.w3.org/2000/svg">
<path d="M92.7998 178.4H96.1998V186.5H105.5V178.4H108.9V197.9H105.5V189.7H96.1998V197.9H92.7998V178.4Z" fill="black"/>
<path d="M115.3 188.2C115.3 182.7 119.5 178.1 125.5 178.1C131.5 178.1 135.7 182.6 135.7 188.1V188.2C135.7 193.7 131.5 198.3 125.5 198.3C119.5 198.3 115.3 193.7 115.3 188.2ZM132 188.2C132 184.4 129.2 181.2 125.4 181.2C121.5 181.2 118.8 184.3 118.8 188.1V188.2C118.8 192 121.6 195.1 125.4 195.1C129.4 195 132 192 132 188.2Z" fill="black"/>
<path d="M145.7 181.6H139.5V178.4H155.3V181.6H149.1V197.9H145.7V181.6Z" fill="black"/>
<path d="M161.2 178.4H175.6V181.5H164.6V186.6H174.4V189.7H164.6V194.9H175.8V198H161.2V178.4Z" fill="black"/>
<path d="M182.1 178.4H185.5V194.7H195.7V197.8H182V178.4H182.1Z" fill="black"/>
<path d="M200.2 195L202.3 192.6C204.2 194.2 206.1 195.1 208.5 195.1C210.6 195.1 211.9 194.1 211.9 192.7V192.6C211.9 191.2 211.1 190.5 207.5 189.6C203.4 188.6 201 187.4 201 183.8V183.7C201 180.4 203.8 178.1 207.6 178.1C210.4 178.1 212.7 179 214.7 180.5L212.9 183.1C211.1 181.8 209.4 181.1 207.6 181.1C205.6 181.1 204.4 182.1 204.4 183.4V183.5C204.4 185 205.3 185.7 209 186.6C213.1 187.6 215.2 189.1 215.2 192.3V192.4C215.2 196 212.3 198.2 208.2 198.2C205.4 198.1 202.6 197.1 200.2 195Z" fill="black"/>
<path d="M243 195.6C241.3 197.2 239.4 198.1 237 198.1C233.4 198.1 230.6 195.9 230.6 192.5V192.4C230.6 189.9 232.1 188.1 234.7 186.9C233.6 185.5 233.1 184.3 233.1 182.8V182.7C233.1 180.1 235.2 177.8 238.7 177.8C241.8 177.8 243.9 179.9 243.9 182.5V182.6C243.9 185.2 242.2 186.7 239.6 187.7L242.9 191.1C243.7 190 244.3 188.7 245 187.3L247.6 188.7C246.8 190.3 246 191.8 245 193.1L248.1 196.2L245.5 198L243 195.6ZM241.1 193.6L236.8 189.2C235 190 234.2 191.2 234.2 192.4V192.5C234.2 194.1 235.6 195.3 237.5 195.3C238.8 195.3 240 194.7 241.1 193.6ZM241 183C241 181.6 240.1 180.7 238.8 180.7C237.4 180.7 236.5 181.7 236.5 183V183.1C236.5 184.1 236.9 184.8 238 186C239.9 185.3 241 184.4 241 183Z" fill="black"/>
<path d="M264.3 178.4H273C275.4 178.4 277.4 179.1 278.6 180.3C279.6 181.4 280.2 182.8 280.2 184.5V184.6C280.2 187.8 278.3 189.7 275.6 190.5L280.9 197.9H276.8L272 191.1H267.7V197.9H264.3V178.4ZM272.7 188C275.1 188 276.7 186.7 276.7 184.7C276.7 182.6 275.2 181.5 272.7 181.5H267.7V188H272.7Z" fill="black"/>
<path d="M286.6 178.4H301V181.5H290V186.6H299.8V189.7H290V194.9H301.2V198H286.6V178.4Z" fill="black"/>
<path d="M306.2 195L308.3 192.6C310.2 194.2 312.1 195.1 314.5 195.1C316.6 195.1 317.9 194.1 317.9 192.7V192.6C317.9 191.2 317.1 190.5 313.5 189.6C309.4 188.6 307 187.4 307 183.8V183.7C307 180.4 309.8 178.1 313.6 178.1C316.4 178.1 318.7 179 320.7 180.5L318.9 183.1C317.1 181.8 315.4 181.1 313.6 181.1C311.6 181.1 310.4 182.1 310.4 183.4V183.5C310.4 185 311.3 185.7 315 186.6C319.1 187.6 321.2 189.1 321.2 192.3V192.4C321.2 196 318.3 198.2 314.2 198.2C311.3 198.1 308.5 197.1 306.2 195Z" fill="black"/>
<path d="M326.7 188.2C326.7 182.7 330.9 178.1 336.9 178.1C342.9 178.1 347.1 182.6 347.1 188.1V188.2C347.1 193.7 342.9 198.3 336.9 198.3C330.9 198.3 326.7 193.7 326.7 188.2ZM343.5 188.2C343.5 184.4 340.7 181.2 336.9 181.2C333 181.2 330.3 184.3 330.3 188.1V188.2C330.3 192 333.1 195.1 336.9 195.1C340.8 195 343.5 192 343.5 188.2Z" fill="black"/>
<path d="M353.4 178.4H362.1C364.5 178.4 366.5 179.1 367.7 180.3C368.7 181.4 369.3 182.8 369.3 184.5V184.6C369.3 187.8 367.4 189.7 364.7 190.5L370 197.9H365.9L361.1 191.1H356.8V197.9H353.4V178.4ZM361.8 188C364.2 188 365.8 186.7 365.8 184.7C365.8 182.6 364.3 181.5 361.8 181.5H356.8V188H361.8Z" fill="black"/>
<path d="M380.5 181.6H374.3V178.4H390.1V181.6H383.9V197.9H380.5V181.6Z" fill="black"/>
<path d="M394.2 195L396.3 192.6C398.2 194.2 400.1 195.1 402.5 195.1C404.6 195.1 405.9 194.1 405.9 192.7V192.6C405.9 191.2 405.1 190.5 401.5 189.6C397.4 188.6 395 187.4 395 183.8V183.7C395 180.4 397.8 178.1 401.6 178.1C404.4 178.1 406.7 179 408.7 180.5L406.9 183.1C405.1 181.8 403.4 181.1 401.6 181.1C399.6 181.1 398.4 182.1 398.4 183.4V183.5C398.4 185 399.3 185.7 403 186.6C407.1 187.6 409.2 189.1 409.2 192.3V192.4C409.2 196 406.3 198.2 402.2 198.2C399.4 198.1 396.5 197.1 394.2 195Z" fill="black"/>
<path d="M50.2998 87.4H59.8998L71.8998 124.8L84.2998 87.3H91.7998L104.2 124.8L116.2 87.4H125.5L107.9 138.2H100.3L87.8998 102L75.5998 138.2H67.9998L50.2998 87.4Z" fill="black"/>
<path d="M148.1 118L128.1 87.4001H138.5L152.6 109.7L166.9 87.4001H177.1L157.1 117.7V137.8H148.2V118H148.1Z" fill="black"/>
<path d="M181.9 87.4001H190.1L217.1 122.3V87.4001H225.8V137.9H218.4L190.6 102V137.9H181.9V87.4001Z" fill="black"/>
<path d="M237.4 87.4001H256.3C272.2 87.4001 283.1 98.3001 283.1 112.5V112.6C283.1 126.8 272.1 137.8 256.3 137.8H237.5L237.4 87.4001ZM256.3 129.8C266.9 129.8 273.8 122.7 273.8 112.8V112.7C273.8 102.8 266.9 95.5001 256.3 95.5001H246.3V129.8H256.3Z" fill="black"/>
<path d="M292.4 87.4001H301.3V108.4H325.3V87.4001H334.2V137.9H325.3V116.6H301.2V137.9H292.3V87.4001H292.4Z" fill="black"/>
<path d="M363.6 87H371.8L394 137.8H384.6L379.5 125.7H355.6L350.4 137.9H341.3L363.6 87ZM376.3 117.8L367.6 97.6L358.9 117.8H376.3Z" fill="black"/>
<path d="M399.8 87.4001H409.2L424.5 111.3L439.9 87.4001H449.3V137.9H440.4V101.7L424.5 125.5H424.3L408.5 101.9V137.9H399.8V87.4001Z" fill="black"/>
<path d="M0 167.4C0 167.4 67.9 146.2 249.5 146.2C432.4 146.2 500 167.3 500 167.3C500 167.3 417.3 152.8 249.5 152.8C81.7 152.8 0 167.4 0 167.4Z" fill="black"/>
</svg>
