<svg width="500" height="275" viewBox="0 0 500 275" fill="none" xmlns="http://www.w3.org/2000/svg">
<path d="M111.085 152.013C111.085 138.428 118.679 131.74 127.248 131.74C134.214 131.74 142.574 136.199 142.574 151.526C142.574 164.971 135.677 172.356 126.551 172.356C118.052 172.356 111.085 165.668 111.085 152.153V152.013ZM118.33 152.222C118.33 164.484 122.789 168.315 126.76 168.315C130.104 168.315 135.259 165.738 135.259 152.083C135.259 146.997 134.772 135.711 126.969 135.711C121.883 135.642 118.33 140.727 118.33 152.222Z" fill="black"/>
<path d="M156.159 132.298L162.499 160.304L169.326 132.298H173.506L179.985 160.234L186.394 132.368H191.201L181.378 171.799H177.129L170.371 142.957L163.404 171.729H159.155L149.401 132.298H156.159Z" fill="black"/>
<path d="M205.762 132.367L223.875 160.304L223.945 132.367H228.682V171.799H224.293L206.18 143.793V171.799H201.373L201.443 132.367H205.762Z" fill="black"/>
<path d="M262.122 132.367V136.547H248.049V149.366H261.216V153.476L248.049 153.407V167.479H262.401V171.799H241.431V132.367H262.122Z" fill="black"/>
<path d="M65.453 137.662L65.1743 137.523C63.572 136.757 61.4123 135.921 58.765 135.921C52.8433 135.921 48.315 141.842 48.315 152.014C48.315 163.439 53.331 168.107 58.347 168.107C61.1337 168.107 63.4327 166.853 64.9653 165.947L65.244 165.738L67.1947 169.43L66.916 169.57C64.826 170.684 61.691 172.217 57.2323 172.217C46.5037 172.217 41 162.951 41 152.083C41 141.076 46.9913 131.601 58.138 131.601C60.855 131.601 63.8507 132.019 66.8463 133.552L67.125 133.691L65.453 137.662Z" fill="black"/>
<path d="M87.5373 132.298C91.7173 132.298 94.4343 132.368 97.3603 133.97C100.983 135.99 101.889 139.683 101.889 142.051C101.889 146.44 99.6593 151.317 92.623 153.059L105.511 171.729H97.7783L86.562 154.034H84.681V171.729H78.1323V132.298H87.5373ZM84.7507 136.339V150.411H86.771C89.906 150.411 95.2007 150.411 95.2007 142.818C95.2007 139.474 94.086 137.941 92.623 137.175C91.8567 136.757 90.951 136.548 90.0453 136.478C89.1397 136.408 88.0947 136.408 87.189 136.408L84.7507 136.339Z" fill="black"/>
<path d="M453.078 138.916H453.845V137.105H454.472C454.89 137.105 455.169 137.175 455.378 137.244C455.656 137.453 455.795 137.802 455.795 138.289V138.638V138.847H456.562C456.492 138.777 456.492 138.707 456.492 138.568V138.22V137.871C456.492 137.662 456.422 137.384 456.213 137.175C456.074 136.966 455.795 136.757 455.447 136.687C455.726 136.687 455.935 136.548 456.074 136.478C456.353 136.269 456.492 135.99 456.492 135.572C456.492 135.015 456.283 134.597 455.795 134.388C455.517 134.249 455.099 134.249 454.541 134.249H452.939V138.916H453.078ZM455.378 136.478C455.169 136.548 454.959 136.548 454.611 136.548H453.845V134.876H454.541C454.959 134.876 455.308 134.945 455.517 135.015C455.726 135.154 455.865 135.363 455.865 135.712C455.865 136.06 455.726 136.339 455.378 136.478ZM457.746 133.691C456.98 132.855 455.935 132.507 454.82 132.437C453.636 132.437 452.661 132.855 451.894 133.691C451.058 134.527 450.64 135.503 450.64 136.617C450.64 137.802 451.058 138.777 451.824 139.613C452.66 140.449 453.636 140.797 454.82 140.797C456.004 140.797 456.98 140.379 457.746 139.613C458.582 138.777 459 137.802 459 136.617C459 135.503 458.582 134.527 457.746 133.691ZM457.328 134.109C458.025 134.806 458.373 135.642 458.373 136.687C458.373 137.732 458.025 138.568 457.328 139.265C456.631 139.961 455.795 140.31 454.75 140.31C453.775 140.31 452.939 139.961 452.173 139.265C451.476 138.568 451.128 137.732 451.128 136.687C451.128 135.712 451.546 134.876 452.173 134.109C452.869 133.413 453.706 133.064 454.681 133.064C455.796 133.064 456.631 133.413 457.328 134.109Z" fill="black"/>
<path d="M441.653 132.437L455.099 171.938H448.063L443.883 158.98H433.084L428.974 171.869H424.097L437.473 132.437H441.653ZM434.268 155.149H442.698L438.588 141.912L434.268 155.149Z" fill="black"/>
<path d="M302.18 132.367C306.778 132.367 309.913 132.507 312.769 134.318C316.252 136.617 316.74 140.588 316.74 142.678C316.74 148.6 312.908 154.521 303.085 154.521H298.278V171.799H291.66V132.367H302.18ZM298.278 136.478V150.411H301.831C305.663 150.411 309.704 149.784 309.773 142.748C309.773 139.404 308.589 137.871 307.196 137.174C306.429 136.826 305.593 136.617 304.618 136.547C303.712 136.478 302.737 136.478 301.901 136.478H298.278Z" fill="black"/>
<path d="M331.928 132.367V167.549H345.792V171.868H325.31V132.367H331.928Z" fill="black"/>
<path d="M369.896 132.437L383.412 171.869H376.375L372.195 158.98H361.397L357.287 171.869H352.34L365.716 132.437H369.896ZM362.512 155.079H370.872L366.761 141.842L362.512 155.079Z" fill="black"/>
<path d="M416.573 132.437V135.851L397.693 167.549H417.618V171.938L389.891 171.869V168.525L408.979 136.617H391.075V132.437H416.573Z" fill="black"/>
<path d="M140.763 211.161V202.452H130.173V211.161H127.735V191.724H130.173V200.293H140.763V191.724H143.34V211.161H140.763Z" fill="black"/>
<path d="M156.995 193.605C153.094 193.605 149.262 196.6 149.262 201.477C149.262 206.423 153.094 209.419 156.995 209.419C160.827 209.419 164.728 206.423 164.728 201.477C164.728 196.531 160.896 193.605 156.995 193.605ZM156.995 211.509C151.7 211.509 146.754 207.608 146.754 201.407C146.754 195.277 151.7 191.375 156.995 191.375C162.29 191.375 167.236 195.346 167.236 201.477C167.236 207.608 162.29 211.509 156.995 211.509Z" fill="black"/>
<path d="M176.641 193.883V211.161H174.133V193.883H167.724V191.724H183.12V193.883H176.641Z" fill="black"/>
<path d="M185.488 211.161V191.724H195.799V193.883H187.996V200.362H194.475V202.522H187.996V209.001H196.914L196.844 211.23L185.488 211.161Z" fill="black"/>
<path d="M199.283 211.23V191.724H201.791V209.001H210.569V211.23H199.283Z" fill="black"/>
<path d="M217.675 211.369C215.515 211.369 213.704 210.673 212.659 209.976L212.38 207.468C213.773 208.583 215.654 209.349 217.814 209.349C220.113 209.349 221.715 208.025 221.715 206.075C221.715 204.124 220.601 203.079 218.023 202.173C214.609 200.989 212.937 199.317 212.937 196.6C212.937 194.092 214.818 191.584 218.789 191.584C220.601 191.584 222.133 192.141 222.9 192.699L222.412 194.719C221.646 194.162 220.252 193.604 218.72 193.604C216.49 193.604 215.236 194.998 215.236 196.391C215.236 197.993 216.281 198.969 218.58 199.805C221.994 201.059 224.084 202.522 224.084 205.866C224.014 209.14 221.646 211.369 217.675 211.369Z" fill="black"/>
<path d="M240.177 193.465C238.575 193.465 237.53 194.719 237.53 196.043C237.53 197.297 238.366 198.342 239.898 199.805C242.058 198.62 243.033 197.436 243.033 196.182C243.033 194.719 241.919 193.465 240.177 193.465ZM239.341 202.452C237.53 203.427 236.345 204.472 236.345 206.284C236.345 208.095 238.017 209.488 240.107 209.488C241.779 209.488 243.312 208.861 244.566 207.677L239.341 202.452ZM248.119 211.23L246.168 209.279C244.496 210.742 242.476 211.578 240.038 211.578C236.415 211.578 234.046 209.21 234.046 206.423C234.046 203.845 235.44 202.243 237.878 200.919C236.276 199.247 235.3 197.784 235.3 196.182C235.3 193.256 237.669 191.445 240.247 191.445C242.894 191.445 245.402 193.256 245.402 196.182C245.402 198.202 244.148 199.874 241.57 201.407L246.238 206.075C247.213 204.821 247.91 203.288 248.398 201.755L250 203.358C249.512 204.96 248.746 206.423 247.84 207.607L251.463 211.23H248.119Z" fill="black"/>
<path d="M266.163 193.953H263.446V200.432H266.232C268.113 200.432 269.855 199.317 269.855 197.227C269.785 195.137 268.044 193.953 266.163 193.953ZM272.363 211.23L266.093 202.522H263.446V211.23H261.007V191.793H266.581C269.437 191.793 272.363 193.674 272.363 197.157C272.363 199.735 270.761 201.407 268.74 202.104L275.498 211.23H272.363Z" fill="black"/>
<path d="M276.752 211.23V191.793H287.063V193.953H279.26V200.362H285.739V202.522H279.26V209.07H288.177V211.23H276.752Z" fill="black"/>
<path d="M295.074 211.439C292.915 211.439 291.103 210.742 290.058 210.046L289.78 207.468C291.173 208.583 293.054 209.349 295.214 209.349C297.513 209.349 299.115 208.025 299.115 206.075C299.115 204.124 298 203.079 295.423 202.173C292.009 200.989 290.337 199.317 290.337 196.6C290.337 194.022 292.218 191.584 296.189 191.584C298 191.584 299.533 192.141 300.299 192.699L299.812 194.719C299.045 194.231 297.582 193.604 296.119 193.604C293.89 193.604 292.636 194.998 292.636 196.461C292.636 198.063 293.681 199.038 295.91 199.805C299.324 200.989 301.484 202.591 301.484 205.866C301.484 209.21 299.045 211.439 295.074 211.439Z" fill="black"/>
<path d="M314.163 193.674C310.192 193.674 306.43 196.6 306.43 201.546C306.43 206.423 310.192 209.488 314.163 209.488C318.064 209.488 321.896 206.493 321.896 201.546C321.896 196.67 318.064 193.674 314.163 193.674ZM314.163 211.578C308.868 211.578 303.922 207.607 303.922 201.477C303.922 195.346 308.938 191.445 314.163 191.445C319.458 191.445 324.404 195.416 324.404 201.477C324.404 207.677 319.458 211.578 314.163 211.578Z" fill="black"/>
<path d="M333.043 193.953H330.326V200.432H333.043C334.924 200.432 336.665 199.387 336.665 197.227C336.735 195.137 334.993 193.953 333.043 193.953ZM339.243 211.23L332.973 202.522H330.326V211.23H327.887V191.793H333.461C336.317 191.793 339.243 193.674 339.243 197.157C339.243 199.735 337.641 201.407 335.62 202.104L342.378 211.23H339.243Z" fill="black"/>
<path d="M349.345 193.953V211.23H346.837V193.953H340.427V191.793H355.824V193.953H349.345Z" fill="black"/>
<path d="M362.79 211.439C360.63 211.439 358.819 210.742 357.774 210.046L357.426 207.538C358.819 208.652 360.7 209.349 362.86 209.349C365.159 209.349 366.761 208.025 366.761 206.144C366.761 204.194 365.646 203.079 363.138 202.243C359.725 201.059 357.983 199.387 357.983 196.67C357.983 194.092 359.864 191.654 363.835 191.654C365.646 191.654 367.179 192.211 367.945 192.768L367.458 194.789C366.691 194.231 365.228 193.674 363.765 193.674C361.536 193.674 360.282 195.067 360.282 196.53C360.282 198.133 361.397 199.108 363.626 199.874C367.04 201.128 369.199 202.661 369.199 205.935C369.13 209.279 366.761 211.439 362.79 211.439Z" fill="black"/>
<path d="M253.204 71.061C250.905 77.6096 238.296 71.479 231.817 68.4136C227.01 66.1843 223.735 64.3033 221.924 63.2583L226.661 69.3193H220.252C222.063 70.3643 225.338 72.2453 230.075 74.405C236.554 77.4703 249.164 83.601 251.463 77.0523C255.434 65.836 278.284 79.6996 280.514 81.1626L282.255 75.1713C279.817 73.6386 257.175 59.8446 253.204 71.061Z" fill="black"/>
<path d="M250 81.7895C247.701 88.3381 235.092 82.2075 228.613 79.1421C223.806 76.9128 220.531 75.0318 218.72 73.9868L223.457 79.9781H217.048C218.929 81.0231 222.203 82.9041 226.871 85.0638C233.35 88.1291 245.96 94.2598 248.259 87.7111C252.23 76.4251 275.22 90.4978 277.31 91.8215L279.051 85.8301C276.822 84.5065 253.971 70.6428 250 81.7895Z" fill="black"/>
<path d="M246.795 92.5881C244.496 99.1367 231.887 93.0061 225.408 89.9407C220.601 87.7114 217.326 85.8304 215.445 84.7854L220.183 90.7767H213.773C215.654 91.8217 218.929 93.7027 223.596 95.8624C230.075 98.9277 242.685 105.058 244.984 98.5097C248.955 87.1541 272.154 101.436 274.105 102.62L275.846 96.6287C273.756 95.3747 250.766 81.3717 246.795 92.5881Z" fill="black"/>
<path d="M247.98 110.144C213.982 110.144 186.394 98.0219 186.394 83.0435C186.394 68.0652 213.982 56.0129 247.98 56.0129C281.977 56.0129 309.565 68.1349 309.565 83.1132C309.565 98.0219 281.977 110.144 247.98 110.144ZM248.049 53.5049C209.942 53.5049 179.01 66.7416 179.01 83.0435C179.01 99.3455 209.872 112.652 247.98 112.652C286.087 112.652 317.019 99.4152 317.019 83.1132C317.019 66.7415 286.157 53.5049 248.049 53.5049Z" fill="black"/>
</svg>
