<svg width="396" height="225" viewBox="0 0 396 225" fill="none" xmlns="http://www.w3.org/2000/svg">
<mask id="path-1-outside-1_262_1751" maskUnits="userSpaceOnUse" x="212.444" y="29.7404" width="107" height="82" fill="black">
<rect fill="white" x="212.444" y="29.7404" width="107" height="82"/>
<path d="M214.444 93.7704C214.444 97.5177 217.482 100.556 221.229 100.556H277.785C278.699 100.556 279.44 101.296 279.44 102.21L279.44 108.083C279.44 109.421 280.946 110.206 282.043 109.439L294.321 100.854C294.599 100.66 294.93 100.556 295.269 100.556H310.992C314.74 100.556 317.778 97.5177 317.778 93.7704V38.4518C317.778 34.7045 314.74 31.6667 310.992 31.6667H221.23C217.482 31.6667 214.444 34.7045 214.444 38.4518V93.7704Z"/>
</mask>
<path d="M294.321 100.854L293.462 99.6248L294.321 100.854ZM279.44 102.21L277.94 102.21L279.44 102.21ZM279.44 108.083L280.94 108.083L279.44 108.083ZM282.043 109.439L282.902 110.668L282.043 109.439ZM316.278 93.7704V38.4518H319.278V93.7704H316.278ZM310.992 33.1667H221.23V30.1667H310.992V33.1667ZM215.944 38.4518V93.7704H212.944V38.4518H215.944ZM221.229 99.0556H277.785V102.056H221.229V99.0556ZM280.94 102.21L280.94 108.083L277.94 108.083L277.94 102.21L280.94 102.21ZM281.183 108.21L293.462 99.6248L295.181 102.083L282.902 110.668L281.183 108.21ZM295.269 99.0556H310.992V102.056H295.269V99.0556ZM293.462 99.6248C293.992 99.2543 294.623 99.0556 295.269 99.0556V102.056C295.238 102.056 295.207 102.065 295.181 102.083L293.462 99.6248ZM277.785 99.0556C279.527 99.0556 280.94 100.468 280.94 102.21L277.94 102.21C277.94 102.125 277.87 102.056 277.785 102.056V99.0556ZM280.94 108.083C280.94 108.128 280.95 108.15 280.959 108.164C280.971 108.182 280.992 108.204 281.023 108.22C281.054 108.236 281.084 108.241 281.105 108.24C281.121 108.24 281.146 108.236 281.183 108.21L282.902 110.668C280.811 112.13 277.94 110.634 277.94 108.083L280.94 108.083ZM221.23 33.1667C218.311 33.1667 215.944 35.5329 215.944 38.4518H212.944C212.944 33.8761 216.654 30.1667 221.23 30.1667V33.1667ZM316.278 38.4518C316.278 35.5329 313.911 33.1667 310.992 33.1667V30.1667C315.568 30.1667 319.278 33.8761 319.278 38.4518H316.278ZM319.278 93.7704C319.278 98.3462 315.568 102.056 310.992 102.056V99.0556C313.911 99.0556 316.278 96.6893 316.278 93.7704H319.278ZM215.944 93.7704C215.944 96.6893 218.311 99.0556 221.229 99.0556V102.056C216.654 102.056 212.944 98.3462 212.944 93.7704H215.944Z" fill="#333645" mask="url(#path-1-outside-1_262_1751)"/>
<path fill-rule="evenodd" clip-rule="evenodd" d="M254.444 67.2219C254.444 70.2902 251.957 72.7775 248.889 72.7775C245.82 72.7775 243.333 70.2902 243.333 67.2219C243.333 64.1537 245.82 61.6664 248.889 61.6664C251.957 61.6664 254.444 64.1537 254.444 67.2219ZM271.111 67.2219C271.111 70.2902 268.623 72.7775 265.555 72.7775C262.487 72.7775 260 70.2902 260 67.2219C260 64.1537 262.487 61.6664 265.555 61.6664C268.623 61.6664 271.111 64.1537 271.111 67.2219ZM282.222 72.7775C285.29 72.7775 287.777 70.2902 287.777 67.2219C287.777 64.1537 285.29 61.6664 282.222 61.6664C279.154 61.6664 276.666 64.1537 276.666 67.2219C276.666 70.2902 279.154 72.7775 282.222 72.7775Z" fill="url(#paint0_linear_262_1751)"/>
<path d="M126 97H189" stroke="url(#paint1_linear_262_1751)" stroke-width="1.5" stroke-linecap="round"/>
<path d="M126 117H164.1" stroke="url(#paint2_linear_262_1751)" stroke-width="1.5" stroke-linecap="round"/>
<path fill-rule="evenodd" clip-rule="evenodd" d="M182 56.8418H100.633C94.6956 56.8418 89.8826 61.6547 89.8826 67.5918V140.98C89.8826 146.917 94.6956 151.73 100.633 151.73H163.098C166.015 151.73 168.811 152.896 170.863 154.97L190.242 174.557C191.597 175.926 190.627 178.25 188.701 178.25H23V179.75H188.701C191.96 179.75 193.601 175.818 191.309 173.501L171.929 153.915C169.595 151.557 166.415 150.23 163.098 150.23H100.633C95.524 150.23 91.3826 146.088 91.3826 140.98V67.5918C91.3826 62.4832 95.524 58.3418 100.633 58.3418H182V56.8418ZM229.964 113H231.464V140.98C231.464 146.917 226.651 151.73 220.714 151.73H202.281V167.326C202.281 173.359 207.171 178.25 213.204 178.25H396V179.75H213.204C206.343 179.75 200.781 174.188 200.781 167.326V150.98V150.23H201.531H220.714C225.823 150.23 229.964 146.088 229.964 140.98V113Z" fill="url(#paint3_linear_262_1751)"/>
<rect x="247" y="122" width="72.8382" height="29.7688" rx="14.8844" fill="url(#paint4_linear_262_1751)"/>
<path d="M263.017 141.368L266.906 143.635C267.618 144.05 268.489 143.436 268.302 142.66L267.271 138.398L270.71 135.526C271.337 135.002 271 134.009 270.176 133.946L265.65 133.576L263.879 129.549C263.561 128.817 262.474 128.817 262.155 129.549L260.385 133.567L255.859 133.937C255.035 134 254.697 134.993 255.325 135.517L258.764 138.389L257.733 142.651C257.546 143.427 258.417 144.041 259.129 143.626L263.017 141.368Z" fill="#FAF9F7"/>
<path d="M283.631 141.368L287.314 143.635C287.989 144.05 288.814 143.436 288.637 142.66L287.66 138.398L290.918 135.526C291.513 135.002 291.193 134.009 290.412 133.946L286.125 133.576L284.447 129.549C284.145 128.817 283.116 128.817 282.814 129.549L281.136 133.567L276.849 133.937C276.068 134 275.748 134.993 276.343 135.517L279.601 138.389L278.624 142.651C278.447 143.427 279.272 144.041 279.947 143.626L283.631 141.368Z" fill="#FAF9F7"/>
<path d="M304.032 141.368L307.818 143.635C308.511 144.05 309.36 143.436 309.177 142.66L308.174 138.398L311.522 135.526C312.133 135.002 311.805 134.009 311.002 133.946L306.595 133.576L304.871 129.549C304.561 128.817 303.503 128.817 303.193 129.549L301.468 133.567L297.062 133.937C296.259 134 295.931 134.993 296.542 135.517L299.89 138.389L298.887 142.651C298.704 143.427 299.553 144.041 300.246 143.626L304.032 141.368Z" fill="#FAF9F7"/>
<defs>
<linearGradient id="paint0_linear_262_1751" x1="247.5" y1="61.9998" x2="252.268" y2="82.1147" gradientUnits="userSpaceOnUse">
<stop stop-color="#FB6214"/>
<stop offset="0.5" stop-color="#FD8237"/>
<stop offset="1" stop-color="#FDD284"/>
</linearGradient>
<linearGradient id="paint1_linear_262_1751" x1="126" y1="97.5" x2="189" y2="97.5" gradientUnits="userSpaceOnUse">
<stop stop-color="#333645"/>
<stop offset="1" stop-color="#333645"/>
</linearGradient>
<linearGradient id="paint2_linear_262_1751" x1="126" y1="117.5" x2="164.1" y2="117.5" gradientUnits="userSpaceOnUse">
<stop stop-color="#333645"/>
<stop offset="1" stop-color="#333645"/>
</linearGradient>
<linearGradient id="paint3_linear_262_1751" x1="31" y1="118.296" x2="75.5" y2="118.296" gradientUnits="userSpaceOnUse">
<stop stop-color="#333645" stop-opacity="0"/>
<stop offset="1" stop-color="#333645"/>
</linearGradient>
<linearGradient id="paint4_linear_262_1751" x1="261.899" y1="122" x2="274.66" y2="170.845" gradientUnits="userSpaceOnUse">
<stop stop-color="#FB6214"/>
<stop offset="0.5" stop-color="#FD8237"/>
<stop offset="1" stop-color="#FDD284"/>
</linearGradient>
</defs>
</svg>
