<svg width="498" height="301" viewBox="0 0 498 301" fill="none" xmlns="http://www.w3.org/2000/svg">
<g clip-path="url(#clip0_747_121850)">
<g filter="url(#filter0_d_747_121850)">
<path d="M8 24C8 15.1634 15.1634 8 24 8H498V301H8V24Z" fill="white"/>
<path d="M396.184 77.4445L396.08 77.3743L396.08 77.4796L396.184 77.4445ZM395.137 76.497L395.381 76.3918L395.381 76.2514L395.137 76.497ZM399.465 73.7598L399.43 73.2686L399.36 72.9878L399.465 73.7598ZM384.213 70.1454L383.969 70.2506L381.98 70.8472L381.282 71.0929L380.479 71.3385L380.2 71.4438L380.2 71.549L380.305 73.3738L380.409 75.0583L380.514 76.6023L380.689 76.7076L381.317 76.5321L384.144 75.6899L384.213 75.8654L389.239 73.9353L389.274 74.0055L389.728 73.83L391.333 73.1984L392.869 75.0583L393.078 74.8828L393.183 74.3564L393.148 75.1986L393.497 75.1986L393.602 75.6197L393.916 76.2163L395.556 74.216L396.917 74.6722L397.231 73.9704L399.465 72.7773L398.522 70.9174L398.767 72.1105L397.615 72.9878L396.324 73.0931L393.741 70.3208L392.589 68.5662L393.741 67.338L392.555 67.2678L392.066 66.1098L392.031 66.0396L390.042 68.2153L385.644 69.6892L384.213 70.1454Z" fill="#EFF1F5"/>
<path d="M253.164 48.8094L253.862 51.3009L255.328 60.2845L256.026 63.8639L256.235 67.0222L257.038 68.9171L257.212 70.5314L257.352 71.0578L257.317 71.163L255.921 73.4791L256.828 75.0232L258.573 87.3756L258.643 88.9898L260.388 88.8845L267.264 88.4985L284.434 87.0597L286.144 86.8843L286.144 86.7088L285.656 84.0067L283.527 82.9189L281.852 81.1643L279.199 79.55L278.362 79.4799L277.07 78.4973L277.419 73.6546L276.198 72.5316L276.617 70.5665L278.85 68.5311L278.466 64.3201L279.269 63.4077L281.991 60.5301L285.097 56.5296L286.284 55.6874L288.378 54.6698L290.577 53.0204L289.111 53.3012L288.238 52.6344L284.888 53.0906L284.365 52.459L281.363 53.6872L278.955 52.6695L278.292 51.8624L276.372 52.0028L275.081 51.336L275.5 50.8447L273.86 50.3183L272.394 50.3183L270.056 51.336L269.602 50.6342L265.902 50.1078L264.646 46.9495L264.506 46.002L262.901 45.5458L263.041 48.2479L258.783 48.5637L253.513 48.7743L253.164 48.8094Z" fill="#EFF1F5"/>
<path d="M219.765 48.4935L208.213 47.7215L199.802 46.9144L191.426 45.9318L186.226 45.23L177.92 43.9316L173.766 43.2297L164.483 41.44L163.506 41.2295L162.005 48.3883L162.668 49.6867L163.192 51.6869L162.878 51.9677L163.541 53.7924L164.448 54.5645L167.031 58.9159L167.275 59.6528L168.322 59.5826L167.101 65.3377L166.612 65.4781L165.949 67.4082L169.404 67.6538L169.683 69.2681L171.638 74.0757L171.987 74.3564L173.348 77.1638L173.697 76.883L176.593 76.8479L180.258 77.234L181.165 76.0408L182.247 78.006L182.457 78.1113L182.492 77.9007L182.98 74.4617L194.916 75.9355L204.444 76.8479L209.469 77.269L218.439 77.7954L218.892 77.8305L218.997 77.8305L219.032 77.3392L219.311 70.9174L219.939 58.4948L220.393 49.9323L220.428 48.5286L219.765 48.4935Z" fill="#EFF1F5"/>
<path d="M252.431 48.8094L241.891 49.0199L234.527 48.9848L228.211 48.8445L220.812 48.5637L220.428 48.5286L220.393 49.9323L219.939 58.4948L219.311 70.9174L220.672 70.9876L236.063 71.4087L250.267 71.3034L256.165 71.1279L257.352 71.0578L257.212 70.5314L257.038 68.9171L256.235 67.0222L256.026 63.8639L255.328 60.2845L253.862 51.3009L253.164 48.8094L252.431 48.8094Z" fill="#EFF1F5"/>
<path d="M202.036 208.303L200.954 207.496L200.011 207.741L200.221 209.707L198.929 211.321L200.046 213.883L200.36 216.514L201.652 217.357L202.454 216.058L203.885 215.005L205.63 214.549L207.55 212.9L205.665 211.286L205.63 210.303L202.036 208.303ZM195.684 205.46L195.16 205.004L194.672 205.671L195.684 205.46ZM193.066 203.951L193.206 202.653L192.543 202.548L193.066 203.951ZM195.265 201.811L194.672 202.092L195.09 203.425L195.998 203.495L196.277 204.653L197.254 205.074L199.418 204.057L197.394 202.372L195.265 201.811ZM190.798 200.372L190.484 201.32L191.984 201.284L193.38 201.635L192.647 200.477L190.798 200.372ZM186.4 197.6L185.598 196.828L184.062 198.021L185.039 199.846L185.737 199.109L187.727 199.53L187.552 198.688L186.4 197.6ZM170.765 196.056L170.975 195.564L171.568 195.249L170.765 196.056ZM176.314 192.862L173.871 193.775L173.627 194.442L174.604 195.143L175.965 195.494L176.942 193.564L176.314 192.862ZM159.388 186.405L159.388 186.37L159.318 186.37L159.388 186.405ZM140.891 181.808L140.891 181.879L140.926 181.879L140.891 181.808ZM130.491 179.141L130.421 179.141L130.421 179.176L130.491 179.141ZM119.741 170.053L119.706 169.947L119.706 169.982L119.741 170.053Z" fill="#EFF1F5"/>
<path d="M163.471 41.2295L160.365 40.5978L159.353 40.3522L158.899 40.2469L154.851 58.565L155.025 60.0739L154.886 61.6531L154.955 62.004L154.955 62.0391L154.99 62.7058L156.177 64.0043L154.467 68.3206L150.837 73.0931L150.733 73.9704L151.675 76.2163L148.359 90.0426L148.22 90.7795L149.197 90.9901L159.074 92.9552L163.017 93.6922L164.029 93.8676L165.007 94.0431L170.032 94.8502L179.036 96.2188L180.049 96.3592L180.188 95.2011L180.502 92.9201L181.689 83.7962L182.317 79.2693L182.457 78.1113L182.247 78.006L181.165 76.0408L180.258 77.234L176.593 76.8479L173.697 76.883L173.348 77.1638L171.987 74.3564L171.638 74.0757L169.683 69.2681L169.404 67.6538L165.949 67.4082L166.612 65.4781L167.101 65.3377L168.322 59.5826L167.275 59.6528L167.031 58.9159L164.448 54.5645L163.541 53.7924L162.878 51.9677L163.192 51.6869L162.668 49.6867L162.005 48.3883L163.506 41.2295L163.471 41.2295Z" fill="#EFF1F5"/>
<path d="M121.416 49.9674L121.451 49.3708L121.382 49.4059L121.416 49.9674ZM128.85 46.774L129.06 46.4231L128.815 46.388L128.85 46.774ZM128.187 46.1424L128.397 45.4405L128.187 45.3703L128.187 46.1424ZM130.735 45.1247L130.7 44.4229L130.107 45.3353L130.735 45.1247ZM130.805 43.6508L130.909 42.949L130.84 42.7735L130.805 43.6508ZM130.909 40.2118L130.874 39.8258L130.735 39.7907L130.909 40.2118ZM132.026 37.8957L131.712 37.8606L131.084 38.8432L132.026 37.8957ZM131.154 36.9482L131.328 36.8079L131.363 36.7026L131.154 36.9482ZM130.979 37.0535L130.874 36.3517L130.56 36.9482L130.979 37.0535ZM130.805 36.0709L130.491 35.9306L130.735 36.2815L130.805 36.0709ZM131.852 36.6675L131.852 36.2113L131.747 36.3868L131.852 36.6675ZM132.166 36.2113L132.026 36.106L131.991 36.106L132.166 36.2113ZM130.176 35.4393L130.002 35.2989L129.932 35.2638L130.176 35.4393ZM131.468 35.2989L130.525 35.5446L130.77 35.6148L131.468 35.2989ZM130.7 35.2287L130.525 35.0182L130.49 35.0533L130.7 35.2287ZM131.433 34.8076L131.293 34.8076L131.468 34.8778L131.433 34.8076ZM124.592 52.8099L125.849 54.1785L125.639 56.8104L125.884 57.4771L127.768 58.4948L133.073 58.9861L133.283 59.6177L135.795 59.6528L138.169 59.9687L142.042 59.5476L143.962 59.8634L144.485 59.6177L154.292 61.8636L154.955 62.004L154.886 61.6531L155.025 60.0739L154.851 58.565L158.899 40.2469L158.341 40.1416L150.174 38.2116L143.054 36.3868L134.993 34.1409L132.585 33.5443L133.143 36.5973L132.619 37.5799L131.677 37.0886L132.585 41.3348L131.607 42.7385L131.154 44.0369L131.154 45.3704L129.095 46.8091L128.222 46.2477L127.384 46.6688L128.92 44.6685L128.536 46.0371L129.409 45.0896L130.107 45.23L129.897 43.4754L130.351 43.5456L131.293 41.4401L130.979 41.1242L129.758 42.7034L128.955 42.7385L129.827 41.7559L130.805 41.5102L130.456 39.7205L129.478 39.4749L128.99 38.6327L128.397 38.9485L125.186 37.5448L122.359 35.334L121.591 37.4746L121.521 38.387L122.115 40.0013L121.731 45.23L121.451 46.0371L123.022 46.1775L121.451 47.3004L122.289 47.7215L121.626 49.9674L121.312 48.2128L120.718 50.2482L121.521 51.2307L122.394 51.1606L123.441 51.7922L123.964 52.8099L124.592 52.8099Z" fill="#EFF1F5"/>
<path d="M186.156 134.153L174.395 132.679L168.078 131.767L159.074 130.328L158.166 130.188L158.166 130.258L156.631 137.066L155.828 137.031L154.606 135.943L153.071 137.241L153.036 142.821L152.477 144.014L152.477 144.119L152.477 144.155L152.408 145.032L153.629 148.331L154.711 149.804L152.757 150.962L151.989 152.401L150.732 155.489L150.104 155.63L150.069 158.191L151.151 158.999L150.593 160.543L149.336 160.613L148.604 161.981L151.116 163.561L155.863 166.227L170.521 174.053L182.945 175.597L183.085 175.597L186.924 135.522L187.063 134.259L186.156 134.153Z" fill="#EFF1F5"/>
<path d="M126.407 153.629L126.547 154.401L126.547 154.542L126.407 153.629ZM121.277 150.612L121.521 151.138L121.661 151.103L121.277 150.612ZM127.384 150.506L127.489 151.419L128.117 151.875L127.384 150.506ZM123.162 145.523L122.778 145.418L123.092 145.558L123.162 145.523ZM119.288 144.47L118.345 145.032L118.59 145.278L119.288 144.47ZM117.473 143.804L117.403 144.084L117.717 144.155L117.473 143.804ZM120.544 144.505L122.08 145.383L122.359 145.137L120.544 144.505ZM112.377 113.765L112.342 113.66L112.342 113.8L112.377 113.765ZM132.515 87.1299L131.154 86.779L116.216 82.6381L110.667 80.9537L110.667 81.0941L110.353 84.5682L108.887 88.674L106.444 91.727L106.375 93.271L107.561 95.4117L108.155 98.219L107.317 100.5L107.457 102.781L107.038 103.728L108.469 106.852L109.376 108.045L109.306 111.449L111.47 113.519L112.726 111.414L114.088 112.502L114.611 112.01L112.726 112.361L112.691 114.151L113.075 116.397L112.028 115.379L111.435 114.01L111.261 115.905L111.749 119.66L113.704 122.082L112.412 123.766L112.622 125.907L114.018 128.082L116.461 134.82L117.228 135.241L116.984 139.908L117.368 140.47L122.603 142.365L124.208 144.084L124.767 145.207L126.302 146.085L127.978 146.4L128.676 148.331L130.072 148.997L132.166 151.489L134.12 154.752L133.98 157.77L135.062 159.209L149.336 160.613L150.593 160.543L151.151 158.999L150.069 158.191L150.104 155.63L150.732 155.489L151.989 152.401L152.757 150.962L154.711 149.804L153.629 148.331L152.408 145.032L152.477 144.155L152.477 144.119L151.57 142.891L148.778 139.136L143.369 131.486L135.83 120.608L131.572 114.677L127.454 108.712L132.201 88.4634L132.515 87.1299Z" fill="#EFF1F5"/>
<path d="M228.385 114.502L228.525 107.624L226.849 107.554L218.334 107.238L217.496 107.203L216.798 107.167L206.433 106.501L199.523 105.939L190.902 105.097L190.065 104.992L189.96 105.904L187.412 130.574L187.133 133.346L187.063 134.259L188.145 134.364L205.735 135.908L213.483 136.399L221.196 136.75L222.312 136.785L223.01 136.82L224.476 136.855L225.174 136.891L227.373 136.961L227.931 136.961L227.931 136.259L228.315 117.695L228.35 115.625L228.35 114.958L228.385 114.502Z" fill="#EFF1F5"/>
<path d="M158.341 129.065L161.97 106.36L163.82 94.9906L164.029 93.8676L163.017 93.6922L159.074 92.9552L149.197 90.9901L148.22 90.7795L147.242 90.569L142.322 89.4811L133.492 87.3756L132.515 87.1299L132.201 88.4634L127.454 108.712L131.572 114.677L135.83 120.608L143.369 131.486L148.778 139.136L151.57 142.891L152.477 144.119L152.477 144.014L153.036 142.821L153.071 137.241L154.606 135.943L155.828 137.031L156.631 137.066L158.166 130.258L158.166 130.188L158.341 129.065Z" fill="#EFF1F5"/>
<path d="M222.208 139.522L222.312 136.785L221.196 136.75L213.483 136.399L205.735 135.908L188.145 134.364L187.063 134.259L186.924 135.522L183.085 175.597L183.224 175.632L188.041 176.088L188.494 173.632L189.367 172.93L199.139 173.807L199.209 173.807L198.336 172.088L202.768 172.404L213.832 173.035L220.742 173.351L221.929 140.435L222.173 140.47L222.208 139.522Z" fill="#EFF1F5"/>
<path d="M110.667 80.9537L116.216 82.6381L131.154 86.779L132.515 87.1299L133.492 87.3756L142.322 89.4811L147.242 90.569L148.22 90.7795L148.359 90.0426L151.675 76.2163L150.733 73.9704L150.837 73.0931L154.467 68.3206L156.177 64.0043L154.99 62.7058L154.955 62.0391L154.955 62.004L154.292 61.8636L144.485 59.6177L143.962 59.8634L142.042 59.5476L138.169 59.9687L135.795 59.6528L133.283 59.6177L133.073 58.9861L127.768 58.4948L125.884 57.4771L125.639 56.8104L125.849 54.1785L124.592 52.8099L124.488 52.8449L124.243 53.0204L122.498 52.108L121.451 52.4238L120.753 52.0729L120.02 55.0908L119.532 55.933L117.368 61.2319L116.74 64.1446L116.356 64.1797L114.332 69.0224L112.971 71.0928L112.482 71.4438L111.226 73.9002L110.981 76.497L110.214 78.8131L110.667 80.9186L110.667 80.9537ZM123.441 52.1431L123.336 51.8273L123.301 52.0729L123.441 52.1431Z" fill="#EFF1F5"/>
<path d="M179.036 96.2188L170.032 94.8502L165.007 94.0431L164.029 93.8676L163.82 94.9906L161.97 106.36L158.341 129.065L158.166 130.188L159.074 130.328L168.078 131.767L174.395 132.679L186.156 134.153L187.063 134.259L187.133 133.346L187.412 130.574L189.96 105.904L190.065 104.992L189.367 104.922L180.467 103.834L179.106 103.658L179.979 96.8154L180.049 96.3592L179.036 96.2188Z" fill="#EFF1F5"/>
<path d="M218.229 91.5866L218.508 86.1123L218.857 78.7429L218.892 77.8305L218.439 77.7954L209.469 77.269L204.444 76.8479L194.916 75.9355L182.98 74.4617L182.492 77.9007L182.457 78.1113L182.317 79.2693L181.689 83.7962L180.502 92.9201L180.188 95.2011L180.049 96.3592L179.979 96.8154L179.106 103.658L180.467 103.834L189.367 104.922L190.065 104.992L190.902 105.097L199.523 105.939L206.433 106.501L216.798 107.167L217.496 107.203L217.531 106.29L217.706 102.606L218.02 96.1837L218.159 93.4465L218.194 92.5341L218.229 91.5866Z" fill="#EFF1F5"/>
<path d="M300.593 140.716L296.824 141.277L298.359 138.821L297.696 137.452L284.4 138.75L273.162 139.663L271.521 139.768L271.731 140.751L273.092 147.839L273.127 149.418L273.511 158.963L273.546 160.543L273.65 160.578L274.174 161.139L276.268 161.069L276.477 164.157L276.547 165.034L277.629 164.929L280.944 164.683L294.102 163.455L294.172 163.455L294.137 162.683L294.486 162.438L293.857 161.244L295.184 155.63L294.66 154.998L296.649 152.787L296.51 150.892L297.976 148.436L297.976 148.401L297.906 148.331L299.162 147.172L298.813 145.769L299.79 144.225L299.581 142.786L300.628 140.751L300.628 140.716L300.593 140.716Z" fill="#EFF1F5"/>
<path d="M290.193 93.5869L288.273 92.5692L287.226 91.1304L286.877 89.06L287.157 88.1125L286.144 86.8843L284.434 87.0597L267.264 88.4985L260.388 88.8845L258.643 88.9898L257.91 89.0249L258.504 92.9201L258.015 94.78L258.783 95.9381L258.783 96.1837L259.027 96.2188L260.144 99.5175L261.226 101.237L261.296 103.202L262.482 104.851L262.273 105.553L263.355 109.975L263.355 110.08L270.509 109.87L278.152 109.203L285.656 108.255L287.366 109.764L287.436 109.835L287.75 109.694L287.506 108.326L288.797 107.518L289.32 103.939L288.797 103.693L289.111 101.869L290.681 101.553L292.426 100.289L293.194 98.0787L293.229 96.9557L291.833 95.6222L291.414 94.78L290.088 93.9378L290.158 93.7624L290.193 93.5869Z" fill="#EFF1F5"/>
<path d="M271.277 135.171L270.405 120.327L268.834 119.415L268.694 118.713L267.438 117.59L268.66 116.081L268.171 115.204L267.264 115.239L266.426 114.642L266.077 114.361L264.89 114.432L252.012 114.923L246.114 115.063L234.388 115.063L229.676 114.993L228.35 114.958L228.35 115.625L228.315 117.695L227.931 136.259L227.931 136.961L229.432 136.996L237.529 137.101L256.479 136.82L269.986 136.189L271.312 136.083L271.277 135.171Z" fill="#EFF1F5"/>
<path d="M287.366 109.764L285.656 108.255L278.152 109.203L270.509 109.87L263.355 110.08L263.32 110.291L264.192 111.975L264.995 112.537L265.937 114.221L266.077 114.361L266.426 114.642L267.264 115.239L268.171 115.204L268.66 116.081L267.438 117.59L268.694 118.713L268.834 119.415L270.405 120.327L271.277 135.171L271.312 136.083L271.382 136.996L271.417 137.908L271.487 138.856L271.521 139.768L273.162 139.663L284.4 138.75L297.696 137.452L298.359 138.821L296.824 141.277L300.593 140.716L300.628 140.716L300.628 140.435L300.698 138.821L301.396 137.943L301.186 136.961L301.152 136.926L301.117 136.89L301.256 136.434L301.466 136.504L301.57 136.785L301.535 136.89L301.535 137.206L301.675 137.241L301.954 136.891L301.954 136.855L301.989 136.75L302.897 136.189L303.036 136.118L303.35 133.241L303.28 133.101L303.176 133.065L300.698 131.03L301.082 130.293L300.384 128.293L299.127 127.31L296.754 126.258L295.253 125.029L295.428 122.503L295.882 120.152L293.369 120.292L292.601 119.485L292.252 117.871L288.273 114.502L287.157 111.379L287.436 109.835L287.366 109.764Z" fill="#EFF1F5"/>
<path d="M258.12 96.1135L257.038 95.0256L253.234 93.9027L252.012 93.8676L250.163 94.394L247.964 92.9903L241.089 93.0605L231.072 92.9552L218.194 92.5341L218.159 93.4465L218.02 96.1837L217.706 102.606L217.531 106.29L217.496 107.203L218.334 107.238L226.849 107.554L228.525 107.624L228.385 114.502L228.35 114.958L229.676 114.993L234.388 115.063L246.114 115.063L252.012 114.923L264.89 114.432L266.077 114.361L265.937 114.221L264.995 112.537L264.192 111.975L263.32 110.291L263.355 110.08L263.355 109.975L262.273 105.553L262.482 104.851L261.296 103.202L261.226 101.237L260.144 99.5175L259.027 96.2188L258.783 96.1837L258.12 96.1135Z" fill="#EFF1F5"/>
<path d="M271.487 138.856L271.417 137.908L271.382 136.996L271.312 136.083L269.986 136.189L256.479 136.82L237.529 137.101L229.432 136.996L227.931 136.961L227.373 136.961L225.174 136.891L224.476 136.855L223.01 136.82L222.312 136.785L222.208 139.522L222.173 140.47L222.382 140.47L230.828 140.68L239.762 140.786L239.867 152.787L240.495 154.893L241.891 156.226L243.392 156.296L243.706 155.665L245.765 157.56L248.452 157.84L248.941 158.402L249.918 157.946L252.361 159.104L252.361 159.77L253.269 159.735L254.211 158.928L255.956 160.051L257.596 160.648L258.713 159.104L262.273 160.788L263.599 159.7L264.681 159.279L265.553 159.49L268.834 158.542L270.579 159.279L272.15 160.297L273.511 160.543L273.546 160.543L273.511 158.963L273.127 149.418L273.092 147.839L271.731 140.751L271.521 139.768L271.487 138.856Z" fill="#EFF1F5"/>
<path d="M256.165 71.1279L250.267 71.3034L236.063 71.4087L220.672 70.9876L219.311 70.9174L219.032 77.3392L218.997 77.8305L218.892 77.8305L218.857 78.7429L218.508 86.1123L218.229 91.5866L218.194 92.5341L231.072 92.9552L241.089 93.0605L247.964 92.9903L250.163 94.394L252.012 93.8676L253.234 93.9027L257.038 95.0256L258.12 96.1135L258.783 96.1837L258.783 95.9381L258.015 94.78L258.504 92.9201L257.91 89.0249L258.643 88.9898L258.573 87.3756L256.828 75.0232L255.921 73.4791L257.317 71.163L257.352 71.0578L256.165 71.1279Z" fill="#EFF1F5"/>
<path d="M300.07 191.775L299.616 191.88L299.407 192.09L300.07 191.775ZM301.535 191.775L301.291 191.669L301.221 191.775L301.535 191.775ZM302.373 191.494L302.129 191.494L301.989 191.669L302.373 191.494ZM301.954 191.248L301.884 191.143L301.849 191.248L301.954 191.248ZM304.746 189.388L304.641 189.458L304.816 189.458L304.746 189.388ZM309.632 187.318L309.842 187.037L309.597 187.353L309.632 187.318ZM310.33 186.405L310.26 186.441L310.26 186.476L310.33 186.405ZM292.392 189.494L292.915 188.827L291.484 188.441L290.856 188.967L292.392 189.494ZM306.875 186.441L306.735 186.3L306.701 186.37L306.875 186.441ZM307.259 185.809L306.91 185.704L307.015 186.055L307.259 185.809ZM310.819 184.756L310.784 184.721L310.819 184.791L310.819 184.756ZM310.54 184.686L310.47 184.651L310.435 184.756L310.54 184.686ZM308.097 184.581L308.411 184.475L308.411 184.37L308.097 184.581ZM308.271 184.405L308.446 184.23L308.411 184.195L308.271 184.405ZM307.05 183.107L306.98 183.177L307.015 183.177L307.05 183.107ZM294.172 163.455L294.102 163.455L280.944 164.683L277.629 164.929L276.547 165.034L276.582 165.877L277.28 172.649L278.432 174.264L278.467 175.211L279.583 177.176L280.491 180.054L280.177 181.668L279.932 185.669L279.409 186.967L279.479 186.967L279.583 187.879L278.99 188.722L283.318 188.23L286.703 189.178L289.111 189.494L290.333 188.616L289.669 187.739L291.903 187.037L291.833 187.809L292.985 187.528L293.927 189.002L294.73 188.722L296.824 190.16L295.533 190.616L298.499 191.494L299.616 191.494L300.279 190.687L301.71 189.915L302.722 191.389L303.42 190.055L303.211 187.949L305.095 188.686L305.305 189.318L307.538 189.599L308.655 190.511L308.515 191.248L310.086 189.774L309.493 189.002L306.875 188.336L305.898 187.774L305.863 186.721L306.945 186.862L307.783 185.142L306.701 183.633L306.107 185.072L304.746 184.826L305.689 183.282L305.06 183.107L303.525 184.195L301.326 184.335L300.698 183.844L301.71 182.054L302.897 182.019L304.921 182.686L306.387 182.826L305.584 181.808L304.048 178.79L304.467 177.106L292.427 178.44L292.88 177.983L292.392 176.72L293.125 175.632L293.543 172.895L296.196 168.333L294.904 166.754L294.974 165.596L294.172 163.701L294.172 163.455Z" fill="#EFF1F5"/>
<path d="M258.713 216.234L257.038 209.882L257.038 211.075L258.713 216.234ZM258.329 205.074L257.143 207.32L257.003 208.057L258.329 205.074ZM259.271 203.425L260.388 201.951L259.586 202.443L259.271 203.425ZM263.215 199.846L260.598 201.214L261.331 201.074L263.215 199.846ZM263.564 199.354L264.297 198.758L264.018 198.828L263.564 199.354ZM222.173 140.47L221.929 140.435L220.742 173.351L213.832 173.035L202.768 172.404L198.336 172.088L199.209 173.807L203.013 177.632L205.177 180.194L208.038 182.335L210.063 186.055L210.83 189.95L212.471 191.038L213.762 192.476L215.612 193.143L218.299 194.863L219.52 195.319L221.196 193.634L221.719 191.845L222.592 190.125L225.314 189.037L226.361 189.564L229.397 189.809L232.154 191.529L234.039 191.88L233.515 192.862L234.597 193.564L235.609 194.792L235.819 196.091L236.482 196.968L238.017 200.688L239.553 201.986L240.74 203.951L242.24 205.496L242.903 205.706L243.462 209.707L245.102 210.619L245.172 211.882L245.591 211.777L248.453 215.286L249.883 215.602L251.698 216.69L254.49 216.69L256.514 217.813L258.922 217.286L257.841 216.269L256.863 213.321L256.48 210.759L255.921 209.917L256.165 208.198L255.433 208.127L254.455 206.513L255.572 207.706L256.863 207.25L257.561 205.39L256.165 203.495L258.259 203.741L259.237 202.232L259.097 201.706L259.97 200.548L259.76 201.565L260.737 200.793L260.353 199.425L261.61 200.091L263.215 199.179L261.645 197.53L262.622 197.916L264.437 198.021L266.81 197.495L269.462 195.705L271.068 194.371L271.312 193.389L272.289 192.371L271.766 190.687L271.87 189.634L273.615 188.862L273.476 190.722L274.523 190.722L273.371 191.704L278.013 189.248L278.781 189.213L279.269 186.967L279.409 186.967L279.932 185.669L280.177 181.668L280.491 180.054L279.583 177.176L278.467 175.211L278.432 174.264L277.28 172.649L276.582 165.877L276.547 165.034L276.477 164.157L276.268 161.069L274.174 161.139L273.65 160.578L273.546 160.543L273.511 160.543L272.15 160.297L270.579 159.279L268.834 158.542L265.553 159.49L264.681 159.279L263.599 159.7L262.273 160.788L258.713 159.104L257.596 160.648L255.956 160.051L254.211 158.928L253.269 159.735L252.361 159.77L252.361 159.104L249.918 157.946L248.941 158.402L248.452 157.84L245.765 157.56L243.706 155.665L243.392 156.296L241.891 156.226L240.495 154.893L239.867 152.787L239.762 140.786L230.828 140.68L222.382 140.47L222.173 140.47Z" fill="#EFF1F5"/>
<path d="M389.239 73.9353L384.213 75.8654L384.144 75.6899L381.317 76.5321L380.689 76.7076L380.758 77.0585L382.085 82.217L382.503 82.7434L381.596 83.8664L382.224 84.4629L384.248 82.4978L385.33 80.9888L385.54 81.4099L390.635 79.1289L390.74 79.0237L390.705 78.1815L390.495 77.4445L389.414 74.3915L389.274 74.0055L389.239 73.9353Z" fill="#EFF1F5"/>
<path d="M384.528 49.5814L384.074 50.1429L383.55 50.0376L383.271 52.3537L383.271 52.3888L384.109 55.5471L384.039 56.1787L382.538 58.179L382.922 60.0037L382.922 62.2847L382.643 64.3903L384.213 70.1454L385.644 69.6892L390.042 68.2153L392.031 66.0396L392.031 65.4781L392.136 64.5657L391.891 64.671L391.857 64.4604L389.658 61.7584L389.588 61.5127L384.528 49.5814Z" fill="#EFF1F5"/>
<path d="M392.659 77.0936L392.624 76.3567L392.52 76.6374L392.659 77.0936ZM393.357 76.5321L392.904 75.6548L392.869 76.5672L393.357 76.5321ZM393.148 75.4443L393.392 76.0759L393.706 76.6374L393.916 76.2163L393.602 75.6197L393.497 75.1986L393.148 75.1986L393.148 75.4443ZM389.274 74.0055L389.414 74.3915L390.495 77.4445L390.705 78.1815L390.74 79.0237L390.81 78.9184L392.485 77.5849L392.171 75.1986L392.869 75.0583L391.333 73.1984L389.728 73.83L389.274 74.0055Z" fill="#EFF1F5"/>
<path d="M384.213 70.1454L382.643 64.3903L382.922 62.2847L382.922 60.0037L382.538 58.179L384.039 56.1787L384.109 55.5471L383.271 52.3888L382.817 52.5642L380.898 53.2661L379.013 54.003L374.686 55.5821L374.441 55.6523L376.012 59.337L376.535 62.8111L378.385 65.7238L380.13 71.4789L380.2 71.4438L380.479 71.3385L381.282 71.0929L381.98 70.8472L383.969 70.2506L384.213 70.1454Z" fill="#EFF1F5"/>
<path d="M310.609 146.786L310.749 147.067L311.238 147.383L311.447 161.771L311.517 169.667L313.297 180.475L313.436 180.44L315.007 180.756L315.426 177.632L316.124 179.387L317.31 180.475L319.579 179.141L319.334 178.931L319.404 178.966L317.834 175.351L332.91 172.895L333.923 172.72L333.923 172.684L332.98 170.895L332.91 168.333L332.143 166.929L332.527 164.192L333.155 163.49L330.572 158.858L325.896 144.541L325.861 144.47L324.814 144.646L319.23 145.558L316.438 145.909L310.574 146.716L310.609 146.786Z" fill="#EFF1F5"/>
<path d="M359.644 215.637L359.574 215.637L359.609 215.672L359.644 215.637ZM359.33 215.602L359.33 215.637L359.365 215.637L359.33 215.602ZM354.269 216.128L354.234 216.128L354.234 216.164L354.269 216.128ZM364.181 213.918L364.146 213.918L364.181 213.988L364.181 213.918ZM365.123 213.672L365.123 213.602L365.053 213.707L365.123 213.672ZM364.774 213.602L364.635 213.461L364.6 213.497L364.774 213.602ZM364.67 213.883L364.251 213.356L364.495 213.812L364.67 213.883ZM367.985 211.812L367.985 211.952L368.055 211.882L367.985 211.812ZM368.474 211.461L368.578 211.286L368.439 211.426L368.474 211.461ZM368.578 211.11L368.543 211.11L368.543 211.145L368.578 211.11ZM368.264 210.479L368.229 210.443L368.229 210.514L368.264 210.479ZM368.508 209.636L368.439 209.671L368.543 209.707L368.508 209.636ZM368.648 209.636L368.578 209.566L368.613 209.671L368.648 209.636ZM368.404 209.566L368.369 209.531L368.369 209.601L368.404 209.566ZM369.695 209.321L369.695 209.285L369.625 209.426L369.695 209.321ZM368.229 209.461L368.159 209.461L368.229 209.496L368.229 209.461ZM368.962 209.04L368.857 209.04L368.823 209.075L368.962 209.04ZM366.31 209.005L366.31 208.935L366.275 209.005L366.31 209.005ZM366.624 208.899L366.519 208.899L366.624 209.11L366.624 208.899ZM365.786 208.935L365.786 208.724L365.612 208.759L365.786 208.935ZM365.298 208.584L365.472 208.759L365.472 208.689L365.298 208.584ZM370.428 208.794L369.8 209.075L370.009 209.11L370.428 208.794ZM365.542 208.478L365.333 208.478L365.333 208.549L365.542 208.478ZM371.056 206.724L371.091 206.548L371.126 206.092L371.056 206.724ZM371.091 204.759L370.952 204.408L370.882 204.548L371.091 204.759ZM363.029 205.636L362.959 205.741L363.134 205.776L363.029 205.636ZM362.366 205.32L362.052 205.425L362.296 205.46L362.366 205.32ZM361.668 205.39L361.668 205.285L361.633 205.32L361.668 205.39ZM360.935 205.355L360.726 205.495L361.005 205.636L360.935 205.355ZM361.912 205.39L361.878 205.285L361.703 205.25L361.912 205.39ZM357.341 201.951L357.131 202.056L357.55 202.197L357.341 201.951ZM356.503 200.828L356.224 200.407L356.328 200.723L356.503 200.828ZM357.585 201.53L357.096 200.407L356.747 200.302L357.585 201.53ZM356.189 200.126L356.084 199.846L356.014 199.67L356.189 200.126ZM353.292 196.231L352.664 195.775L352.908 196.021L353.292 196.231ZM368.997 193.88L366.449 189.599L366.31 189.599L368.997 193.88ZM351.373 187.037L351.268 187.002L351.373 187.072L351.373 187.037ZM351.163 186.791L351.128 186.827L351.163 186.862L351.163 186.791ZM350.919 186.441L350.919 186.405L350.884 186.441L350.919 186.441ZM351.059 186.3L351.163 186.37L351.163 186.3L351.059 186.3ZM351.268 186.16L351.128 186.195L351.163 186.195L351.268 186.16ZM350.779 185.739L350.71 185.739L350.814 185.774L350.779 185.739ZM351.024 185.318L350.884 185.318L350.849 185.353L351.024 185.318ZM351.163 185.388L350.989 185.212L351.059 185.247L351.163 185.388ZM349.837 183.879L349.767 183.844L349.767 183.879L349.837 183.879ZM348.336 183.879L348.232 183.738L348.267 183.914L348.336 183.879ZM335.633 182.721L336.68 181.914L335.528 182.686L335.633 182.721ZM337.727 181.036L337.831 180.931L337.413 181.107L337.727 181.036ZM324.465 178.685L320.661 179.913L322.755 179.317L324.465 178.685ZM333.923 172.72L332.91 172.895L317.834 175.351L319.404 178.966L319.509 179.001L319.125 180.44L320.242 179.948L321.463 178.861L323.557 178.79L325.965 177.913L327.606 178.159L327.222 178.755L330.223 179.773L332.806 181.036L333.399 182.44L335.319 182.019L339.856 178.299L341.531 178.369L348.371 183.563L349.767 183.282L351.233 185.247L351.512 188.371L351.059 190.336L351.268 191.318L352.489 193.775L351.931 191.845L353.502 191.81L353.641 193.213L352.804 195.389L355.7 199.389L356.782 199.425L355.875 198.196L356.992 198.337L357.655 197.916L357.375 200.162L358.876 201.355L359.888 204.092L361.249 204.934L362.994 205.39L365.402 208.478L366.659 209.145L364.984 209.25L365.751 210.128L368.509 209.215L369.87 208.443L371.126 204.022L370.498 197.144L370.358 196.442L367.008 190.827L364.146 186.756L362.541 183.423L363.902 184.581L364.181 184.37L364.774 187.283L366.31 189.494L364.809 186.546L364.879 185.142L360.377 179.633L359.295 177.913L357.864 175.001L356.887 172.544L356.119 171.667L355.944 170.544L355.91 170.509L353.502 170.368L352.559 171.105L352.036 173.807L351.547 172.544L335.074 174.614L333.888 172.755L333.923 172.72Z" fill="#EFF1F5"/>
<path d="M356.468 165.315L356.433 164.262L356.189 165.175L356.468 165.315ZM356.852 163.701L356.712 162.894L356.608 163.385L356.852 163.701ZM340.519 141.593L340.065 141.698L338.739 141.979L333.853 142.997L333.399 143.102L332.91 143.172L330.188 143.698L329.455 143.839L326.489 144.4L325.861 144.47L325.896 144.541L330.572 158.858L333.155 163.49L332.527 164.192L332.143 166.929L332.91 168.333L332.98 170.895L333.923 172.684L333.923 172.72L333.888 172.755L335.074 174.614L351.547 172.544L352.036 173.807L352.559 171.105L353.502 170.368L355.91 170.509L355.7 166.719L356.154 165.912L355.91 164.403L356.398 162.964L357.131 162.157L356.608 161.666L357.829 160.157L357.794 160.157L355.7 158.191L352.838 154.086L351.268 153.349L344.532 147.664L342.892 145.558L339.716 144.225L339.541 143.523L340.519 141.593Z" fill="#EFF1F5"/>
<path d="M310.051 182.194L309.877 182.23L309.877 182.265L310.051 182.194ZM313.297 181.773L312.808 181.773L313.262 181.808L313.297 181.773ZM309.248 182.124L309.109 182.265L309.144 182.3L309.248 182.124ZM312.529 181.843L311.203 181.843L312.459 181.879L312.529 181.843ZM297.976 148.401L297.976 148.436L296.51 150.892L296.649 152.787L294.66 154.998L295.184 155.63L293.857 161.244L294.486 162.438L294.137 162.683L294.172 163.455L294.172 163.701L294.974 165.596L294.904 166.754L296.196 168.333L293.543 172.895L293.125 175.632L292.392 176.72L292.88 177.983L292.427 178.44L304.467 177.106L304.048 178.79L305.584 181.808L306.387 182.826L306.387 182.791L307.678 181.317L310.4 180.721L312.913 181.001L313.297 180.51L313.297 180.475L311.517 169.667L311.447 161.771L311.238 147.383L310.749 147.067L310.609 146.786L310.54 146.786L308.795 147.032L305.723 147.453L298.743 148.331L297.976 148.401Z" fill="#EFF1F5"/>
<path d="M340.519 141.593L339.541 143.523L339.716 144.225L342.892 145.558L344.532 147.664L351.268 153.349L352.838 154.086L355.7 158.191L357.794 160.157L358.143 158.542L357.585 156.998L359.085 158.121L359.923 157.454L358.492 156.261L360.237 156.156L362.959 153.84L362.645 153.243L364.321 151.945L364.146 151.313L365.367 150.541L365.437 148.752L367.357 145.172L368.648 143.523L368.788 143.453L361.005 138.505L358.108 139.066L354.165 138.926L352.21 137.908L340.623 141.593L340.519 141.593Z" fill="#EFF1F5"/>
<path d="M290.158 93.7624L290.088 93.9378L291.414 94.78L291.833 95.6222L293.229 96.9557L293.194 98.0787L292.426 100.289L290.681 101.553L289.111 101.869L288.797 103.693L289.32 103.939L288.797 107.518L287.506 108.326L287.75 109.694L287.436 109.835L287.157 111.379L288.273 114.502L292.252 117.871L292.601 119.485L293.369 120.292L295.882 120.152L295.428 122.503L295.253 125.029L296.754 126.258L299.127 127.31L300.384 128.293L301.082 130.293L300.698 131.03L303.176 133.065L303.28 133.101L303.071 132.89L303.769 131.241L306.456 131.978L307.119 131.206L306.596 129.662L308.795 128.363L308.201 127.521L308.725 126.328L308.725 126.223L308.585 126.187L308.62 123.064L309.388 122.503L310.714 119.38L310.435 118.011L309.562 116.362L310.051 114.502L307.608 97.2014L307.259 96.8154L306.352 94.7449L305.619 93.9729L305.305 91.9375L305.305 91.8674L300.593 92.5341L297.766 92.885L290.158 93.7624Z" fill="#EFF1F5"/>
<path d="M322.126 94.4993L316.787 95.4468L315.565 95.6924L311.238 96.3942L310.33 97.1312L308.969 97.7628L308.446 97.7277L307.817 97.4119L307.608 97.2014L310.051 114.502L309.562 116.362L310.435 118.011L310.714 119.38L309.388 122.503L308.62 123.064L308.585 126.187L308.725 126.223L308.864 126.187L309.388 125.205L310.679 125.205L312.25 124.678L314.204 125.415L314.413 124.608L315.53 123.766L317.205 124.012L318.113 122.222L320.591 122.433L320.556 121.415L322.755 118.502L322.406 117.169L323.941 117.134L325.826 115.625L325.372 113.905L325.442 113.835L325.372 113.238L323.278 100.816L322.336 95.5169L322.231 94.9554L322.126 94.4993Z" fill="#EFF1F5"/>
<path d="M301.57 136.785L301.466 136.504L301.256 136.434L301.117 136.89L301.152 136.926L301.535 136.89L301.57 136.785ZM325.442 113.835L325.372 113.905L325.826 115.625L323.941 117.134L322.406 117.169L322.755 118.502L320.556 121.415L320.591 122.433L318.113 122.222L317.205 124.012L315.53 123.766L314.413 124.608L314.204 125.415L312.25 124.678L310.679 125.205L309.388 125.205L308.864 126.187L308.725 126.223L308.725 126.328L308.201 127.521L308.795 128.363L306.596 129.662L307.119 131.206L306.456 131.978L303.769 131.241L303.071 132.89L303.28 133.101L303.35 133.241L303.036 136.118L302.897 136.189L301.989 136.75L301.954 136.855L302.966 136.715L310.016 135.768L309.667 134.364L310.854 134.329L325.058 132.434L335.039 130.749L335.179 130.644L335.423 130.363L338.041 128.96L340.065 126.293L340.344 125.38L341.67 124.328L343.346 122.187L343.59 121.836L343.485 121.801L342.613 121.801L341.496 121.169L339.507 118.748L338.809 116.291L338.809 116.221L338.739 116.151L337.273 115.309L336.61 114.186L335.284 115.484L334.446 115.695L333.399 115.274L332.492 115.976L330.607 115.133L330.118 115.344L328.339 113.8L327.431 113.344L325.721 113.554L325.442 113.835Z" fill="#EFF1F5"/>
<path d="M372.417 142.225L372.033 142.611L372.103 142.681L372.417 142.225ZM372.696 140.189L372.522 140.47L372.592 140.751L372.696 140.189ZM374.79 136.926L374.267 137.277L373.988 137.698L374.79 136.926ZM379.293 134.715L379.083 134.574L378.629 134.539L379.293 134.715ZM378.35 134.504L378.036 134.504L377.513 134.785L378.35 134.504ZM379.432 134.89L380.444 132.364L379.746 133.416L379.432 134.89ZM380.933 131.557L381.387 130.89L381.142 130.89L380.933 131.557ZM383.865 128.819L383.097 124.924L383.76 126.959L383.865 128.819ZM379.607 119.941L379.537 119.976L379.432 120.011L379.467 120.011L381.387 123.275L382.887 124.784L379.607 119.941ZM378.978 120.152L378.699 120.222L378.769 120.257L379.362 120.257L379.293 120.046L379.188 120.081L379.083 120.081L379.083 120.152L379.013 120.187L378.978 120.152ZM346.696 128.153L346.521 128.679L346.556 130.188L346.172 130.153L345.265 132.013L344.253 132.118L342.368 133.978L341.531 133.662L340.449 135.276L337.587 137.873L336.191 138.224L334.725 139.593L334.655 140.505L333.364 141.207L333.399 142.751L333.399 143.102L333.853 142.997L338.739 141.979L340.065 141.698L340.519 141.593L340.623 141.593L352.21 137.908L354.165 138.926L358.108 139.066L361.005 138.505L368.788 143.453L368.927 143.347L372.522 141.874L372.557 139.944L373.848 137.592L375.244 136.259L378.141 134.329L378.525 133.627L379.293 133.978L379.642 131.662L379.223 132.469L377.757 132.96L376.361 132.995L378.071 131.732L377.548 131.17L378.141 129.907L374.86 129.381L374.721 129.205L377.513 128.679L378.42 129.135L379.572 129.03L380.514 128.328L381.212 126.959L381.84 126.784L381.736 124.854L380.933 124.082L380.13 124.819L380.305 126.679L379.711 124.398L379.258 124.292L375.803 125.731L377.338 124.222L377.408 123.626L379.013 123.24L379.467 122.047L380.549 122.678L379.397 120.959L378.595 120.257L364.635 124.257L355.735 126.538L346.731 128.223L346.696 128.153Z" fill="#EFF1F5"/>
<path d="M346.521 96.8154L345.649 93.0254L344.497 87.937L343.241 88.7442L340.554 90.8146L338.809 92.9552L337.447 93.1658L334.935 94.6045L333.539 93.7623L329.316 93.271L327.082 93.8325L324.883 94.3589L322.58 94.8502L322.231 94.9554L322.336 95.5169L323.278 100.816L325.372 113.238L325.442 113.835L325.721 113.554L327.431 113.344L328.339 113.8L330.118 115.344L330.607 115.133L332.492 115.976L333.399 115.274L334.446 115.695L335.284 115.484L336.61 114.186L337.273 115.309L338.739 116.151L338.809 116.221L340.309 115.484L340.833 114.326L340.414 113.133L341.601 111.308L342.473 111.168L342.368 109.624L343.799 107.659L344.044 107.94L345.335 106.957L346.452 105.273L346.626 97.5874L346.696 97.5523L346.521 96.8154Z" fill="#EFF1F5"/>
<path d="M335.039 130.749L325.058 132.434L310.854 134.329L309.667 134.364L310.016 135.768L302.966 136.715L301.954 136.855L301.954 136.891L301.675 137.241L301.535 137.206L301.535 136.89L301.152 136.926L301.186 136.961L301.396 137.943L300.698 138.821L300.628 140.435L300.628 140.716L300.628 140.751L299.581 142.786L299.79 144.225L298.813 145.769L299.162 147.172L297.906 148.331L297.976 148.401L298.743 148.331L305.723 147.453L308.795 147.032L310.54 146.786L310.609 146.786L310.574 146.716L316.438 145.909L319.23 145.558L324.814 144.646L325.861 144.47L326.489 144.4L329.455 143.839L330.188 143.698L332.91 143.172L333.399 143.102L333.399 142.751L333.364 141.207L334.655 140.505L334.725 139.593L336.191 138.224L337.587 137.873L340.449 135.276L341.531 133.662L342.368 133.978L344.253 132.118L345.265 132.013L346.172 130.153L346.556 130.188L346.521 128.679L346.696 128.153L346.138 128.258L344.148 128.819L341.775 129.311L335.807 130.539L335.179 130.644L335.039 130.749Z" fill="#EFF1F5"/>
<path d="M379.083 120.081L379.188 120.081L379.293 120.046L379.223 119.871L379.083 120.081ZM377.897 116.151L377.897 116.327L378.071 116.221L377.897 116.151ZM378.315 115.344L378.246 115.8L378.141 115.976L378.315 115.344ZM378.629 114.432L378.664 114.221L378.595 114.432L378.629 114.432ZM378.839 113.484L378.944 113.238L378.769 113.87L378.839 113.484ZM378.874 112.958L379.013 112.186L378.839 112.361L378.874 112.958ZM379.502 109.484L379.572 109.168L379.537 109.238L379.502 109.484ZM379.362 108.676L378.909 108.852L378.211 109.168L377.966 109.484L378.071 109.519L377.233 114.747L377.548 115.59L378.036 113.414L378.944 110.571L379.362 108.712L379.362 108.676ZM380.06 108.396L379.956 108.431L379.921 108.571L379.746 109.659L379.886 109.273L380.06 108.396ZM343.59 121.836L343.346 122.187L341.67 124.328L340.344 125.38L340.065 126.293L338.041 128.96L335.423 130.363L335.179 130.644L335.807 130.539L341.775 129.311L344.148 128.819L346.138 128.258L346.696 128.153L346.731 128.223L355.735 126.538L364.635 124.257L378.595 120.257L378.49 120.081L378.455 119.976L378.699 120.222L378.978 120.152L378.944 120.116L378.699 118.923L378.874 118.958L379.432 120.011L379.537 119.976L379.607 119.941L379.467 119.66L378.036 117.449L376.256 117.765L375.454 118.432L374.686 117.73L372.068 116.853L370.253 116.783L373.778 116.467L375.733 117.8L376.291 116.923L374.721 114.923L375.837 114.993L375.244 113.379L373.848 113.449L370.533 110.747L370.114 110.747L374.79 113.063L374.476 111.449L374.79 110.922L372.417 110.01L370.358 109.87L369.346 108.957L368.508 109.484L368.194 107.062L368.543 107.132L368.474 105.167L368.404 105.097L368.334 105.132L368.264 105.097L368.09 104.957L367.985 104.851L366.868 104.36L365.716 103.518L364.111 103.097L364.006 103.062L364.006 103.097L363.797 104.571L360.551 103.167L360.621 105.202L358.841 108.606L357.759 109.799L357.061 111.87L354.932 111.133L353.885 115.905L353.048 117.52L352.908 119.625L352.28 120.643L349.942 121.345L348.022 122.854L347.115 122.994L346.242 123.766L344.044 122.959L343.66 121.871L343.59 121.836Z" fill="#EFF1F5"/>
<path d="M306.107 70.8472L305.235 71.9351L304.711 73.5142L304.956 74.3915L306.107 70.8472ZM286.075 62.6006L286.598 61.8636L286.214 62.2145L286.075 62.6006ZM286.877 61.4425L286.703 61.232L286.319 61.4776L286.877 61.4425ZM279.269 63.4077L278.466 64.3201L278.85 68.5311L276.617 70.5665L276.198 72.5316L277.419 73.6546L277.07 78.4973L278.362 79.4799L279.199 79.55L281.852 81.1643L283.527 82.9189L285.656 84.0067L286.144 86.7088L286.144 86.8843L287.157 88.1125L286.877 89.06L287.226 91.1304L288.273 92.5692L290.193 93.5869L290.158 93.7624L297.766 92.885L300.593 92.5341L305.305 91.8674L305.165 91.341L305.165 89.6916L304.223 87.937L303.978 85.7262L304.432 83.2698L304.188 81.3748L305.025 79.0237L304.711 78.6376L304.781 76.4619L305.235 74.8126L304.711 74.2511L303.699 74.6021L303.141 76.0759L301.815 76.848L302.233 74.9881L303.42 73.4089L303.49 72.7071L303.525 72.672L301.849 70.9876L301.849 68.6013L299.965 67.0572L297.382 66.8818L294.73 66.1799L289.006 64.4253L287.889 63.7937L287.785 63.899L286.005 63.6533L285.412 64.0042L285.656 61.4425L282.794 62.9164L279.304 63.4779L279.269 63.4077ZM286.11 61.5478L286.04 61.3022L285.796 61.4074L286.11 61.5478ZM284.853 61.3022L284.958 61.0916L284.888 61.0214L284.853 61.3022ZM287.401 60.7056L287.296 60.2143L287.191 60.8109L287.401 60.7056Z" fill="#EFF1F5"/>
<path d="M353.187 102.992L348.232 104.22L346.696 97.5523L346.626 97.5874L346.452 105.273L345.335 106.957L344.044 107.94L343.799 107.659L342.368 109.624L342.473 111.168L341.601 111.308L340.414 113.133L340.833 114.326L340.309 115.484L338.809 116.221L338.809 116.291L339.507 118.748L341.496 121.169L342.613 121.801L343.485 121.801L343.59 121.836L343.66 121.871L344.044 122.959L346.242 123.766L347.115 122.994L348.022 122.854L349.942 121.345L352.28 120.643L352.908 119.625L353.048 117.52L353.885 115.905L354.932 111.133L357.061 111.87L357.759 109.799L358.841 108.606L360.621 105.202L360.551 103.167L363.797 104.571L364.006 103.097L364.006 103.062L362.994 101.307L360.9 101.062L359.679 102.009L359.679 102.711L358.632 102.956L357.096 104.044L356.293 104.22L354.688 106.501L353.885 102.816L353.187 102.992Z" fill="#EFF1F5"/>
<path d="M373.709 97.2014L373.848 97.7277L376.745 106.045L380.06 105.062L380.025 104.992L380.095 104.992L380.2 105.027L380.27 104.992L380.2 104.851L379.362 102.606L375.279 98.7103L375.454 96.0082L374.616 96.0082L373.988 96.4995L373.709 97.2014Z" fill="#EFF1F5"/>
<path d="M368.09 104.957L368.264 105.097L368.334 105.132L368.404 105.097L368.474 105.132L368.718 105.273L368.788 105.378L368.788 105.623L368.857 105.764L369.311 104.922L368.823 104.641L368.229 104.676L368.09 104.957Z" fill="#EFF1F5"/>
<path d="M380.095 108.255L380.34 106.36L380.13 107.764L379.991 108.361L379.956 108.431L380.06 108.396L380.095 108.255ZM380.27 104.992L380.2 105.027L380.27 105.237L380.27 105.659L380.27 104.992ZM353.885 102.816L354.688 106.501L356.293 104.22L357.096 104.044L358.632 102.956L359.679 102.711L359.679 102.009L360.9 101.062L362.994 101.307L364.006 103.062L364.111 103.097L365.716 103.518L366.868 104.36L367.985 104.851L368.09 104.957L368.229 104.676L368.823 104.641L369.311 104.922L368.857 105.764L368.857 105.799L368.194 107.834L370.358 109.238L372.522 109.343L373.953 110.01L373.36 108.326L371.51 107.694L371.056 106.255L372.208 107.799L373.15 107.94L372.313 107.097L371.649 104.606L371.824 103.167L371.091 101.588L371.859 100.956L372.417 98.9209L372.208 101.939L372.801 102.956L373.36 101.763L373.674 103.728L373.08 105.167L374.79 105.799L373.325 106.29L374.093 107.729L375.349 108.15L376.047 106.922L375.977 108.641L377.164 108.606L377.931 109.484L377.966 109.484L378.211 109.168L378.909 108.852L379.362 108.676L379.327 108.606L380.235 105.904L380.235 105.799L380.06 105.097L380.06 105.062L376.745 106.045L373.848 97.7277L373.709 97.2014L373.115 97.3768L370.637 98.1488L356.991 101.974L354.514 102.641L353.885 102.816Z" fill="#EFF1F5"/>
<path d="M381.98 97.061L381.805 96.6399L381.805 97.061L381.98 97.061ZM382.329 95.7626L382.434 94.7098L382.224 95.6222L382.329 95.7626ZM380.898 84.9893L377.233 84.0769L376.605 83.9015L376.012 83.7611L374.546 87.0247L375.174 87.7967L375.139 90.1478L375.803 90.2531L377.164 93.8325L377.094 93.9378L375.384 96.4644L375.558 98.3945L379.676 99.7982L379.711 101.412L380.654 100.079L380.793 98.1488L381.77 97.4821L381.387 96.0433L382.119 94.3238L382.119 90.569L381.875 89.3407L380.235 89.3758L380.654 87.6914L380.898 84.9893Z" fill="#EFF1F5"/>
<path d="M380.793 87.8318L380.27 88.5687L380.13 88.7793L380.793 87.8318ZM385.609 86.1123L387.354 84.5682L387.354 84.498L385.609 86.1123ZM381.038 87.2001L381.038 86.007L380.933 86.6386L381.038 87.2001ZM389.134 81.5854L388.716 81.4801L388.646 81.7959L389.134 81.5854ZM390.077 80.9537L390.042 81.3046L390.112 81.0941L390.077 80.9537ZM389.099 80.9888L386.761 83.1645L383.166 84.7086L382.224 85.5157L382.154 86.2877L381.177 87.0949L381.317 88.1476L382.817 87.551L385.016 85.7614L387.459 84.4629L391.159 80.9537L388.541 82.954L387.703 83.3049L389.099 80.9888ZM390.181 79.515L390.321 79.3044L389.902 79.7957L390.181 79.515ZM350.954 78.2166L350.395 78.1464L350.814 78.7078L350.954 78.2166ZM362.541 67.4784L362.61 67.0924L362.331 67.4433L362.541 67.4784ZM362.715 64.9517L362.576 65.0219L362.401 65.4079L362.715 64.9517ZM347.952 84.8841L348.197 85.9368L350.046 86.393L360.656 83.4804L371.335 80.2519L373.29 81.7609L373.674 82.6382L375.942 83.6207L376.012 83.7611L376.605 83.9015L377.233 84.0769L380.898 84.9893L380.828 84.8139L381.142 86.2526L381.84 86.0772L382.224 84.498L382.224 84.4629L381.596 83.8664L382.503 82.7434L382.085 82.217L380.758 77.0585L380.689 76.7076L380.514 76.6023L380.409 75.0583L380.305 73.3738L380.2 71.549L380.2 71.4438L380.13 71.4789L378.385 65.7238L376.535 62.8111L376.012 59.337L374.441 55.6523L374.232 55.7576L366.938 58.2141L365.472 59.7932L363.832 62.9515L363.902 63.6533L361.738 66.952L363.064 67.4082L363.448 69.8997L361.912 71.9351L357.306 74.7424L356.433 74.3915L353.013 74.8828L349.837 76.8129L350.011 77.8305L351.128 78.8131L350.5 81.9012L347.987 84.849L347.952 84.8841Z" fill="#EFF1F5"/>
<path d="M375.942 83.6207L373.674 82.6382L373.29 81.7609L371.335 80.2519L360.656 83.4804L350.046 86.393L348.197 85.9368L347.952 84.8841L347.359 85.3402L346.417 86.007L344.707 87.7616L344.497 87.937L345.649 93.0254L346.521 96.8154L346.696 97.5523L348.232 104.22L353.187 102.992L353.885 102.816L354.514 102.641L356.991 101.974L370.637 98.1488L373.115 97.3768L373.709 97.2014L373.988 96.4995L374.616 96.0082L375.454 96.0082L375.558 95.6924L376.919 94.1484L377.059 93.9027L377.164 93.8325L375.803 90.2531L375.139 90.1478L375.174 87.7967L374.546 87.0247L376.012 83.7611L375.942 83.6207Z" fill="#EFF1F5"/>
<path d="M392.764 64.9166L392.729 64.9166L392.799 64.9517L392.764 64.9166ZM395.347 57.442L395.067 57.0209L395.067 57.2315L395.347 57.442ZM394.858 57.056L394.858 56.7051L394.823 56.4945L394.858 57.056ZM396.114 55.5821L396.045 55.5471L396.079 55.6523L396.114 55.5821ZM399.604 53.8275L399.535 53.3012L399.395 53.5468L399.604 53.8275ZM398.732 54.0381L398.767 53.6521L398.348 53.7223L398.732 54.0381ZM400.023 52.8801L399.884 52.8801L399.884 52.9502L400.023 52.8801ZM398.278 53.4064L397.964 53.3363L397.929 53.6521L398.278 53.4064ZM400.058 52.3186L400.372 52.5642L400.267 52.2835L400.058 52.3186ZM399.116 52.3537L398.802 52.9502L399.22 52.7397L399.116 52.3537ZM397.615 52.3888L397.475 52.5993L397.58 52.9151L397.615 52.3888ZM399.674 51.2307L399.639 50.95L399.535 51.1254L399.674 51.2307ZM399.5 51.3711L399.186 51.0904L399.186 51.336L399.5 51.3711ZM397.545 52.1782L397.475 51.7922L397.336 52.108L397.545 52.1782ZM400.861 50.95L400.337 51.722L400.302 51.1605L400.861 50.95ZM403.408 48.5988L403.164 48.2479L403.025 48.3181L403.408 48.5988ZM404.351 47.0197L404.141 46.9144L404.106 47.0197L404.351 47.0197ZM404.804 44.2825L404.49 44.2825L404.839 44.3878L404.804 44.2825ZM405.328 44.6334L405.223 44.0018L404.944 43.9667L405.328 44.6334ZM404.77 44.0719L404.7 43.4052L404.455 43.8614L404.77 44.0719ZM384.528 49.5814L389.588 61.5127L389.658 61.7584L391.857 64.4604L391.857 64.4253L392.206 64.3201L392.275 62.3198L392.834 61.618L393.183 59.7581L392.869 59.4423L393.462 57.6175L395.486 56.67L396.812 55.0557L397.301 52.2484L399.43 52.108L399.151 50.6692L401.803 49.6516L401.978 48.0724L402.606 48.2128L404.351 46.774L405.119 44.9141L403.339 43.1244L401.454 42.7384L400.756 41.2996L400.756 40.4574L399.604 40.8084L398.313 40.3522L398.313 38.9134L394.823 31.3335L392.275 30L389.448 32.3863L388.681 32.2459L388.018 31.0177L387.11 31.3686L385.819 37.8255L386.273 39.9311L386.656 44.2123L385.644 47.5109L386.342 48.0373L385.505 49.6516L384.597 49.5112L384.528 49.5814Z" fill="#EFF1F5"/>
<path d="M311.203 72.0754L311.028 71.7947L310.993 72.1456L311.203 72.0754ZM311.761 71.4438L311.342 70.8823L311.272 71.1279L311.761 71.4438ZM312.11 68.9171L311.761 68.6013L311.761 68.6715L312.11 68.9171ZM311.238 96.3942L315.565 95.6924L316.787 95.4468L322.126 94.4993L322.231 94.9554L322.58 94.8502L324.883 94.3589L327.082 93.8325L329.316 93.271L329.281 93.1658L330.433 90.8848L330.328 88.9898L331.619 85.7262L332.631 86.3228L333.015 85.5859L332.91 82.7785L331.968 81.0239L330.572 77.3041L329.351 75.9356L328.722 75.7601L326.454 77.3392L326.698 77.6551L325.512 79.901L324.36 79.6904L324.011 77.3392L324.5 77.1638L325.512 74.8126L325.616 70.6717L324.046 67.1625L320.556 66.566L320.207 66.0396L316.961 65.0921L315.495 66.9169L315.635 68.496L314.518 69.8997L314.762 72.0754L313.681 72.8475L313.681 70.1103L312.703 72.1807L311.552 74.0055L310.784 74.6021L311.168 76.5321L310.679 78.5324L310.958 81.0239L310.609 82.2521L313.122 87.0948L313.436 88.9547L313.122 92.3937L311.447 96.2539L311.238 96.3942ZM318.706 64.7763L317.799 64.8465L318.357 65.2676L318.706 64.7763ZM313.401 65.6887L313.122 65.6887L313.436 65.829L313.401 65.6887ZM319.509 61.232L319.16 60.6705L319.02 60.7056L319.509 61.232ZM287.889 63.7937L289.006 64.4253L294.73 66.1799L297.382 66.8818L299.965 67.0572L301.849 68.6013L301.849 70.9876L303.525 72.672L303.525 72.6369L304.886 68.6715L306.526 67.5134L307.783 66.1098L307.992 67.3731L309.283 65.3728L312.389 64.1797L312.634 63.6884L315.775 64.0744L316.996 64.7061L317.589 63.162L318.148 63.5129L320.591 63.1269L319.997 62.1444L318.916 61.5127L319.125 59.2317L316.996 60.4248L315.042 60.1792L314.413 58.6702L314.623 58.1789L311.97 59.4423L310.26 59.5475L307.189 61.4425L306.84 62.1444L304.956 61.6882L303.769 62.2145L301.396 60.1441L296.126 58.5299L296.021 57.8982L292.636 61.1618L290.716 61.6531L287.994 63.7235L287.889 63.7937ZM300.244 55.8278L296.161 57.8631L297.522 59.1966L298.045 57.8631L299.441 56.1436L300.244 55.8278ZM295.672 51.0202L292.88 52.9502L292.741 53.8977L294.939 52.2835L295.672 51.0202Z" fill="#EFF1F5"/>
<path d="M101.07 221.252L101.07 221.112L101 221.112L101.07 221.252ZM102.885 221.287L102.954 221.217L102.885 221.147L102.885 221.287ZM104.246 221.673L104.316 221.638L104.281 221.638L104.246 221.673ZM103.129 221.041L103.094 220.901L103.024 220.901L103.129 221.041ZM105.467 221.568L105.432 221.603L105.467 221.603L105.467 221.568ZM103.618 221.041L103.687 220.831L103.652 220.831L103.618 221.041ZM109.516 220.515L109.551 220.445L109.481 220.41L109.516 220.515ZM108.643 220.199L107.422 221.287L108.294 221.217L109.306 220.41L108.643 220.199ZM110.842 220.585L110.598 220.515L110.772 220.655L110.842 220.585ZM111.33 220.62L110.947 220.515L110.877 220.55L111.33 220.62ZM110.004 220.129L109.62 220.129L110.283 220.304L110.004 220.129ZM111.61 220.48L111.575 220.41L111.435 220.445L111.61 220.48ZM110.563 220.059L110.423 219.989L110.423 220.375L110.563 220.059ZM115.03 220.936L114.995 220.901L114.925 220.901L115.03 220.936ZM115.1 220.901L115.1 220.866L115.03 220.831L115.1 220.901ZM114.506 220.69L114.576 220.831L114.576 220.796L114.506 220.69ZM114.82 220.69L114.506 220.585L114.89 220.866L114.82 220.69ZM119.427 220.866L119.357 220.726L119.322 220.726L119.427 220.866ZM156.98 218.515L156.91 218.445L156.945 218.515L156.98 218.515ZM114.681 219.603L114.681 219.567L114.646 219.603L114.681 219.603ZM157.992 217.883L158.096 218.023L158.166 218.023L157.992 217.883ZM119.846 220.515L119.811 220.55L119.811 220.655L119.846 220.515ZM115.518 219.883L115.588 219.603L115.553 219.603L115.518 219.883ZM160.016 217.076L159.702 217.251L159.981 217.392L160.016 217.076ZM113.529 218.936L112.657 219.111L111.889 220.129L113.529 218.936ZM119.776 220.269L119.567 220.445L119.776 220.41L119.776 220.269ZM160.016 216.9L159.946 216.76L159.911 216.83L160.016 216.9ZM116.426 219.357L116.182 219.322L116.426 219.567L116.426 219.357ZM157.713 217.357L157.643 217.427L157.713 217.673L157.713 217.357ZM116.984 219.322L116.88 219.357L117.019 219.462L116.984 219.322ZM119.567 220.059L119.462 220.059L119.392 219.989L119.567 220.059ZM116.705 219.322L116.531 219.217L116.6 219.322L116.705 219.322ZM119.043 219.708L118.729 219.813L118.52 220.375L119.043 219.708ZM156.945 217.251L156.945 217.497L157.084 217.322L156.945 217.251ZM114.925 218.585L115.204 218.515L115.169 218.515L114.925 218.585ZM114.576 218.374L114.506 218.304L114.506 218.339L114.576 218.374ZM156.945 217.006L156.875 216.971L156.84 217.076L156.945 217.006ZM118.659 219.111L118.59 219.076L118.52 219.181L118.659 219.111ZM156.596 217.076L156.631 216.9L156.561 216.865L156.596 217.076ZM156.317 216.9L156.212 217.041L156.386 217.076L156.317 216.9ZM120.125 218.62L120.055 218.55L120.021 218.55L120.125 218.62ZM156.212 216.269L156.491 216.374L156.596 216.234L156.212 216.269ZM156.631 216.023L156.526 216.093L156.7 216.199L156.631 216.023ZM155.828 216.234L155.758 216.093L155.688 216.164L155.828 216.234ZM159.318 214.935L158.864 216.234L159.318 215.953L159.318 214.935ZM156.247 215.427L155.933 215.742L156.002 216.093L156.247 215.427ZM123.755 218.234L123.755 218.094L123.72 218.164L123.755 218.234ZM155.863 215.076L156.875 216.62L159.143 218.059L158.62 216.83L156.456 214.97L155.863 215.076ZM122.359 217.673L122.324 217.567L122.254 217.602L122.359 217.673ZM157.049 214.479L156.91 215.006L157.154 214.83L157.049 214.479ZM157.782 214.479L157.747 214.83L158.061 214.935L157.782 214.479ZM123.476 217.216L123.301 217.181L123.127 217.251L123.476 217.216ZM127.07 217.497L126.931 217.743L127.001 217.532L127.07 217.497ZM127.594 217.532L127.28 217.567L127.454 217.778L127.594 217.532ZM106.444 213.04L106.793 213.216L106.724 213.146L106.444 213.04ZM120.404 216.479L120.439 216.479L120.439 216.444L120.404 216.479ZM156.491 213.777L156.666 214.444L157.015 214.233L156.491 213.777ZM154.99 214.058L155.165 215.672L155.514 215.321L154.99 214.058ZM155.165 213.532L155.968 214.655L155.863 213.918L155.165 213.532ZM152.687 213.812L152.478 214.479L152.757 214.023L152.687 213.812ZM128.082 215.602L128.013 215.497L128.082 215.637L128.082 215.602ZM152.757 213.286L154.153 215.602L153.943 214.023L152.757 213.286ZM130.037 214.514L129.932 214.62L130.107 214.69L130.037 214.514ZM129.583 214.584L129.618 214.479L129.478 214.479L129.583 214.584ZM129.234 214.584L128.327 215.181L127.21 216.655L127.768 217.251L130.351 215.321L129.234 214.584ZM151.256 212.303L151.012 212.163L151.012 212.374L151.256 212.303ZM129.025 214.163L129.06 214.304L129.304 214.444L129.025 214.163ZM151.919 211.637L151.221 211.988L151.884 212.198L151.919 211.637ZM151.465 211.637L151.396 211.566L151.361 211.637L151.465 211.637ZM153.594 211.075L153.315 210.97L153.245 211.18L153.594 211.075ZM152.094 211.321L151.849 211.286L151.849 211.356L152.094 211.321ZM152.861 211.04L154.292 213.146L153.908 211.216L152.861 211.04ZM129.827 213.321L128.99 213.953L129.374 214.374L130.491 213.532L129.827 213.321ZM120.335 211.988L120.3 211.952L120.3 211.988L120.335 211.988ZM119.951 211.812L119.916 211.637L119.916 211.707L119.951 211.812ZM130.665 212.268L130.595 212.303L130.595 212.339L130.665 212.268ZM130.316 212.198L130.281 212.198L130.211 212.303L130.316 212.198ZM131.154 211.917L131.049 211.847L131.049 211.882L131.154 211.917ZM131.433 211.882L131.328 211.812L131.328 211.847L131.433 211.882ZM130.979 211.777L130.84 211.777L130.84 211.812L130.979 211.777ZM137.924 211.075L137.959 210.97L137.889 211.04L137.924 211.075ZM140.053 209.952L140.472 209.426L140.332 209.531L140.053 209.952ZM135.795 209.882L135.935 209.777L135.97 209.636L135.795 209.882ZM135.795 209.496L135.656 209.601L135.9 209.531L135.795 209.496ZM130.072 209.496L130.037 209.356L130.002 209.356L130.072 209.496ZM135.656 209.461L135.516 209.601L135.446 209.742L135.656 209.461ZM139.669 209.04L139.599 209.005L139.599 209.04L139.669 209.04ZM139.25 209.005L139.285 209.04L139.285 209.005L139.25 209.005ZM136.389 209.215L136.528 209.075L136.354 209.215L136.389 209.215ZM136.807 208.899L135.97 210.268L137.052 209.005L136.807 208.899ZM135.726 209.075L135.621 208.935L135.586 209.005L135.726 209.075ZM138.378 208.759L138.308 208.724L138.343 208.759L138.378 208.759ZM139.285 208.829L139.285 208.584L139.216 208.689L139.285 208.829ZM113.669 206.127L111.994 206.057L113.145 207.285L113.669 206.127ZM137.505 208.619L137.575 208.864L137.75 208.584L137.505 208.619ZM136.109 208.584L136.005 209.356L136.179 208.864L136.109 208.584ZM135.76 208.092L135.795 208.198L135.865 208.163L135.76 208.092ZM135.586 208.233L135.516 208.022L135.411 208.092L135.586 208.233ZM137.226 207.812L137.226 207.671L137.122 207.741L137.226 207.812ZM135.656 207.601L135.656 207.952L135.76 207.706L135.656 207.601ZM114.786 202.829L114.855 202.618L114.82 202.653L114.786 202.829ZM114.89 202.478L114.855 202.442L114.82 202.478L114.89 202.478ZM117.263 200.653L117.124 200.583L117.124 200.618L117.263 200.653ZM117.054 200.512L117.054 200.442L116.984 200.512L117.054 200.512ZM111.47 198.863L111.4 198.688L111.365 198.582L111.47 198.863ZM111.994 198.231L112.028 198.231L112.063 198.267L111.994 198.231ZM111.051 198.056L110.772 197.705L110.981 197.986L111.051 198.056ZM110.493 197.495L110.423 197.495L110.528 197.53L110.493 197.495ZM119.741 199.846L119.357 199.881L119.567 199.986L119.741 199.846ZM110.109 196.442L109.83 197.495L110.702 197.635L111.854 198.828L112.552 198.512L110.109 196.442ZM114.471 193.143L114.402 193.108L114.437 193.143L114.471 193.143ZM115.484 193.494L115.588 193.459L115.553 193.459L115.484 193.494ZM116.182 193.283L116.286 193.283L116.6 193.143L116.182 193.283ZM117.438 192.897L117.508 192.827L117.403 192.897L117.438 192.897ZM117.612 192.862L117.822 192.757L117.647 192.792L117.612 192.862ZM118.136 192.652L117.961 192.687L117.961 192.722L118.136 192.652ZM140.542 186.3L140.402 186.195L140.158 186.09L140.542 186.3ZM122.254 185.528L122.568 185.107L122.394 185.247L122.254 185.528ZM122.673 185.037L122.813 184.826L122.743 184.896L122.673 185.037ZM122.882 184.756L123.127 184.546L122.987 184.616L122.882 184.756ZM133.876 184.826L134.05 185.002L134.155 185.002L133.876 184.826ZM128.257 182.51L126.826 183.703L125.954 183.458L123.929 184.616L123.545 184.37L121.242 186.967L118.904 187.493L119.113 188.757L120.16 190.195L122.115 192.09L121.8 192.827L123.266 193.459L122.498 193.599L121.556 192.862L122.045 193.95L121.417 194.336L119.427 192.511L117.857 192.792L115.169 193.81L116.391 195.178L116.216 196.021L117.019 197.003L119.672 198.056L121.591 197.073L121.905 197.81L121.382 200.021L119.776 200.021L117.892 200.863L117.787 200.267L116.81 200.653L116.356 201.67L114.751 202.899L114.751 204.688L115.379 204.969L114.89 206.478L116.984 208.303L118.31 207.741L118.031 209.987L118.415 210.479L120.021 210.829L120.614 211.496L122.01 211.602L122.673 212.303L124.104 211.882L123.441 212.795L122.917 214.655L118.659 217.427L118.101 217.988L117.298 217.672L116.007 217.988L114.157 219.216L117.054 218.374L117.473 219.006L121.207 217.778L121.312 218.269L122.778 216.795L125.849 214.655L126.093 214.795L128.78 212.654L128.082 211.812L128.99 210.303L131.363 207.461L133.178 207.11L133.736 207.496L131.538 208.127L130.944 210.479L131.014 211.742L131.782 211.672L135.481 209.426L135.76 208.584L135.446 207.285L136.563 207.566L137.366 207.04L139.669 208.443L139.495 208.829L144.73 209.496L145.951 209.11L146.3 209.636L150.837 211.812L151.605 211.356L151.675 208.724L152.268 209.917L155.2 212.058L155.444 212.935L157.992 214.374L158.655 216.234L159.283 214.795L160.574 217.322L161.447 215.883L160.749 214.093L158.062 213.812L153.943 209.847L151.71 208.198L150 209.882L148.988 209.882L146.649 208.338L144.346 208.233L141.065 187.423L140.507 186.44L139.181 185.633L137.191 186.019L135.656 185.704L133.701 184.932L131.642 185.072L131.119 184.089L129.478 183.844L129.199 183.247L128.466 184.089L128.257 182.51Z" fill="#EFF1F5"/>
<circle cx="280.699" cy="79.3174" r="6.15088" fill="#33B66A" stroke="white" stroke-width="2.30175"/>
<circle cx="378.198" cy="105.908" r="6.15088" fill="#33B66A" stroke="white" stroke-width="2.30175"/>
<circle cx="352.715" cy="101.476" r="6.15088" fill="#33B66A" stroke="white" stroke-width="2.30175"/>
<circle cx="321.693" cy="143.578" r="6.15088" fill="#83925E" stroke="white" stroke-width="2.30175"/>
<circle cx="321.693" cy="159.089" r="6.15088" fill="#83925E" stroke="white" stroke-width="2.30175"/>
<circle cx="289.563" cy="169.06" r="6.15088" fill="#C77354" stroke="white" stroke-width="2.30175"/>
<circle cx="162.15" cy="171.276" r="6.15088" fill="#F45F4D" stroke="white" stroke-width="2.30175"/>
<circle cx="116.725" cy="131.39" r="6.15088" fill="#25BB6B" stroke="white" stroke-width="2.30175"/>
<circle cx="120.049" cy="143.578" r="6.15088" fill="#25BB6B" stroke="white" stroke-width="2.30175"/>
<circle cx="305.074" cy="171.276" r="6.15088" fill="#C77354" stroke="white" stroke-width="2.30175"/>
<circle cx="277.375" cy="191.219" r="6.15088" fill="#C77354" stroke="white" stroke-width="2.30175"/>
<circle cx="5" cy="5" r="6.15088" transform="matrix(1 0 0 -1 248.001 192.867)" fill="#F45F4D" stroke="white" stroke-width="2.30175"/>
<circle cx="352.715" cy="195.651" r="6.15088" fill="#83925E" stroke="white" stroke-width="2.30175"/>
<path d="M128.019 249.973V250.754H124.837V249.973H128.019ZM132.036 246.727V254H131.156V247.651H131.113L129.337 248.83V247.935L131.156 246.727H132.036ZM136.5 254.099C135.965 254.099 135.509 253.954 135.133 253.663C134.756 253.369 134.469 252.944 134.27 252.388C134.071 251.829 133.972 251.154 133.972 250.364C133.972 249.578 134.071 248.906 134.27 248.35C134.471 247.791 134.76 247.365 135.136 247.072C135.515 246.776 135.97 246.628 136.5 246.628C137.03 246.628 137.484 246.776 137.86 247.072C138.239 247.365 138.528 247.791 138.727 248.35C138.928 248.906 139.028 249.578 139.028 250.364C139.028 251.154 138.929 251.829 138.73 252.388C138.531 252.944 138.244 253.369 137.867 253.663C137.491 253.954 137.035 254.099 136.5 254.099ZM136.5 253.318C137.03 253.318 137.442 253.062 137.736 252.551C138.029 252.04 138.176 251.311 138.176 250.364C138.176 249.734 138.109 249.198 137.974 248.755C137.841 248.312 137.649 247.975 137.398 247.743C137.15 247.511 136.85 247.395 136.5 247.395C135.974 247.395 135.564 247.654 135.268 248.173C134.972 248.689 134.824 249.419 134.824 250.364C134.824 250.993 134.89 251.528 135.023 251.969C135.155 252.409 135.346 252.744 135.594 252.974C135.845 253.203 136.147 253.318 136.5 253.318ZM142.75 254.099C142.215 254.099 141.759 253.954 141.383 253.663C141.006 253.369 140.719 252.944 140.52 252.388C140.321 251.829 140.222 251.154 140.222 250.364C140.222 249.578 140.321 248.906 140.52 248.35C140.721 247.791 141.01 247.365 141.386 247.072C141.765 246.776 142.22 246.628 142.75 246.628C143.28 246.628 143.734 246.776 144.11 247.072C144.489 247.365 144.778 247.791 144.977 248.35C145.178 248.906 145.278 249.578 145.278 250.364C145.278 251.154 145.179 251.829 144.98 252.388C144.781 252.944 144.494 253.369 144.117 253.663C143.741 253.954 143.285 254.099 142.75 254.099ZM142.75 253.318C143.28 253.318 143.692 253.062 143.986 252.551C144.279 252.04 144.426 251.311 144.426 250.364C144.426 249.734 144.359 249.198 144.224 248.755C144.091 248.312 143.899 247.975 143.648 247.743C143.4 247.511 143.1 247.395 142.75 247.395C142.224 247.395 141.814 247.654 141.518 248.173C141.222 248.689 141.074 249.419 141.074 250.364C141.074 250.993 141.14 251.528 141.273 251.969C141.405 252.409 141.596 252.744 141.844 252.974C142.095 253.203 142.397 253.318 142.75 253.318ZM150.335 252.636V252.253C150.335 251.988 150.39 251.745 150.499 251.525C150.61 251.302 150.771 251.125 150.982 250.992C151.195 250.857 151.453 250.79 151.756 250.79C152.063 250.79 152.321 250.857 152.53 250.992C152.738 251.125 152.896 251.302 153.002 251.525C153.109 251.745 153.162 251.988 153.162 252.253V252.636C153.162 252.902 153.107 253.145 152.999 253.368C152.892 253.588 152.733 253.766 152.523 253.901C152.314 254.033 152.059 254.099 151.756 254.099C151.448 254.099 151.189 254.033 150.978 253.901C150.767 253.766 150.607 253.588 150.499 253.368C150.39 253.145 150.335 252.902 150.335 252.636ZM151.06 252.253V252.636C151.06 252.857 151.112 253.054 151.216 253.229C151.32 253.402 151.5 253.489 151.756 253.489C152.004 253.489 152.179 253.402 152.281 253.229C152.385 253.054 152.438 252.857 152.438 252.636V252.253C152.438 252.033 152.388 251.836 152.288 251.663C152.189 251.488 152.011 251.401 151.756 251.401C151.507 251.401 151.328 251.488 151.219 251.663C151.113 251.836 151.06 252.033 151.06 252.253ZM146.713 248.474V248.091C146.713 247.826 146.768 247.583 146.876 247.363C146.988 247.14 147.149 246.963 147.359 246.83C147.572 246.695 147.83 246.628 148.134 246.628C148.441 246.628 148.699 246.695 148.908 246.83C149.116 246.963 149.273 247.14 149.38 247.363C149.487 247.583 149.54 247.826 149.54 248.091V248.474C149.54 248.74 149.485 248.983 149.376 249.206C149.27 249.426 149.111 249.604 148.901 249.739C148.692 249.871 148.437 249.938 148.134 249.938C147.826 249.938 147.567 249.871 147.356 249.739C147.145 249.604 146.985 249.426 146.876 249.206C146.768 248.983 146.713 248.74 146.713 248.474ZM147.438 248.091V248.474C147.438 248.695 147.49 248.892 147.594 249.067C147.698 249.24 147.878 249.327 148.134 249.327C148.382 249.327 148.557 249.24 148.659 249.067C148.763 248.892 148.815 248.695 148.815 248.474V248.091C148.815 247.871 148.766 247.674 148.666 247.501C148.567 247.326 148.389 247.239 148.134 247.239C147.885 247.239 147.706 247.326 147.597 247.501C147.491 247.674 147.438 247.871 147.438 248.091ZM146.983 254L151.983 246.727H152.793L147.793 254H146.983Z" fill="#2E3D4B"/>
<rect x="162" y="246" width="182" height="8" rx="4" fill="url(#paint0_linear_747_121850)"/>
<path d="M355.31 246.727V254H354.429V247.651H354.386L352.611 248.83V247.935L354.429 246.727H355.31ZM359.773 254.099C359.238 254.099 358.783 253.954 358.406 253.663C358.03 253.369 357.742 252.944 357.543 252.388C357.344 251.829 357.245 251.154 357.245 250.364C357.245 249.578 357.344 248.906 357.543 248.35C357.745 247.791 358.033 247.365 358.41 247.072C358.789 246.776 359.243 246.628 359.773 246.628C360.304 246.628 360.757 246.776 361.134 247.072C361.512 247.365 361.801 247.791 362 248.35C362.201 248.906 362.302 249.578 362.302 250.364C362.302 251.154 362.202 251.829 362.004 252.388C361.805 252.944 361.517 253.369 361.141 253.663C360.764 253.954 360.308 254.099 359.773 254.099ZM359.773 253.318C360.304 253.318 360.716 253.062 361.009 252.551C361.303 252.04 361.45 251.311 361.45 250.364C361.45 249.734 361.382 249.198 361.247 248.755C361.115 248.312 360.923 247.975 360.672 247.743C360.423 247.511 360.124 247.395 359.773 247.395C359.248 247.395 358.837 247.654 358.541 248.173C358.245 248.689 358.097 249.419 358.097 250.364C358.097 250.993 358.164 251.528 358.296 251.969C358.429 252.409 358.619 252.744 358.868 252.974C359.119 253.203 359.421 253.318 359.773 253.318ZM366.023 254.099C365.488 254.099 365.033 253.954 364.656 253.663C364.28 253.369 363.992 252.944 363.793 252.388C363.594 251.829 363.495 251.154 363.495 250.364C363.495 249.578 363.594 248.906 363.793 248.35C363.995 247.791 364.283 247.365 364.66 247.072C365.039 246.776 365.493 246.628 366.023 246.628C366.554 246.628 367.007 246.776 367.384 247.072C367.762 247.365 368.051 247.791 368.25 248.35C368.451 248.906 368.552 249.578 368.552 250.364C368.552 251.154 368.452 251.829 368.254 252.388C368.055 252.944 367.767 253.369 367.391 253.663C367.014 253.954 366.558 254.099 366.023 254.099ZM366.023 253.318C366.554 253.318 366.966 253.062 367.259 252.551C367.553 252.04 367.7 251.311 367.7 250.364C367.7 249.734 367.632 249.198 367.497 248.755C367.365 248.312 367.173 247.975 366.922 247.743C366.673 247.511 366.374 247.395 366.023 247.395C365.498 247.395 365.087 247.654 364.791 248.173C364.495 248.689 364.347 249.419 364.347 250.364C364.347 250.993 364.414 251.528 364.546 251.969C364.679 252.409 364.869 252.744 365.118 252.974C365.369 253.203 365.671 253.318 366.023 253.318ZM373.609 252.636V252.253C373.609 251.988 373.663 251.745 373.772 251.525C373.883 251.302 374.044 251.125 374.255 250.992C374.468 250.857 374.726 250.79 375.029 250.79C375.337 250.79 375.595 250.857 375.803 250.992C376.012 251.125 376.169 251.302 376.276 251.525C376.382 251.745 376.435 251.988 376.435 252.253V252.636C376.435 252.902 376.381 253.145 376.272 253.368C376.165 253.588 376.007 253.766 375.796 253.901C375.588 254.033 375.332 254.099 375.029 254.099C374.721 254.099 374.462 254.033 374.251 253.901C374.041 253.766 373.881 253.588 373.772 253.368C373.663 253.145 373.609 252.902 373.609 252.636ZM374.333 252.253V252.636C374.333 252.857 374.385 253.054 374.489 253.229C374.594 253.402 374.773 253.489 375.029 253.489C375.278 253.489 375.453 253.402 375.555 253.229C375.659 253.054 375.711 252.857 375.711 252.636V252.253C375.711 252.033 375.661 251.836 375.562 251.663C375.462 251.488 375.285 251.401 375.029 251.401C374.781 251.401 374.602 251.488 374.493 251.663C374.386 251.836 374.333 252.033 374.333 252.253ZM369.987 248.474V248.091C369.987 247.826 370.041 247.583 370.15 247.363C370.261 247.14 370.422 246.963 370.633 246.83C370.846 246.695 371.104 246.628 371.407 246.628C371.715 246.628 371.973 246.695 372.181 246.83C372.389 246.963 372.547 247.14 372.653 247.363C372.76 247.583 372.813 247.826 372.813 248.091V248.474C372.813 248.74 372.759 248.983 372.65 249.206C372.543 249.426 372.385 249.604 372.174 249.739C371.966 249.871 371.71 249.938 371.407 249.938C371.099 249.938 370.84 249.871 370.629 249.739C370.419 249.604 370.259 249.426 370.15 249.206C370.041 248.983 369.987 248.74 369.987 248.474ZM370.711 248.091V248.474C370.711 248.695 370.763 248.892 370.867 249.067C370.971 249.24 371.151 249.327 371.407 249.327C371.656 249.327 371.831 249.24 371.933 249.067C372.037 248.892 372.089 248.695 372.089 248.474V248.091C372.089 247.871 372.039 247.674 371.94 247.501C371.84 247.326 371.663 247.239 371.407 247.239C371.158 247.239 370.98 247.326 370.871 247.501C370.764 247.674 370.711 247.871 370.711 248.091ZM370.256 254L375.256 246.727H376.066L371.066 254H370.256Z" fill="#2E3D4B"/>
<path d="M214.381 272V264.727H216.838C217.406 264.727 217.873 264.824 218.237 265.018C218.602 265.21 218.872 265.474 219.047 265.81C219.222 266.147 219.31 266.529 219.31 266.957C219.31 267.386 219.222 267.766 219.047 268.097C218.872 268.429 218.603 268.689 218.241 268.879C217.879 269.066 217.416 269.159 216.852 269.159H214.864V268.364H216.824C217.212 268.364 217.525 268.307 217.761 268.193C218 268.08 218.173 267.919 218.28 267.71C218.389 267.5 218.443 267.249 218.443 266.957C218.443 266.666 218.389 266.412 218.28 266.194C218.171 265.976 217.997 265.808 217.758 265.69C217.519 265.569 217.203 265.509 216.81 265.509H215.261V272H214.381ZM217.804 268.733L219.594 272H218.571L216.81 268.733H217.804ZM222.892 272.114C222.366 272.114 221.913 271.998 221.532 271.766C221.153 271.531 220.861 271.205 220.655 270.786C220.451 270.364 220.349 269.874 220.349 269.315C220.349 268.757 220.451 268.264 220.655 267.838C220.861 267.41 221.147 267.076 221.514 266.837C221.883 266.595 222.314 266.474 222.807 266.474C223.091 266.474 223.371 266.522 223.648 266.616C223.925 266.711 224.177 266.865 224.405 267.078C224.632 267.289 224.813 267.568 224.948 267.916C225.083 268.264 225.15 268.693 225.15 269.202V269.557H220.946V268.832H224.298C224.298 268.525 224.237 268.25 224.113 268.009C223.993 267.767 223.82 267.576 223.595 267.437C223.372 267.297 223.11 267.227 222.807 267.227C222.473 267.227 222.184 267.31 221.94 267.476C221.699 267.639 221.513 267.852 221.383 268.115C221.252 268.378 221.187 268.66 221.187 268.96V269.443C221.187 269.855 221.258 270.204 221.4 270.491C221.545 270.775 221.745 270.991 222.001 271.141C222.256 271.287 222.553 271.361 222.892 271.361C223.112 271.361 223.311 271.33 223.488 271.268C223.668 271.205 223.823 271.11 223.954 270.984C224.084 270.857 224.184 270.698 224.256 270.509L225.065 270.736C224.98 271.01 224.837 271.252 224.635 271.46C224.434 271.666 224.186 271.827 223.89 271.943C223.594 272.057 223.261 272.114 222.892 272.114ZM230.719 266.545L228.702 272H227.85L225.833 266.545H226.742L228.248 270.892H228.305L229.81 266.545H230.719ZM233.917 272.114C233.392 272.114 232.938 271.998 232.557 271.766C232.178 271.531 231.886 271.205 231.68 270.786C231.476 270.364 231.375 269.874 231.375 269.315C231.375 268.757 231.476 268.264 231.68 267.838C231.886 267.41 232.172 267.076 232.539 266.837C232.909 266.595 233.34 266.474 233.832 266.474C234.116 266.474 234.397 266.522 234.674 266.616C234.951 266.711 235.203 266.865 235.43 267.078C235.657 267.289 235.838 267.568 235.973 267.916C236.108 268.264 236.176 268.693 236.176 269.202V269.557H231.971V268.832H235.324C235.324 268.525 235.262 268.25 235.139 268.009C235.018 267.767 234.845 267.576 234.62 267.437C234.398 267.297 234.135 267.227 233.832 267.227C233.498 267.227 233.209 267.31 232.966 267.476C232.724 267.639 232.538 267.852 232.408 268.115C232.278 268.378 232.213 268.66 232.213 268.96V269.443C232.213 269.855 232.284 270.204 232.426 270.491C232.57 270.775 232.77 270.991 233.026 271.141C233.282 271.287 233.579 271.361 233.917 271.361C234.137 271.361 234.336 271.33 234.514 271.268C234.694 271.205 234.849 271.11 234.979 270.984C235.109 270.857 235.21 270.698 235.281 270.509L236.091 270.736C236.005 271.01 235.862 271.252 235.661 271.46C235.46 271.666 235.211 271.827 234.915 271.943C234.619 272.057 234.287 272.114 233.917 272.114ZM238.289 268.719V272H237.451V266.545H238.26V267.398H238.331C238.459 267.121 238.653 266.898 238.914 266.73C239.174 266.56 239.51 266.474 239.922 266.474C240.292 266.474 240.615 266.55 240.892 266.702C241.169 266.851 241.384 267.078 241.538 267.384C241.692 267.687 241.769 268.07 241.769 268.534V272H240.931V268.591C240.931 268.162 240.819 267.829 240.597 267.589C240.374 267.348 240.069 267.227 239.681 267.227C239.413 267.227 239.174 267.285 238.963 267.401C238.755 267.517 238.591 267.687 238.47 267.909C238.349 268.132 238.289 268.402 238.289 268.719ZM246.738 269.77V266.545H247.576V272H246.738V271.077H246.681C246.553 271.354 246.354 271.589 246.084 271.783C245.814 271.975 245.474 272.071 245.062 272.071C244.721 272.071 244.418 271.996 244.153 271.847C243.887 271.696 243.679 271.469 243.528 271.165C243.376 270.86 243.3 270.475 243.3 270.011V266.545H244.138V269.955C244.138 270.352 244.25 270.67 244.472 270.906C244.697 271.143 244.983 271.261 245.331 271.261C245.54 271.261 245.752 271.208 245.967 271.102C246.185 270.995 246.367 270.832 246.514 270.612C246.663 270.391 246.738 270.111 246.738 269.77ZM251.398 272.114C250.872 272.114 250.419 271.998 250.038 271.766C249.659 271.531 249.366 271.205 249.161 270.786C248.957 270.364 248.855 269.874 248.855 269.315C248.855 268.757 248.957 268.264 249.161 267.838C249.366 267.41 249.653 267.076 250.02 266.837C250.389 266.595 250.82 266.474 251.312 266.474C251.597 266.474 251.877 266.522 252.154 266.616C252.431 266.711 252.683 266.865 252.911 267.078C253.138 267.289 253.319 267.568 253.454 267.916C253.589 268.264 253.656 268.693 253.656 269.202V269.557H249.452V268.832H252.804C252.804 268.525 252.742 268.25 252.619 268.009C252.499 267.767 252.326 267.576 252.101 267.437C251.878 267.297 251.616 267.227 251.312 267.227C250.979 267.227 250.69 267.31 250.446 267.476C250.205 267.639 250.019 267.852 249.888 268.115C249.758 268.378 249.693 268.66 249.693 268.96V269.443C249.693 269.855 249.764 270.204 249.906 270.491C250.051 270.775 250.251 270.991 250.506 271.141C250.762 271.287 251.059 271.361 251.398 271.361C251.618 271.361 251.817 271.33 251.994 271.268C252.174 271.205 252.329 271.11 252.46 270.984C252.59 270.857 252.69 270.698 252.761 270.509L253.571 270.736C253.486 271.01 253.343 271.252 253.141 271.46C252.94 271.666 252.692 271.827 252.396 271.943C252.1 272.057 251.767 272.114 251.398 272.114ZM262.829 267C262.751 266.761 262.648 266.547 262.52 266.357C262.394 266.165 262.244 266.002 262.069 265.867C261.896 265.732 261.7 265.629 261.479 265.558C261.259 265.487 261.018 265.452 260.755 265.452C260.324 265.452 259.932 265.563 259.58 265.786C259.227 266.008 258.946 266.336 258.738 266.769C258.53 267.202 258.425 267.734 258.425 268.364C258.425 268.993 258.531 269.525 258.741 269.958C258.952 270.391 259.237 270.719 259.597 270.942C259.957 271.164 260.362 271.276 260.812 271.276C261.228 271.276 261.595 271.187 261.913 271.009C262.232 270.829 262.481 270.576 262.658 270.249C262.838 269.92 262.928 269.533 262.928 269.088L263.198 269.145H261.011V268.364H263.781V269.145C263.781 269.744 263.653 270.265 263.397 270.707C263.144 271.15 262.793 271.493 262.346 271.737C261.901 271.979 261.389 272.099 260.812 272.099C260.168 272.099 259.602 271.948 259.114 271.645C258.629 271.342 258.25 270.911 257.978 270.352C257.708 269.794 257.573 269.131 257.573 268.364C257.573 267.788 257.65 267.271 257.804 266.812C257.96 266.35 258.18 265.957 258.464 265.633C258.749 265.308 259.085 265.06 259.473 264.887C259.861 264.714 260.289 264.628 260.755 264.628C261.138 264.628 261.496 264.686 261.827 264.802C262.161 264.915 262.458 265.078 262.719 265.288C262.982 265.497 263.201 265.746 263.376 266.038C263.551 266.326 263.672 266.647 263.738 267H262.829ZM265.175 272V266.545H265.985V267.369H266.042C266.141 267.099 266.321 266.88 266.581 266.712C266.842 266.544 267.135 266.46 267.462 266.46C267.524 266.46 267.601 266.461 267.693 266.464C267.785 266.466 267.855 266.47 267.903 266.474V267.327C267.874 267.32 267.809 267.309 267.707 267.295C267.608 267.278 267.502 267.27 267.391 267.27C267.126 267.27 266.889 267.326 266.681 267.437C266.475 267.546 266.312 267.697 266.191 267.891C266.073 268.083 266.013 268.302 266.013 268.548V272H265.175ZM270.946 272.114C270.453 272.114 270.021 271.996 269.65 271.762C269.28 271.528 268.992 271.2 268.783 270.778C268.577 270.357 268.474 269.865 268.474 269.301C268.474 268.733 268.577 268.237 268.783 267.813C268.992 267.389 269.28 267.06 269.65 266.826C270.021 266.592 270.453 266.474 270.946 266.474C271.438 266.474 271.869 266.592 272.238 266.826C272.61 267.06 272.899 267.389 273.105 267.813C273.313 268.237 273.417 268.733 273.417 269.301C273.417 269.865 273.313 270.357 273.105 270.778C272.899 271.2 272.61 271.528 272.238 271.762C271.869 271.996 271.438 272.114 270.946 272.114ZM270.946 271.361C271.32 271.361 271.628 271.265 271.869 271.073C272.111 270.881 272.289 270.629 272.405 270.317C272.521 270.004 272.579 269.666 272.579 269.301C272.579 268.937 272.521 268.597 272.405 268.282C272.289 267.967 272.111 267.713 271.869 267.518C271.628 267.324 271.32 267.227 270.946 267.227C270.572 267.227 270.264 267.324 270.023 267.518C269.781 267.713 269.602 267.967 269.486 268.282C269.37 268.597 269.312 268.937 269.312 269.301C269.312 269.666 269.37 270.004 269.486 270.317C269.602 270.629 269.781 270.881 270.023 271.073C270.264 271.265 270.572 271.361 270.946 271.361ZM275.747 272L274.085 266.545H274.966L276.145 270.722H276.202L277.366 266.545H278.261L279.412 270.707H279.469L280.648 266.545H281.528L279.866 272H279.042L277.849 267.81H277.764L276.571 272H275.747ZM285.008 266.545V267.256H282.182V266.545H285.008ZM283.006 265.239H283.844V270.438C283.844 270.674 283.878 270.852 283.947 270.97C284.018 271.086 284.108 271.164 284.216 271.205C284.328 271.242 284.445 271.261 284.568 271.261C284.66 271.261 284.736 271.257 284.795 271.247C284.854 271.235 284.902 271.226 284.937 271.219L285.108 271.972C285.051 271.993 284.972 272.014 284.87 272.036C284.768 272.059 284.639 272.071 284.483 272.071C284.246 272.071 284.014 272.02 283.787 271.918C283.562 271.817 283.375 271.661 283.226 271.453C283.079 271.245 283.006 270.982 283.006 270.665V265.239ZM287.224 268.719V272H286.386V264.727H287.224V267.398H287.295C287.423 267.116 287.615 266.892 287.871 266.727C288.129 266.558 288.472 266.474 288.9 266.474C289.272 266.474 289.598 266.549 289.877 266.698C290.156 266.845 290.373 267.071 290.527 267.376C290.683 267.679 290.761 268.065 290.761 268.534V272H289.923V268.591C289.923 268.158 289.811 267.823 289.586 267.586C289.363 267.347 289.054 267.227 288.659 267.227C288.384 267.227 288.138 267.285 287.92 267.401C287.705 267.517 287.534 267.687 287.409 267.909C287.286 268.132 287.224 268.402 287.224 268.719Z" fill="#2E3D4B"/>
</g>
</g>
<defs>
<filter id="filter0_d_747_121850" x="-1.20702" y="3.39649" width="508.414" height="311.414" filterUnits="userSpaceOnUse" color-interpolation-filters="sRGB">
<feFlood flood-opacity="0" result="BackgroundImageFix"/>
<feColorMatrix in="SourceAlpha" type="matrix" values="0 0 0 0 0 0 0 0 0 0 0 0 0 0 0 0 0 0 127 0" result="hardAlpha"/>
<feOffset dy="4.60351"/>
<feGaussianBlur stdDeviation="4.60351"/>
<feColorMatrix type="matrix" values="0 0 0 0 0.0705882 0 0 0 0 0.0156863 0 0 0 0 0.00784314 0 0 0 0.14 0"/>
<feBlend mode="normal" in2="BackgroundImageFix" result="effect1_dropShadow_747_121850"/>
<feBlend mode="normal" in="SourceGraphic" in2="effect1_dropShadow_747_121850" result="shape"/>
</filter>
<linearGradient id="paint0_linear_747_121850" x1="162" y1="250" x2="350.256" y2="250" gradientUnits="userSpaceOnUse">
<stop stop-color="#F65D4C"/>
<stop offset="1" stop-color="#25BB6B"/>
</linearGradient>
<clipPath id="clip0_747_121850">
<rect width="498" height="301" fill="white"/>
</clipPath>
</defs>
</svg>
