<svg width="500" height="275" viewBox="0 0 500 275" fill="none" xmlns="http://www.w3.org/2000/svg">
<g clip-path="url(#clip0_91_427)">
<path d="M60.5501 136.159C62.1066 134.782 62.8849 132.944 62.8849 130.645V130.49C62.8849 127.938 62.0685 126.022 60.4357 124.745C58.8029 123.467 56.5296 122.829 53.6159 122.83H41.9023V138.24H53.854C56.7616 138.232 58.9936 137.538 60.5501 136.159Z" fill="black"/>
<path d="M115.679 165.806V144.279H93.9233V165.806H82.1234V112.179H93.9233V133.402H115.679V112.179H124.931C120.411 103.94 113.76 97.068 105.674 92.281C97.5871 87.4941 88.3628 84.9685 78.9657 84.9685C69.5686 84.9685 60.3442 87.4941 52.2578 92.281C44.1714 97.068 37.5201 103.94 33 112.179H55.0822C61.8748 112.179 67.0844 113.992 70.7111 117.619C73.7743 120.685 75.3059 124.772 75.3059 129.879V130.03C75.3059 134.373 74.2467 137.91 72.1283 140.642C69.9837 143.392 67.1021 145.477 63.8189 146.654L76.9193 165.799H63.1185L51.6268 148.638H42.3671V165.799H34.9238C39.6717 173.165 46.191 179.222 53.8852 183.416C61.5793 187.61 70.2025 189.808 78.9657 189.808C87.7288 189.808 96.3521 187.61 104.046 183.416C111.74 179.222 118.26 173.165 123.008 165.799L115.679 165.806Z" fill="black"/>
<path d="M466.304 145.017H151.517V146.229H466.304V145.017Z" fill="black"/>
<path d="M212.798 100.414L219.426 116.494H206.223L212.798 100.414ZM209.135 89.3147L190.029 135.148H198.724L203.099 124.392H222.555L226.865 135.148H235.805L216.699 89.3147H209.135Z" fill="black"/>
<path d="M270.987 112.457C270.987 121.191 265.248 127.058 256.71 127.058H248.809V97.722H256.71C265.115 97.722 270.987 103.781 270.987 112.457ZM256.71 89.6321H240.367V135.16H256.71C270.079 135.16 279.782 125.562 279.782 112.338C279.782 99.1859 270.079 89.6438 256.71 89.6438" fill="black"/>
<path d="M412.929 112.452C412.929 121.177 406.973 127.759 399.077 127.759C391.109 127.759 385.101 121.126 385.101 112.326C385.101 103.601 391.057 97.0218 398.956 97.0218C406.922 97.0218 412.929 103.657 412.929 112.452ZM399.077 88.8711C386.098 88.8711 376.306 99.011 376.306 112.452C376.306 125.828 386.044 135.912 398.953 135.912C411.935 135.912 421.722 125.772 421.722 112.331C421.722 98.9573 411.988 88.8734 399.075 88.8734" fill="black"/>
<path d="M178.664 104.689C178.664 109.025 175.498 111.719 170.398 111.719H159.948V97.7222H170.34C175.71 97.7222 178.664 100.195 178.664 104.689ZM187.218 104.241C187.218 95.231 180.984 89.6299 170.947 89.6299H151.52V135.158H159.948V119.618H168.563L179.011 135.148H188.981L177.358 118.067C183.723 115.994 187.218 111.105 187.218 104.243" fill="black"/>
<path d="M295.21 89.6321H286.779V135.148H295.21V89.6321Z" fill="black"/>
<path d="M321.084 108.361C312.836 106.295 311.367 104.834 311.367 101.759C311.367 98.8497 313.954 96.8931 317.811 96.8931C321.516 96.8931 325.196 98.3617 329.053 101.374L329.459 101.691L333.998 94.9903L333.669 94.7101C329.097 90.8648 323.949 88.9946 317.933 88.9946C309.1 88.9946 302.934 94.5327 302.934 102.462C302.934 110.958 308.257 113.965 317.452 116.293C325.35 118.205 326.686 119.816 326.686 122.702C326.686 125.9 323.982 127.885 319.632 127.885C314.827 127.885 310.91 126.19 306.532 122.221L306.156 121.875L301.062 128.221L301.388 128.525C306.464 133.273 312.707 135.786 319.448 135.786C328.964 135.786 335.114 130.35 335.114 121.936C335.114 114.833 331.049 110.902 321.084 108.361Z" fill="black"/>
<path d="M357.831 108.361C349.582 106.295 348.114 104.834 348.114 101.759C348.114 98.8497 350.703 96.8931 354.555 96.8931C358.263 96.8931 361.94 98.3617 365.8 101.374L366.204 101.691L370.745 94.9903L370.415 94.7101C365.844 90.8648 360.698 88.9946 354.677 88.9946C345.847 88.9946 339.681 94.5327 339.681 102.462C339.681 110.958 345.004 113.965 354.198 116.293C362.097 118.205 363.43 119.816 363.43 122.702C363.43 125.9 360.728 127.885 356.379 127.885C351.579 127.885 347.658 126.19 343.278 122.221L342.903 121.875L337.808 128.221L338.135 128.525C343.206 133.273 349.454 135.786 356.194 135.786C365.713 135.786 371.861 130.35 371.861 121.936C371.861 114.833 367.796 110.902 357.831 108.361Z" fill="black"/>
<path d="M457.997 89.6345V119.463L436.09 89.8283L435.945 89.6345H428.299V135.151H436.606V104.43L459.183 134.955L459.328 135.151H466.304V89.6345H457.997Z" fill="black"/>
<path d="M466.288 144.98H151.541V146.189H466.288V144.98Z" fill="black"/>
<path d="M151.328 155.855H156.572V168.262H170.814V155.855H176.058V185.703H170.814V173.116H156.572V185.696H151.328V155.855Z" fill="black"/>
<path d="M207.874 170.863V170.782C207.874 162.376 214.355 155.346 223.517 155.346C232.679 155.346 239.08 162.297 239.08 170.695V170.782C239.08 179.187 232.599 186.217 223.438 186.217C214.276 186.217 207.874 179.264 207.874 170.863ZM233.584 170.863V170.782C233.584 164.982 229.363 160.207 223.438 160.207C217.512 160.207 213.375 164.898 213.375 170.695V170.782C213.375 176.581 217.596 181.356 223.522 181.356C229.447 181.356 233.575 176.663 233.575 170.863H233.584Z" fill="black"/>
<path d="M278.851 160.716H269.344V155.855H293.604V160.716H284.095V185.698H278.851V160.716Z" fill="black"/>
<path d="M329.356 155.855H351.485V160.546H334.6V168.307H349.566V173.039H334.6V181.013H351.695V185.703H329.352L329.356 155.855Z" fill="black"/>
<path d="M390.919 155.855H396.163V180.926H411.855V185.703H390.919V155.855Z" fill="black"/>
<path d="M443.891 181.353L447.047 177.601C449.903 180.074 452.802 181.482 456.47 181.482C459.709 181.482 461.756 179.946 461.756 177.73V177.644C461.756 175.512 460.563 174.361 455.02 173.081C448.668 171.547 445.084 169.67 445.084 164.17V164.086C445.084 158.968 449.349 155.428 455.275 155.428C459.625 155.428 463.078 156.752 466.106 159.183L463.29 163.152C460.605 161.148 457.92 160.081 455.191 160.081C452.121 160.081 450.33 161.66 450.33 163.621V163.705C450.33 166.007 451.693 167.032 457.449 168.396C463.752 169.932 467 172.189 467 177.137V177.221C467 182.808 462.608 186.133 456.342 186.133C451.74 186.153 447.297 184.448 443.891 181.353Z" fill="black"/>
</g>
<defs>
<clipPath id="clip0_91_427">
<rect width="434" height="104.843" fill="white" transform="translate(33 84.9719)"/>
</clipPath>
</defs>
</svg>
